<svg width="1064" height="309" viewBox="0 0 1064 309" fill="none" xmlns="http://www.w3.org/2000/svg">
<rect x="63.3462" y="108" width="1000" height="200" rx="15" fill="#9CB468"/>
<g clip-path="url(#clip0_12_96)">
<path d="M921.848 222.437C921.336 222.234 919.909 221.593 919.721 221.526C916.879 220.513 916.991 218.703 916.633 216.681C916.234 214.491 916.023 212.27 916.002 210.045C922.62 206.167 927.759 197.579 928.723 194.992C928.881 194.515 929.205 193.616 929.491 192.55L930.092 192.458C931.379 192.245 932.589 191.706 933.602 190.892C934.851 189.843 935.855 188.539 936.547 187.07C938.015 184.164 938.647 180.914 938.374 177.677C938.336 176.849 938.123 176.038 937.748 175.297C937.424 174.761 936.983 174.302 936.457 173.957C935.931 173.611 935.333 173.386 934.708 173.298C934.07 173.206 933.42 173.251 932.802 173.43C932.183 173.609 931.611 173.917 931.124 174.335C931.124 174.335 932.148 150.019 901.556 150.019C875.963 150.019 871.338 166.929 871.035 172.573C870.999 173.16 870.994 173.748 871.021 174.335C870.534 173.918 869.962 173.609 869.344 173.43C868.726 173.251 868.076 173.206 867.438 173.298C866.812 173.386 866.215 173.611 865.688 173.957C865.162 174.303 864.721 174.761 864.398 175.297C864.023 176.038 863.809 176.849 863.772 177.677C863.498 180.914 864.13 184.164 865.598 187.07C866.291 188.539 867.295 189.843 868.543 190.892C869.557 191.706 870.767 192.245 872.054 192.458C872.054 192.458 872.487 192.524 873.199 192.63C874.314 196.73 876.293 200.551 879.005 203.842C881.088 206.386 883.622 208.532 886.484 210.176C886.453 212.358 886.242 214.534 885.852 216.681C885.494 218.703 885.606 220.511 882.764 221.526C882.576 221.593 881.228 222.184 880.637 222.437C880.637 222.437 881.749 233.253 899.949 233.253C918.149 233.253 921.848 222.437 921.848 222.437Z" fill="#9CB468"/>
<path d="M964.983 253.325C965.931 250 969.838 242.623 970.417 239.215C970.928 236.709 971.086 234.144 970.886 231.595C970.527 228.392 969.201 225.259 969.546 222.055C969.746 220.19 970.504 218.434 971.253 216.711L975.706 206.46C976.256 205.195 977.084 203.731 978.475 203.682C979.499 203.647 980.343 204.423 981.06 205.146C981.06 205.146 1004.07 208.192 1004.68 208.09C1006.22 207.837 1006.86 205.632 1008.42 205.537C1008.87 205.51 1009.31 205.586 1009.73 205.757C1010.14 205.929 1010.51 206.193 1010.8 206.528C1011.09 206.863 1011.3 207.26 1011.41 207.689C1011.52 208.117 1011.53 208.565 1011.44 208.998C1011.2 209.83 1010.76 210.591 1010.16 211.216C1009.51 211.985 1008.83 212.725 1008.11 213.429C1008.55 213.402 1008.99 213.494 1009.39 213.694C1009.78 213.895 1010.11 214.198 1010.34 214.57C1010.73 215.242 1010.87 216.027 1010.74 216.79C1010.69 217.138 1010.59 217.479 1010.47 217.807C1010 218.83 1009.38 219.776 1008.63 220.614L1006.9 222.741C1006.45 223.412 1005.83 223.953 1005.09 224.31C1005.43 224.758 1005.64 225.285 1005.71 225.839C1005.75 226.535 1005.55 227.224 1005.14 227.791C1004.34 228.881 1003.47 229.917 1002.53 230.893C1002.02 231.365 1001.36 231.648 1000.67 231.695C997.492 236.56 991.822 240.919 988.315 242.192C987.648 242.404 987.072 242.832 986.681 243.407C985.537 245.707 984.265 259.197 983.988 260.063L982.206 266.206C982.206 266.206 963.404 258.141 963.404 257.736C963.404 257.331 964.983 253.325 964.983 253.325Z" fill="#9CB468"/>
<path d="M1010.73 216.79C1010.87 216.027 1010.73 215.242 1010.34 214.57C1009.75 213.614 1008.4 213.097 1007.42 213.641C1006.93 213.886 1006.5 214.222 1006.14 214.629C1005.32 215.692 1004.89 216.321 1003.77 217.824C1002.92 218.855 1002.21 219.992 1001.66 221.206C1001.4 221.872 1001.76 223.036 1002.45 223.743C1002.81 224.091 1003.26 224.327 1003.75 224.419C1004.24 224.511 1004.75 224.456 1005.21 224.261C1005.89 223.892 1006.47 223.372 1006.9 222.742L1008.63 220.616C1009.38 219.778 1010 218.831 1010.46 217.809C1010.59 217.48 1010.68 217.139 1010.73 216.79V216.79Z" fill="#9CB468"/>
<path d="M831.212 307.254C834.382 290.866 839.009 264.14 844.914 248.509C845.614 246.466 846.505 244.492 847.576 242.612C849.955 238.721 853.765 235.919 857.611 233.427C864.768 228.789 872.377 224.872 880.323 221.732C880.485 220.77 883.24 215.731 884.152 213.395C884.216 213.233 884.3 213.051 884.468 213.002C884.652 212.949 884.833 213.08 884.98 213.205C886.604 214.584 895.52 221.767 896.476 222.925C896.805 224.02 897.373 225.468 898.329 228.438C899.1 230.246 900.484 233.616 901.226 235.196C902.292 232.986 903.68 229.722 904.783 227.098C905.316 225.494 905.744 223.697 905.976 222.925C906.933 221.766 915.848 214.583 917.472 213.205C917.617 213.081 917.799 212.952 917.984 213.002C918.152 213.053 918.236 213.233 918.299 213.395C919.209 215.717 921.933 220.712 922.126 221.713C930.089 224.856 937.713 228.779 944.884 233.425C948.73 235.917 952.541 238.719 954.92 242.61C956.046 244.455 956.609 247.185 957.37 249.205C958.42 251.985 959.548 257.108 960.968 259.951L961.082 259.577C965.331 260.939 977.943 264.854 983.822 266.563C982.052 274.451 982.706 275.188 978.507 284.488C976.851 288.157 975.145 292.126 972.683 295.322C970.221 298.518 967.665 299.827 963.602 299.827C958.899 299.827 953.672 297.001 950.279 293.553C948.02 291.257 942.005 283.506 941.417 282.144C941.257 290.551 941.408 296.328 941.408 307.254" fill="#D6A760"/>
<path d="M964.583 252.98C965.55 254.668 966.815 256.172 968.319 257.418C972.665 260.835 979.754 262.112 982.195 261.542C984.635 260.971 984.969 260.223 985.682 257.846C987.64 259.301 989.639 262.13 989.175 264.508C988.72 266.843 987.728 270.064 986.419 272.059C985.849 273.049 985.022 273.868 984.022 274.433C983.238 274.766 982.402 274.962 981.55 275.01C973.707 275.781 965.871 273.478 959.727 268.595C958.289 267.439 956.973 265.954 956.679 264.145C956.386 262.336 957.485 260.223 959.318 259.947C959.819 259.871 960.409 259.901 960.736 259.517C961.056 259.142 960.941 258.585 960.886 258.097C960.579 255.38 961.833 252.715 964.584 252.984" fill="#9CB468"/>
<path d="M976.765 222.759C979.441 213.926 984.22 197.935 986.932 188.987C987.045 188.612 987.232 188.263 987.482 187.96C987.732 187.657 988.04 187.406 988.389 187.221C988.737 187.035 989.119 186.92 989.513 186.881C989.907 186.843 990.304 186.881 990.683 186.995C995.792 188.522 1002.7 190.589 1007.1 191.905C1007.87 192.133 1008.51 192.652 1008.88 193.346C1009.26 194.041 1009.34 194.855 1009.11 195.61C1006.04 205.727 1001.64 220.232 998.887 229.276C998.658 230.03 998.135 230.664 997.434 231.037C996.733 231.411 995.911 231.494 995.148 231.268C990.563 229.916 983.365 227.812 978.787 226.462C978.408 226.35 978.056 226.166 977.749 225.92C977.442 225.673 977.187 225.369 977 225.025C976.812 224.681 976.694 224.304 976.654 223.915C976.614 223.526 976.651 223.133 976.765 222.759V222.759Z" fill="#9CB468"/>
<path d="M892.886 126.55C886.19 127.305 879.299 129.689 873.713 135.248L876.388 137.505C871.832 140.289 868.253 145.683 866.611 150.458C864.677 156.078 864.1 164.071 866.396 173.517L866.413 173.586C866.742 173.447 867.088 173.351 867.442 173.299C868.079 173.207 868.73 173.251 869.348 173.43C869.966 173.609 870.538 173.918 871.025 174.336L874.864 172.074L875.179 171.887C883.3 164.372 887.827 161.26 895.105 155.605C895.149 156.107 896.772 160.119 897.152 160.272C897.62 160.46 902.311 157.591 906.129 155.26L912.572 156.034C915.532 156.674 918.31 158.265 920.813 160.393C925.247 164.167 928.813 169.631 930.987 174.492C931.472 174.021 932.061 173.669 932.707 173.462C933.353 173.255 934.04 173.199 934.711 173.299C934.977 173.338 935.239 173.403 935.492 173.491C937.719 167.834 938.045 159.638 935.233 151.862C933.256 146.395 928.542 140.678 924.826 139.07L920.439 135.977C916.131 130.143 908.954 126.566 899.767 126.288C897.47 126.212 895.17 126.3 892.886 126.55V126.55Z" fill="#9CB468"/>
<path d="M931.996 175.195C932.648 174.662 933.489 174.405 934.332 174.483C935.175 174.56 935.954 174.964 936.496 175.607C937.082 176.371 937.15 177.43 937.194 178.349C937.254 179.474 937.194 180.602 937.015 181.715C936.349 185.676 934.232 190.532 929.767 191.287C929.455 191.375 929.189 191.58 929.029 191.86C928.868 192.14 928.825 192.471 928.909 192.781C929.002 193.088 929.211 193.347 929.493 193.505C929.774 193.663 930.107 193.708 930.421 193.63C934.925 192.87 937.591 188.668 938.837 184.661C939.494 182.546 939.765 180.333 939.638 178.125C939.509 175.988 938.901 173.997 936.951 172.829C935.908 172.229 934.7 171.969 933.499 172.085C932.298 172.201 931.164 172.688 930.258 173.477C930.03 173.706 929.903 174.015 929.903 174.336C929.903 174.657 930.03 174.966 930.258 175.195C930.492 175.417 930.803 175.541 931.127 175.541C931.451 175.541 931.762 175.417 931.996 175.195V175.195Z" fill="#211715"/>
<path d="M928.819 189.16C928.742 190.492 928.488 191.808 928.063 193.075C927.93 193.51 927.785 193.941 927.639 194.371C927.592 194.509 927.543 194.644 927.495 194.781C927.481 194.821 927.462 194.859 927.448 194.899C927.366 195.121 927.558 194.655 927.462 194.866C926.878 196.115 926.21 197.324 925.461 198.483C923.342 201.952 920.636 205.035 917.46 207.596C915.73 208.999 913.71 210.008 911.541 210.552C910.001 210.901 910.653 213.245 912.195 212.895C916.634 211.889 920.352 208.728 923.285 205.422C925.787 202.694 927.876 199.623 929.488 196.303C930.545 194.059 931.152 191.634 931.276 189.161C931.328 187.598 928.871 187.599 928.819 189.161V189.16Z" fill="#211715"/>
<path d="M871.892 173.477C871.101 172.786 870.133 172.324 869.093 172.142C868.054 171.96 866.984 172.065 866.002 172.446C863.883 173.301 862.856 175.096 862.589 177.269C862.083 181.638 863.2 186.04 865.731 189.655C867.191 191.647 869.231 193.208 871.729 193.63C872.043 193.706 872.375 193.661 872.656 193.503C872.937 193.345 873.146 193.087 873.24 192.781C873.324 192.471 873.281 192.14 873.121 191.86C872.96 191.581 872.695 191.375 872.382 191.287C867.918 190.532 865.802 185.676 865.135 181.715C864.962 180.639 864.9 179.549 864.952 178.461C864.99 177.532 865.044 176.471 865.603 175.682C865.866 175.349 866.194 175.072 866.567 174.867C866.94 174.661 867.35 174.532 867.775 174.487C868.199 174.441 868.629 174.481 869.038 174.602C869.446 174.724 869.826 174.926 870.155 175.195C870.389 175.416 870.7 175.539 871.023 175.539C871.347 175.539 871.658 175.416 871.892 175.195C872.12 174.966 872.248 174.658 872.248 174.336C872.248 174.015 872.12 173.706 871.892 173.477V173.477Z" fill="#211715"/>
<path d="M871.052 188.704C871.763 193.146 873.32 197.414 875.642 201.282C878.243 205.466 882.002 209.244 886.429 211.528C888.77 212.737 891.322 213.494 893.95 213.758C894.275 213.756 894.586 213.627 894.816 213.4C895.046 213.172 895.176 212.864 895.178 212.543C895.171 212.223 895.039 211.918 894.81 211.691C894.582 211.465 894.273 211.335 893.95 211.328C884.909 210.405 877.873 202.401 875.033 194.346C874.323 192.297 873.784 190.194 873.421 188.058C873.332 187.749 873.124 187.486 872.841 187.327C872.558 187.169 872.224 187.126 871.91 187.209C871.599 187.301 871.337 187.508 871.177 187.786C871.017 188.065 870.972 188.393 871.052 188.704V188.704Z" fill="#211715"/>
<path d="M924.204 140.12C925.952 140.982 927.502 142.19 928.76 143.667C930.369 145.428 931.741 147.386 932.842 149.495C935.219 154.01 936.16 159.346 936.005 164.405C935.939 167.011 935.5 169.595 934.699 172.079C934.209 173.57 936.581 174.208 937.068 172.725C938.719 167.696 938.824 162.214 937.89 157.038C936.973 151.75 934.65 146.8 931.16 142.694C929.588 140.854 927.695 139.02 925.445 138.021C925.161 137.868 924.829 137.828 924.517 137.909C924.204 137.99 923.935 138.186 923.764 138.457C923.602 138.736 923.557 139.066 923.64 139.377C923.722 139.689 923.925 139.955 924.204 140.12V140.12Z" fill="#211715"/>
<path d="M878.56 135.118C873.208 137.1 869.235 141.882 866.8 146.85C864.419 151.705 863.575 157.134 863.681 162.498C863.78 166.321 864.292 170.123 865.209 173.838C865.576 175.357 867.945 174.715 867.579 173.192C865.092 162.867 865.275 151.036 872.503 142.53C874.316 140.397 876.542 138.448 879.214 137.459C879.523 137.366 879.784 137.159 879.944 136.881C880.103 136.603 880.149 136.275 880.071 135.965C879.983 135.655 879.775 135.393 879.492 135.234C879.209 135.075 878.875 135.032 878.56 135.116V135.118Z" fill="#211715"/>
<path d="M921.498 135.364C917.415 129.878 911.199 126.573 904.449 125.515C897.584 124.44 890.05 125.019 883.553 127.523C879.541 129.052 875.895 131.391 872.846 134.389C871.726 135.496 873.46 137.215 874.583 136.107C879.435 131.314 885.855 128.603 892.619 127.797C899.04 127.031 905.945 127.392 911.798 130.336C914.782 131.81 917.377 133.953 919.376 136.593C919.547 136.864 919.817 137.06 920.129 137.141C920.442 137.222 920.774 137.182 921.057 137.029C921.337 136.865 921.54 136.598 921.622 136.287C921.705 135.976 921.66 135.645 921.498 135.367V135.364Z" fill="#211715"/>
<path d="M907.442 153.03C904.88 154.585 902.339 156.178 899.74 157.676C899.221 157.974 898.7 158.27 898.171 158.551C897.963 158.661 897.754 158.77 897.543 158.872C897.462 158.912 897.379 158.951 897.296 158.989C897.146 159.06 897.046 159.074 897.275 159.002C897.207 159.016 897.142 159.039 897.081 159.07C897.007 159.161 896.867 158.99 897.098 159.082C897.394 159.145 897.682 159.239 897.957 159.364C898.022 159.415 898.111 159.613 897.979 159.373C897.755 158.965 897.548 158.554 897.357 158.13C897.132 157.63 896.926 157.13 896.697 156.528C896.607 156.293 896.52 156.059 896.441 155.82C896.39 155.671 896.263 155.06 896.334 155.605C896.326 155.368 896.249 155.139 896.112 154.945C895.976 154.75 895.786 154.599 895.565 154.508C895.344 154.417 895.101 154.391 894.865 154.433C894.63 154.475 894.411 154.583 894.236 154.744C889.117 158.717 883.908 162.564 879.012 166.807C877.312 168.28 875.64 169.784 873.996 171.318C872.84 172.39 874.58 174.106 875.733 173.036C880.742 168.389 886.015 164.094 891.448 159.943C892.96 158.787 894.47 157.627 895.976 156.463L893.877 155.602C894.104 156.714 894.48 157.791 894.996 158.804C895.386 159.712 895.857 161.296 897.01 161.467C897.917 161.602 898.926 160.911 899.684 160.498C901.066 159.748 902.415 158.935 903.761 158.123C905.406 157.13 907.041 156.121 908.684 155.124C910.029 154.307 908.796 152.205 907.443 153.026L907.442 153.03Z" fill="#211715"/>
<path d="M912.246 157.205C916.494 158.157 920.004 160.942 922.854 164.09C925.653 167.244 927.962 170.793 929.703 174.621C929.87 174.897 930.139 175.098 930.454 175.179C930.768 175.261 931.102 175.217 931.384 175.056C931.66 174.889 931.86 174.622 931.942 174.313C932.024 174.003 931.982 173.674 931.825 173.394C929.952 169.319 927.464 165.55 924.445 162.215C921.356 158.843 917.462 155.886 912.899 154.864C911.359 154.518 910.702 156.861 912.246 157.207V157.205Z" fill="#211715"/>
<path d="M885.254 210.398C885.231 211.68 885.142 212.961 884.988 214.235C884.988 214.395 885.019 214.553 885.081 214.701C885.142 214.848 885.232 214.983 885.347 215.096C885.577 215.323 885.889 215.451 886.215 215.451C886.541 215.451 886.853 215.323 887.084 215.096C887.299 214.857 887.425 214.554 887.442 214.235C887.596 212.961 887.685 211.68 887.708 210.398C887.708 210.075 887.579 209.766 887.349 209.538C887.118 209.311 886.806 209.182 886.48 209.182C886.154 209.182 885.842 209.311 885.611 209.538C885.381 209.766 885.251 210.075 885.251 210.398H885.254Z" fill="#211715"/>
<path d="M917.492 214.21C917.345 212.944 917.253 211.672 917.231 210.398C917.231 210.075 917.101 209.766 916.871 209.538C916.641 209.311 916.328 209.182 916.002 209.182C915.677 209.182 915.364 209.311 915.134 209.538C914.903 209.766 914.774 210.075 914.774 210.398C914.796 211.672 914.888 212.943 915.035 214.21C915.045 214.53 915.173 214.836 915.393 215.07C915.624 215.298 915.936 215.426 916.262 215.426C916.588 215.426 916.9 215.298 917.131 215.07C917.247 214.959 917.338 214.825 917.4 214.677C917.462 214.529 917.492 214.37 917.489 214.21H917.492Z" fill="#211715"/>
<path d="M981.93 204.287C980.57 202.927 978.642 201.765 976.776 202.997C975.094 204.107 974.463 206.27 973.705 208.012L970.933 214.39C970.028 216.473 968.956 218.572 968.504 220.809C967.611 225.23 969.805 229.41 969.762 233.811C969.763 235.786 969.527 237.753 969.06 239.673C968.673 241.053 968.19 242.406 967.614 243.721C966.345 246.795 964.726 249.804 963.797 253.003C963.359 254.509 965.729 255.152 966.166 253.649C966.913 251.079 968.159 248.637 969.215 246.184C969.825 244.766 970.433 243.341 970.944 241.883C971.398 240.525 971.713 239.125 971.885 237.705C972.238 235.533 972.295 233.325 972.055 231.138C971.783 229.078 971.17 227.084 970.861 225.031C970.571 223.027 970.818 220.982 971.577 219.101C972.33 217.112 973.245 215.176 974.094 213.225C975.041 211.044 975.928 208.824 976.948 206.675C977.221 206.1 977.628 205.153 978.301 204.934C979.024 204.7 979.751 205.567 980.191 206.006C981.304 207.12 983.041 205.402 981.928 204.288L981.93 204.287Z" fill="#211715"/>
<path d="M1002.92 219.132C1003.39 218.828 1003.86 218.515 1004.32 218.192C1004.54 218.035 1004.76 217.876 1004.98 217.714C1005.09 217.628 1005.21 217.542 1005.32 217.455C1005.5 217.334 1005.68 217.201 1005.84 217.058C1006.07 216.828 1006.19 216.519 1006.2 216.198C1006.2 215.876 1006.07 215.567 1005.84 215.337C1005.61 215.11 1005.29 214.983 1004.97 214.983C1004.64 214.988 1004.33 215.114 1004.1 215.337C1004.05 215.383 1003.99 215.427 1003.93 215.466L1004.18 215.276C1003.37 215.895 1002.53 216.479 1001.68 217.03C1001.4 217.196 1001.2 217.454 1001.11 217.756C1001.03 218.073 1001.07 218.409 1001.24 218.693C1001.32 218.831 1001.43 218.951 1001.55 219.048C1001.68 219.144 1001.83 219.215 1001.99 219.255C1002.14 219.296 1002.3 219.306 1002.46 219.284C1002.62 219.262 1002.78 219.21 1002.92 219.129L1002.92 219.132Z" fill="#211715"/>
<path d="M1006.52 207.87C1006.71 207.693 1006.89 207.521 1007.09 207.359C1007.28 207.197 1007.04 207.374 1007.24 207.251C1007.34 207.186 1007.44 207.116 1007.55 207.056C1007.65 206.995 1007.76 206.938 1007.87 206.889C1007.67 206.977 1007.98 206.853 1008.03 206.838C1008.14 206.803 1008.26 206.774 1008.38 206.752C1008.15 206.794 1008.49 206.747 1008.54 206.746C1008.66 206.742 1008.79 206.748 1008.91 206.763C1008.67 206.729 1009.01 206.799 1009.06 206.814C1009.09 206.823 1009.4 206.942 1009.22 206.86C1009.33 206.91 1009.43 206.976 1009.54 207.033C1009.75 207.147 1009.51 206.978 1009.68 207.132C1009.77 207.212 1009.85 207.298 1009.93 207.388C1009.81 207.249 1010.01 207.516 1010.03 207.549C1010.08 207.621 1010.12 207.695 1010.15 207.771C1010.12 207.692 1010.12 207.692 1010.15 207.771C1010.19 207.89 1010.22 208.011 1010.25 208.134C1010.27 208.221 1010.27 208.216 1010.26 208.122C1010.26 208.185 1010.27 208.247 1010.27 208.311C1010.27 208.361 1010.27 208.672 1010.27 208.589C1010.25 208.679 1010.23 208.771 1010.21 208.863C1010.19 208.923 1010.1 209.183 1010.12 209.139C1010.14 209.094 1010.01 209.341 1009.98 209.395C1009.85 209.62 1009.7 209.837 1009.55 210.044C1009.5 210.109 1009.49 210.114 1009.54 210.056L1009.41 210.208C1009.32 210.316 1009.23 210.424 1009.14 210.531C1008.95 210.76 1008.75 210.987 1008.55 211.211C1008.13 211.677 1007.69 212.132 1007.25 212.575C1007.02 212.804 1006.89 213.112 1006.89 213.432C1006.89 213.753 1007.02 214.06 1007.25 214.287C1007.48 214.513 1007.79 214.641 1008.12 214.643C1008.44 214.644 1008.75 214.518 1008.98 214.294C1010.08 213.263 1011.07 212.125 1011.93 210.898C1012.38 210.257 1012.64 209.511 1012.7 208.735C1012.75 207.96 1012.6 207.185 1012.25 206.489C1011.89 205.836 1011.37 205.289 1010.73 204.907C1010.09 204.525 1009.35 204.321 1008.6 204.317C1007.1 204.313 1005.82 205.141 1004.79 206.151C1004.56 206.379 1004.43 206.687 1004.44 207.008C1004.44 207.329 1004.57 207.636 1004.8 207.862C1005.02 208.089 1005.34 208.217 1005.66 208.218C1005.98 208.219 1006.29 208.094 1006.53 207.869L1006.52 207.87Z" fill="#211715"/>
<path d="M1004.03 224.918C1004.12 225.047 1004.21 225.181 1004.28 225.32C1004.3 225.358 1004.43 225.664 1004.36 225.471C1004.4 225.585 1004.43 225.701 1004.47 225.816C1004.5 225.963 1004.5 225.97 1004.48 225.838C1004.49 225.913 1004.49 225.99 1004.49 226.063C1004.49 226.432 1004.37 226.79 1004.15 227.087C1004 227.299 1003.84 227.495 1003.68 227.697C1003.63 227.768 1003.65 227.735 1003.76 227.596L1003.66 227.721L1003.51 227.917C1003.38 228.081 1003.25 228.243 1003.12 228.405C1002.69 228.977 1002.22 229.511 1001.7 230.004C1001.66 230.042 1001.47 230.171 1001.63 230.063C1001.53 230.131 1001.43 230.196 1001.33 230.256C1001.28 230.283 1000.88 230.456 1001.1 230.381C1000.99 230.418 1000.89 230.447 1000.78 230.475C1000.63 230.502 1000.63 230.503 1000.76 230.479C1000.71 230.483 1000.65 230.484 1000.59 230.482C1000.53 230.483 1000.47 230.479 1000.41 230.473C1000.57 230.496 1000.58 230.493 1000.45 230.465C1000.4 230.443 1000.15 230.318 1000.36 230.441C1000.25 230.383 1000.14 230.319 1000.04 230.25C999.759 230.088 999.424 230.043 999.109 230.125C998.794 230.207 998.525 230.408 998.36 230.685C998.204 230.966 998.163 231.294 998.245 231.604C998.327 231.913 998.526 232.179 998.8 232.348C1000.02 233.233 1001.69 232.983 1002.87 232.162C1003.62 231.578 1004.29 230.892 1004.85 230.123C1005.18 229.718 1005.51 229.306 1005.83 228.894C1006.06 228.621 1006.26 228.326 1006.44 228.015C1006.8 227.338 1006.96 226.575 1006.91 225.812C1006.86 225.048 1006.6 224.314 1006.15 223.689C1006.07 223.551 1005.96 223.431 1005.83 223.334C1005.7 223.238 1005.56 223.167 1005.4 223.127C1005.25 223.086 1005.08 223.077 1004.92 223.098C1004.76 223.12 1004.61 223.172 1004.47 223.253C1004.33 223.334 1004.21 223.44 1004.11 223.568C1004.01 223.695 1003.94 223.84 1003.9 223.994C1003.86 224.148 1003.85 224.309 1003.87 224.467C1003.89 224.626 1003.95 224.778 1004.03 224.916L1004.03 224.918Z" fill="#211715"/>
<path d="M999.189 231.697C997.236 234.407 994.837 236.774 992.091 238.697C990.965 239.51 989.764 240.218 988.505 240.811C987.93 241.023 987.373 241.277 986.837 241.571C986.202 241.961 985.708 242.541 985.428 243.228C984.8 244.789 984.609 246.565 984.353 248.214C983.986 250.578 983.688 252.954 983.393 255.329C983.265 256.36 983.142 257.391 983.009 258.421C982.995 258.534 982.98 258.647 982.966 258.76C982.958 258.814 982.918 259.114 982.947 258.902C982.972 258.716 982.914 259.126 982.9 259.219C982.88 259.396 982.847 259.571 982.802 259.743C982.351 261.246 984.721 261.887 985.171 260.389C985.286 259.905 985.363 259.413 985.402 258.917C985.512 258.092 985.612 257.265 985.713 256.439C985.989 254.194 986.255 252.017 986.57 249.872C986.776 247.996 987.134 246.139 987.639 244.32C987.678 244.197 987.736 244.076 987.768 243.952C987.773 243.933 987.604 244.148 987.73 244.046C987.82 243.973 987.877 243.825 987.977 243.742C988.44 243.425 988.951 243.183 989.49 243.026C990.734 242.471 991.92 241.797 993.029 241.012C996.248 238.817 999.051 236.08 1001.31 232.927C1001.47 232.648 1001.52 232.317 1001.44 232.006C1001.35 231.695 1001.15 231.429 1000.87 231.265C1000.59 231.108 1000.26 231.066 999.943 231.148C999.63 231.229 999.361 231.427 999.192 231.7L999.189 231.697Z" fill="#211715"/>
<path d="M1011.96 216.79C1012.06 216.136 1012.01 215.467 1011.8 214.839C1011.59 214.211 1011.23 213.641 1010.75 213.176C1010.32 212.775 1009.8 212.487 1009.22 212.337C1008.65 212.187 1008.05 212.179 1007.48 212.315C1006.25 212.651 1005.38 213.602 1004.66 214.572C1004.08 215.339 1003.52 216.119 1002.95 216.892C1002.21 217.818 1001.54 218.8 1000.96 219.828C1000.64 220.351 1000.44 220.932 1000.36 221.535C1000.33 222.162 1000.47 222.784 1000.74 223.349C1000.97 223.895 1001.33 224.381 1001.78 224.768C1002.23 225.154 1002.77 225.431 1003.35 225.577C1004.01 225.717 1004.69 225.689 1005.33 225.495C1005.97 225.301 1006.55 224.947 1007.01 224.467C1008.03 223.385 1008.98 222.239 1009.85 221.036C1010.78 219.865 1011.67 218.619 1011.92 217.115C1012 216.804 1011.95 216.476 1011.79 216.199C1011.63 215.921 1011.37 215.714 1011.06 215.621C1010.75 215.537 1010.41 215.58 1010.13 215.739C1009.85 215.897 1009.64 216.16 1009.55 216.469C1009.23 218.4 1007.62 219.926 1006.43 221.394C1005.7 222.298 1004.35 224.169 1003.22 222.786C1003.03 222.537 1002.89 222.243 1002.83 221.931C1002.83 221.943 1002.79 221.684 1002.79 221.702C1002.79 221.841 1002.81 221.601 1002.8 221.639C1002.84 221.523 1002.9 221.411 1002.95 221.301C1003.37 220.487 1003.87 219.712 1004.43 218.989C1004.96 218.274 1005.49 217.558 1006.01 216.839C1006.37 216.283 1006.78 215.754 1007.22 215.258C1007.48 215 1007.79 214.797 1008.13 214.659C1008.33 214.609 1008.55 214.635 1008.74 214.731C1008.88 214.786 1009.01 214.87 1009.12 214.976C1009.23 215.083 1009.32 215.212 1009.38 215.353C1009.56 215.811 1009.6 216.31 1009.51 216.792C1009.51 217.113 1009.64 217.421 1009.87 217.649C1010.1 217.876 1010.41 218.005 1010.74 218.007C1011.06 217.999 1011.37 217.868 1011.6 217.641C1011.82 217.415 1011.96 217.11 1011.96 216.79V216.79Z" fill="#211715"/>
<path d="M941.856 263.727C940.822 270.201 940.257 276.74 940.163 283.294C940.088 288.009 940.112 292.724 940.14 297.438C940.159 300.712 940.171 303.984 940.175 307.255C940.175 308.818 942.632 308.821 942.632 307.255C942.632 301.935 942.577 296.616 942.568 291.296C942.559 285.965 942.568 280.624 942.952 275.304C943.216 271.644 943.641 268 944.224 264.372C944.301 264.062 944.255 263.735 944.096 263.457C943.936 263.179 943.675 262.972 943.367 262.878C943.053 262.795 942.718 262.837 942.435 262.996C942.153 263.155 941.944 263.417 941.856 263.727V263.727Z" fill="#211715"/>
<path d="M880.089 220.525C872.486 223.517 865.183 227.209 858.279 231.553C855.114 233.55 851.932 235.663 849.34 238.372C848.025 239.727 846.9 241.251 845.996 242.902C845.101 244.659 844.326 246.472 843.675 248.33C841.573 254.143 839.816 260.072 838.413 266.087C836.763 272.789 835.338 279.543 833.99 286.309C832.756 292.504 831.601 298.713 830.415 304.917C830.286 305.588 830.157 306.26 830.027 306.932C829.949 307.242 829.995 307.57 830.154 307.848C830.314 308.127 830.576 308.333 830.885 308.426C831.199 308.509 831.534 308.466 831.816 308.308C832.099 308.149 832.307 307.887 832.397 307.578C833.545 301.639 834.644 295.691 835.806 289.757C837.113 283.084 838.484 276.421 840.044 269.801C841.48 263.704 843.05 257.619 845.076 251.685C846.167 248.49 847.263 245.148 849.208 242.349C851.215 239.463 854.087 237.246 856.989 235.295C863.605 230.875 870.633 227.092 877.979 223.998C878.895 223.61 879.816 223.239 880.743 222.871C881.052 222.777 881.313 222.57 881.472 222.292C881.632 222.014 881.678 221.687 881.601 221.376C881.513 221.067 881.304 220.804 881.022 220.645C880.739 220.486 880.404 220.444 880.09 220.528L880.089 220.525Z" fill="#211715"/>
<path d="M921.747 222.869C929.295 225.855 936.536 229.551 943.37 233.906C946.434 235.855 949.475 237.919 951.91 240.63C953.08 241.871 954.009 243.315 954.649 244.89C955.251 246.483 955.677 248.136 956.258 249.738C957.501 253.165 958.192 256.769 959.687 260.11C959.853 260.386 960.123 260.587 960.437 260.669C960.752 260.75 961.086 260.706 961.368 260.546C961.643 260.378 961.843 260.111 961.925 259.802C962.007 259.492 961.965 259.163 961.809 258.883C960.478 255.913 959.847 252.671 958.803 249.6C958.253 247.98 957.76 246.342 957.193 244.73C956.58 243 955.677 241.384 954.522 239.951C952.185 236.996 949.082 234.726 945.944 232.669C942.481 230.399 938.91 228.303 935.23 226.382C931.062 224.205 926.778 222.25 922.398 220.527C922.084 220.444 921.749 220.486 921.466 220.645C921.183 220.804 920.975 221.066 920.887 221.376C920.808 221.686 920.853 222.015 921.013 222.293C921.173 222.571 921.435 222.778 921.745 222.871L921.747 222.869Z" fill="#211715"/>
<path d="M858.813 264.373C859.809 270.698 860.346 277.084 860.421 283.484C860.494 288.167 860.468 292.85 860.441 297.535C860.422 300.775 860.411 304.015 860.406 307.255C860.406 308.819 862.863 308.821 862.863 307.255C862.863 301.878 862.919 296.5 862.927 291.123C862.935 285.725 862.921 280.318 862.518 274.932C862.236 271.181 861.784 267.442 861.187 263.727C861.098 263.418 860.89 263.155 860.607 262.996C860.325 262.838 859.99 262.795 859.676 262.878C859.366 262.971 859.104 263.177 858.944 263.456C858.784 263.734 858.739 264.062 858.818 264.373L858.813 264.373Z" fill="#211715"/>
<path d="M902.284 234.585C901.782 233.509 901.321 232.415 900.86 231.322C900.365 230.148 899.789 228.975 899.396 227.764C898.98 226.483 898.539 225.212 898.099 223.939C897.843 223.204 897.69 222.411 897.13 221.84C896.064 220.751 894.839 219.792 893.672 218.813C892.062 217.462 890.442 216.123 888.813 214.793C888.158 214.256 887.503 213.718 886.848 213.18C886.299 212.728 885.668 212.022 884.975 211.833C883.914 211.545 883.274 212.323 882.928 213.176C882.815 213.451 882.889 213.281 882.763 213.566C882.65 213.824 882.533 214.081 882.413 214.337C881.917 215.404 881.389 216.457 880.873 217.514C880.426 218.422 879.974 219.329 879.571 220.258C879.297 220.892 878.957 221.563 879.162 222.267C879.389 222.882 879.684 223.471 880.04 224.023C880.567 224.963 881.123 225.886 881.69 226.802C883.124 229.251 884.736 231.592 886.514 233.808C886.786 234.143 887.165 234.376 887.588 234.468C888.012 234.56 888.455 234.506 888.843 234.315C889.662 233.889 890.007 232.796 890.408 232.024C891.238 230.424 892.078 228.829 892.927 227.238C893.668 225.857 891.545 224.628 890.806 226.012C890.119 227.294 889.439 228.581 888.767 229.872C888.473 230.438 888.179 231.004 887.886 231.571L887.624 232.077C887.329 232.647 887.398 232.194 888.15 232.114C888.434 232.084 888.346 232.307 888.252 232.092C888.199 232.009 888.138 231.93 888.069 231.858C886.677 230.057 885.423 228.146 884.213 226.222C883.305 224.776 882.381 223.315 881.617 221.788C881.573 221.701 881.537 221.608 881.489 221.524C881.406 221.378 881.57 221.832 881.516 221.574C881.486 221.43 881.545 221.878 881.545 221.831C881.545 221.689 881.407 222.131 881.521 222C881.566 221.903 881.597 221.801 881.615 221.696C881.666 221.558 881.721 221.422 881.777 221.287C881.675 221.53 881.868 221.088 881.899 221.02C882.098 220.584 882.305 220.152 882.513 219.721C883.017 218.683 883.533 217.652 884.035 216.613C884.276 216.113 884.516 215.61 884.745 215.104C884.922 214.621 885.136 214.153 885.386 213.704L884.945 214.14L885.088 214.052L884.468 214.218H884.649L884.029 214.052C884.15 214.094 884.258 214.166 884.343 214.26C884.463 214.361 884.584 214.462 884.702 214.56C885.035 214.836 885.37 215.111 885.705 215.386C886.589 216.112 887.473 216.838 888.357 217.563C890.236 219.108 892.118 220.651 893.953 222.247C894.541 222.717 895.093 223.231 895.602 223.783L895.287 223.247C896.612 227.542 898.241 231.739 900.161 235.808C900.327 236.084 900.596 236.285 900.911 236.366C901.225 236.448 901.56 236.404 901.842 236.244C902.117 236.076 902.317 235.81 902.399 235.5C902.481 235.19 902.439 234.861 902.282 234.582L902.284 234.585Z" fill="#211715"/>
<path d="M902.284 235.811C903.299 233.698 904.22 231.54 905.136 229.381C905.608 228.328 906.016 227.249 906.358 226.148C906.639 225.186 906.874 224.21 907.158 223.248L906.842 223.784C907.265 223.321 907.722 222.89 908.21 222.495C909.037 221.767 909.88 221.057 910.725 220.349C912.616 218.766 914.526 217.203 916.433 215.638C916.816 215.323 917.198 215.009 917.58 214.694C917.73 214.57 917.879 214.446 918.028 214.323C918.141 214.211 918.273 214.12 918.417 214.052L917.797 214.218H917.979L917.359 214.052L917.502 214.14L917.061 213.704C917.513 214.526 917.906 215.379 918.238 216.255C918.681 217.182 919.139 218.103 919.592 219.026C919.812 219.474 920.03 219.923 920.245 220.373C920.33 220.551 920.413 220.73 920.496 220.909L920.62 221.182C920.644 221.233 920.774 221.54 920.668 221.287C920.759 221.502 920.817 221.736 920.912 221.947C920.963 222.062 920.893 222.229 920.901 221.798C920.901 221.914 920.872 221.909 920.938 221.545C920.897 221.768 920.934 221.559 920.968 221.494C919.174 224.877 917.133 228.126 914.859 231.214C914.701 231.429 914.54 231.643 914.377 231.855C914.353 231.887 914.265 231.986 914.24 232.031C914.194 232.089 914.148 232.147 914.101 232.204C914.386 232.008 914.68 232.069 914.983 232.387C915.034 232.214 914.557 231.563 914.457 231.37C914.277 231.023 914.097 230.675 913.916 230.328C913.166 228.883 912.407 227.444 911.639 226.008C910.898 224.626 908.777 225.852 909.517 227.235C910.268 228.639 911.011 230.048 911.747 231.462C912.387 232.694 913.008 234.835 914.813 234.474C915.987 234.239 916.724 232.803 917.373 231.901C918.111 230.876 918.818 229.828 919.505 228.77C920.639 227.026 921.752 225.255 922.735 223.423C923.065 222.941 923.278 222.39 923.356 221.814C923.36 221.102 922.927 220.362 922.64 219.738C921.748 217.787 920.734 215.894 919.847 213.94C919.772 213.775 919.614 213.418 919.591 213.358C919.558 213.28 919.405 212.866 919.316 212.7C919.21 212.483 919.056 212.293 918.865 212.143C918.675 211.993 918.452 211.888 918.215 211.836C917.977 211.783 917.73 211.785 917.493 211.84C917.256 211.895 917.035 212.002 916.846 212.154C916.354 212.497 915.907 212.921 915.445 213.301C912.535 215.696 909.594 218.06 906.75 220.53C906.25 220.966 905.734 221.398 905.275 221.877C904.961 222.22 904.745 222.639 904.647 223.092C904.446 223.825 904.256 224.56 904.047 225.291C903.531 226.924 902.91 228.523 902.189 230.078C901.535 231.59 900.872 233.098 900.159 234.584C900.003 234.864 899.962 235.192 900.044 235.502C900.126 235.811 900.325 236.077 900.6 236.246C900.882 236.406 901.216 236.45 901.53 236.368C901.845 236.286 902.114 236.086 902.281 235.81L902.284 235.811Z" fill="#211715"/>
<path d="M899.994 235.198C899.994 245.904 900.032 256.61 900.108 267.315C900.164 277.249 900.224 287.182 900.289 297.115C900.308 300.495 900.331 303.874 900.331 307.255C900.331 308.818 902.788 308.821 902.788 307.255C902.788 299.91 902.72 292.566 902.674 285.222C902.606 274.348 902.545 263.473 902.493 252.598C902.469 246.798 902.455 240.998 902.451 235.198C902.451 233.634 899.994 233.631 899.994 235.198V235.198Z" fill="#211715"/>
<path d="M980.856 274.941C980.856 274.502 980.805 275.001 980.766 275.146C980.725 275.305 980.682 275.462 980.638 275.62C980.527 276.014 980.409 276.406 980.284 276.796C980.024 277.606 979.733 278.41 979.426 279.206C978.556 281.461 977.544 283.661 976.545 285.864C975.522 288.237 974.332 290.536 972.985 292.746C971.872 294.498 970.563 296.281 968.748 297.379C965.088 299.591 960.274 298.594 956.692 296.748C954.609 295.687 952.714 294.298 951.082 292.636C950.068 291.595 949.145 290.459 948.228 289.338C946.999 287.83 945.804 286.296 944.64 284.735C943.806 283.745 943.08 282.672 942.473 281.532C942.306 281.255 942.037 281.054 941.722 280.973C941.408 280.891 941.073 280.935 940.792 281.096C940.516 281.264 940.317 281.53 940.235 281.84C940.153 282.149 940.194 282.478 940.351 282.758C940.89 283.778 941.534 284.74 942.272 285.628C943.416 287.183 944.603 288.71 945.812 290.217C946.848 291.509 947.896 292.799 949.024 294.017C950.63 295.724 952.486 297.183 954.53 298.344C958.651 300.711 963.968 302.061 968.555 300.182C973.232 298.265 975.807 293.185 977.833 288.899C979.112 286.189 980.355 283.446 981.474 280.665C981.883 279.646 982.272 278.617 982.611 277.572C982.867 276.779 983.313 275.781 983.313 274.939C983.313 273.376 980.856 273.373 980.856 274.939V274.941Z" fill="#211715"/>
<path d="M957.902 267.715C957.569 269.158 957.217 270.596 956.863 272.033C956.82 272.187 956.808 272.348 956.828 272.506C956.848 272.665 956.899 272.818 956.979 272.956C957.058 273.095 957.165 273.217 957.292 273.315C957.42 273.413 957.565 273.486 957.721 273.528C957.876 273.57 958.039 273.582 958.199 273.562C958.359 273.543 958.514 273.492 958.654 273.413C958.794 273.334 958.918 273.229 959.017 273.103C959.116 272.977 959.189 272.833 959.232 272.679C959.586 271.242 959.938 269.804 960.271 268.361C960.358 268.05 960.316 267.718 960.155 267.438C959.994 267.157 959.727 266.952 959.413 266.866C959.099 266.78 958.763 266.822 958.48 266.981C958.196 267.14 957.988 267.404 957.902 267.715V267.715Z" fill="#211715"/>
<path d="M963.522 253.593C964.709 255.673 966.328 257.481 968.273 258.897C969.986 260.066 971.862 260.981 973.843 261.613C975.653 262.225 977.528 262.63 979.432 262.818C980.858 263.002 982.307 262.849 983.662 262.373C984.53 262.073 985.281 261.513 985.812 260.771C986.296 259.962 986.652 259.084 986.866 258.168L985.061 258.894C986.469 259.963 987.928 261.798 988.011 263.62C987.974 264.553 987.793 265.475 987.474 266.353C987.192 267.394 986.843 268.415 986.429 269.41C985.731 271.052 984.68 273.096 982.8 273.582C980.766 274.108 978.444 274.031 976.365 273.876C971.976 273.532 967.723 272.206 963.927 269.999C962.147 268.967 960.248 267.756 958.945 266.144C957.937 264.897 957.313 262.991 958.563 261.673C959.265 260.931 960.261 261.248 961.1 260.765C962.441 259.994 962.085 258.651 962.067 257.39C962.014 256.514 962.246 255.645 962.73 254.909C962.942 254.633 963.227 254.421 963.554 254.295C963.88 254.169 964.236 254.135 964.581 254.197C964.906 254.194 965.217 254.065 965.447 253.838C965.676 253.61 965.807 253.303 965.809 252.982C965.803 252.661 965.672 252.356 965.443 252.129C965.214 251.903 964.905 251.773 964.581 251.767C962.287 251.595 960.521 253.125 959.895 255.233C959.623 256.291 959.557 257.391 959.699 258.473C959.716 258.604 959.722 258.735 959.718 258.867C959.693 258.867 959.912 258.742 959.845 258.659C959.834 258.645 959.325 258.732 959.314 258.733C958.718 258.796 958.144 258.99 957.633 259.302C955.586 260.594 954.937 263.324 955.777 265.497C956.701 267.888 958.78 269.524 960.844 270.938C965.07 273.79 969.931 275.588 975.013 276.176C977.574 276.501 980.168 276.467 982.719 276.075C985.362 275.648 987.059 273.696 988.188 271.418C988.789 270.181 989.286 268.897 989.672 267.58C990.113 266.364 990.38 265.093 990.467 263.804C990.473 260.985 988.453 258.438 986.297 256.801C985.643 256.304 984.695 256.855 984.493 257.527C984.383 257.889 984.275 258.253 984.148 258.61C984.064 258.873 983.949 259.125 983.807 259.363C983.781 259.413 983.747 259.457 983.717 259.504C983.615 259.663 983.834 259.376 983.713 259.516C983.631 259.611 983.542 259.7 983.448 259.783C983.613 259.637 983.346 259.848 983.285 259.884C983.189 259.94 982.953 260.056 982.921 260.069C982.576 260.195 982.223 260.297 981.864 260.373C981.766 260.395 981.668 260.412 981.569 260.43C981.431 260.454 981.656 260.418 981.662 260.417C981.578 260.426 981.494 260.434 981.41 260.44C980.82 260.472 980.228 260.462 979.639 260.41C976.283 260.103 973.047 259.023 970.189 257.255C968.303 256.007 966.745 254.33 965.645 252.366C964.849 251.016 962.724 252.238 963.523 253.593H963.522Z" fill="#211715"/>
<path d="M970.984 265.994L965.2 265.036C964.886 264.958 964.554 265.003 964.273 265.161C963.991 265.319 963.782 265.578 963.689 265.884C963.606 266.195 963.65 266.525 963.81 266.804C963.971 267.084 964.235 267.29 964.547 267.379L970.331 268.337C970.645 268.415 970.977 268.37 971.259 268.212C971.54 268.054 971.749 267.795 971.843 267.489C971.925 267.178 971.882 266.847 971.721 266.568C971.561 266.289 971.296 266.083 970.984 265.994V265.994Z" fill="#211715"/>
<path d="M977.949 223.083C980.141 215.849 982.319 208.611 984.483 201.368C985.535 197.867 986.59 194.366 987.646 190.866C988.02 189.627 988.362 187.819 990.099 188.103C991.086 188.328 992.057 188.614 993.008 188.96L996.145 189.899L1002.45 191.784L1005.3 192.637C1006.03 192.855 1006.99 192.969 1007.53 193.548C1007.75 193.79 1007.9 194.088 1007.97 194.409C1008.04 194.729 1008.01 195.062 1007.9 195.371C1007.64 196.277 1007.35 197.178 1007.08 198.081C1006.49 200.032 1005.9 201.982 1005.3 203.934C1002.9 211.862 1000.49 219.789 998.08 227.716C997.869 228.41 997.757 229.261 997.169 229.753C996.914 229.959 996.609 230.095 996.284 230.147C995.959 230.2 995.625 230.166 995.318 230.05C993.438 229.511 991.565 228.946 989.687 228.396L983.433 226.56L980.594 225.727C979.884 225.518 978.964 225.405 978.414 224.881C978.176 224.652 978.006 224.363 977.924 224.045C977.842 223.728 977.851 223.394 977.948 223.08C978.358 221.568 975.99 220.923 975.58 222.434C975.283 223.501 975.417 224.641 975.955 225.611C976.492 226.581 977.391 227.307 978.46 227.633C980.434 228.271 982.448 228.807 984.439 229.391C986.68 230.048 988.921 230.707 991.163 231.365C992.141 231.653 993.119 231.939 994.097 232.226C995.07 232.597 996.132 232.675 997.15 232.452C998.211 232.153 999.115 231.46 999.673 230.518C1000.1 229.625 1000.43 228.686 1000.65 227.72C1001.23 225.796 1001.82 223.871 1002.4 221.945C1003.74 217.545 1005.07 213.145 1006.41 208.746C1007.69 204.531 1008.99 200.322 1010.25 196.101C1010.59 195.048 1010.5 193.906 1010.01 192.915C1009.51 191.924 1008.65 191.161 1007.6 190.788C1005.65 190.087 1003.61 189.588 1001.62 188.995L994.661 186.912L991.469 185.957C990.42 185.576 989.266 185.58 988.219 185.969C987.24 186.36 986.447 187.101 985.996 188.045C985.652 188.897 985.369 189.771 985.147 190.661C984.597 192.481 984.048 194.302 983.501 196.123C981.097 204.11 978.696 212.097 976.296 220.085C976.059 220.869 975.822 221.652 975.585 222.434C975.126 223.938 977.496 224.581 977.949 223.083Z" fill="#211715"/>
<path d="M992.938 187.671C996.938 188.865 1001.38 190.197 1005.04 191.29C1005.03 191.3 1004.65 192.543 1004.32 193.638C1004.21 194.01 1003.95 194.324 1003.61 194.51C1003.26 194.696 1002.85 194.739 1002.48 194.631C1000.11 193.95 995.537 192.642 993.151 191.953C992.967 191.9 992.796 191.812 992.647 191.693C992.499 191.574 992.375 191.428 992.284 191.262C992.192 191.096 992.135 190.914 992.115 190.726C992.095 190.538 992.113 190.348 992.168 190.166C992.518 189.004 992.907 187.716 992.938 187.671Z" fill="#211715"/>
<path d="M895.915 198.016C897.658 198.906 899.6 199.349 901.561 199.304C903.557 199.291 905.605 198.915 907.204 197.681C907.433 197.452 907.561 197.143 907.561 196.821C907.561 196.5 907.433 196.191 907.204 195.962C906.97 195.742 906.659 195.619 906.336 195.619C906.012 195.619 905.701 195.742 905.467 195.962C905.822 195.689 905.487 195.939 905.396 195.996C905.28 196.07 905.16 196.138 905.038 196.202C904.965 196.239 904.565 196.414 904.841 196.303C904.679 196.368 904.514 196.427 904.348 196.48C903.386 196.774 902.381 196.907 901.375 196.873C900.415 196.891 899.457 196.763 898.536 196.495C898.356 196.441 898.178 196.378 898.001 196.317C897.943 196.297 897.887 196.272 897.829 196.251C898.13 196.361 897.867 196.267 897.81 196.241C897.589 196.14 897.37 196.032 897.155 195.917C896.872 195.762 896.539 195.72 896.226 195.801C895.912 195.882 895.643 196.08 895.474 196.353C895.313 196.632 895.269 196.963 895.351 197.273C895.434 197.584 895.636 197.85 895.915 198.015L895.915 198.016Z" fill="#211715"/>
<path d="M901.062 184.701C901.328 185.652 901.541 186.617 901.7 187.592L901.657 187.269C901.676 187.401 901.679 187.535 901.668 187.668L901.712 187.345C901.702 187.406 901.687 187.466 901.667 187.525L901.791 187.234C901.773 187.274 901.752 187.313 901.727 187.349L901.919 187.103C901.891 187.138 901.859 187.169 901.824 187.197L902.072 187.007C901.998 187.053 901.921 187.093 901.841 187.128L902.134 187.005C902.009 187.058 901.878 187.096 901.744 187.118L902.07 187.075C901.949 187.089 901.826 187.089 901.704 187.075L902.031 187.118C901.893 187.099 901.757 187.067 901.619 187.047C901.299 186.974 900.963 187.017 900.673 187.17C900.533 187.25 900.411 187.357 900.314 187.484C900.216 187.611 900.145 187.756 900.104 187.911C900.063 188.065 900.053 188.226 900.075 188.384C900.097 188.542 900.15 188.695 900.232 188.832C900.31 188.969 900.415 189.089 900.541 189.185C900.667 189.281 900.812 189.35 900.966 189.389C901.256 189.428 901.538 189.502 901.836 189.514C902.269 189.517 902.697 189.418 903.083 189.225C903.324 189.12 903.537 188.963 903.707 188.765C903.877 188.567 904 188.334 904.066 188.083C904.153 187.666 904.148 187.236 904.052 186.822C903.893 185.891 903.676 184.967 903.434 184.054C903.347 183.743 903.139 183.479 902.856 183.32C902.572 183.161 902.236 183.12 901.922 183.205C901.608 183.291 901.341 183.497 901.18 183.777C901.019 184.057 900.977 184.389 901.064 184.7L901.062 184.701Z" fill="#211715"/>
<path d="M885.348 176.588C884.859 178.157 885.178 181.765 888.182 182.072C892.154 182.048 892.365 177.686 891.028 175.635C889.934 173.955 886.715 173.255 885.348 176.588Z" fill="#211715"/>
<path d="M917.151 176.588C917.639 178.157 917.321 181.765 914.316 182.072C910.345 182.048 910.133 177.686 911.47 175.634C912.564 173.955 915.783 173.255 917.151 176.588Z" fill="#211715"/>
</g>
<path d="M371.088 160.384C371.088 159.296 372.336 158.4 374.608 158.4C375.504 158.4 376.368 158.496 377.232 158.624C377.264 159.2 377.264 159.648 377.264 160C377.264 161.856 376.144 162.336 374.448 162.336C372.24 162.336 371.088 161.6 371.088 160.384ZM381.104 138.112H376.784C376.912 138.72 376.976 139.712 376.976 140.32C376.976 140.704 376.976 141.216 376.976 141.824C376.56 141.824 376.144 141.824 375.728 141.824C373.776 141.824 370.128 141.504 367.824 141.12L367.92 144.768C370.032 145.056 373.744 145.344 375.76 145.344C376.144 145.344 376.528 145.344 376.944 145.344C376.912 146.432 376.912 147.584 376.912 148.64C376.4 148.64 375.888 148.64 375.376 148.64C373.68 148.64 369.744 148.416 367.664 148.032L367.696 151.808C369.808 152.064 373.456 152.224 375.312 152.224C375.888 152.224 376.432 152.224 376.976 152.224C377.008 153.184 377.04 154.208 377.104 155.2C376.464 155.136 375.792 155.104 375.12 155.104C370.192 155.104 367.216 157.376 367.216 160.608C367.216 164 369.904 165.952 375.024 165.952C379.248 165.952 381.328 163.84 381.328 161.12C381.328 160.768 381.328 160.384 381.296 159.936C383.856 161.088 386.032 162.784 387.76 164.384L390.064 160.8C388.208 159.264 385.136 157.12 381.104 155.968C381.008 154.688 380.944 153.376 380.88 152.16C383.952 152.064 386.448 151.84 389.328 151.52L389.36 147.744C386.768 148.096 384.048 148.352 380.816 148.512C380.816 147.52 380.816 146.336 380.816 145.216C383.92 145.056 386.832 144.768 388.944 144.512L388.976 140.832C386.16 141.312 383.504 141.568 380.88 141.696C380.88 141.184 380.88 140.704 380.912 140.384C380.944 139.552 381.008 138.752 381.104 138.112ZM405.936 153.984C405.936 152.288 407.184 151.456 408.368 151.456C409.264 151.456 410.032 151.808 410.48 152.576C410.896 155.392 409.744 156.416 408.4 156.416C407.12 156.416 405.936 155.456 405.936 153.984ZM418.096 137.696L415.472 138.784C416.24 139.936 416.912 141.184 417.552 142.4C416.24 142.4 414.896 142.4 413.712 142.4C413.712 142.016 413.744 141.664 413.744 141.408C413.776 140.896 413.872 139.168 413.968 138.656H409.36C409.424 139.072 409.552 140.16 409.648 141.44C409.68 141.696 409.68 142.016 409.68 142.432C405.36 142.496 399.536 142.624 395.888 142.656L395.984 146.528C399.92 146.304 404.912 146.08 409.744 146.016C409.776 146.72 409.776 147.456 409.776 148.16C409.36 148.096 408.944 148.064 408.496 148.064C405.008 148.064 402.064 150.464 402.064 154.08C402.064 157.952 405.136 159.936 407.6 159.936C408.144 159.936 408.624 159.872 409.072 159.776C407.312 161.696 404.464 162.752 401.232 163.424L404.624 166.848C412.464 164.64 414.928 159.36 414.928 155.168C414.928 153.472 414.512 151.936 413.712 150.72C413.712 149.312 413.712 147.616 413.68 145.984C418 145.984 421.04 146.08 422.96 146.176L422.992 142.368C422.032 142.368 420.176 142.368 418.128 142.4L420.336 141.472C419.76 140.352 418.896 138.848 418.096 137.696ZM422.384 136.8L419.728 137.888C420.56 139.04 421.328 140.384 421.968 141.664L424.656 140.544C424.048 139.36 423.184 137.952 422.384 136.8ZM441.168 159.84C441.168 158.624 442.384 157.856 444.208 157.856C445.072 157.856 445.936 157.984 446.768 158.208C446.768 158.432 446.768 158.624 446.768 158.784C446.768 160.672 446.096 161.696 444.144 161.696C442.448 161.696 441.168 161.152 441.168 159.84ZM450.672 138.944H446.096C446.224 139.584 446.32 140.576 446.32 141.056C446.32 141.728 446.352 143.04 446.352 144.608C445.616 144.64 444.848 144.64 444.112 144.64C442.192 144.64 440.336 144.544 438.512 144.352V148.16C440.4 148.288 442.224 148.352 444.112 148.352C444.848 148.352 445.616 148.352 446.384 148.32C446.416 150.592 446.544 152.928 446.608 154.912C445.968 154.816 445.264 154.784 444.528 154.784C440.176 154.784 437.424 157.024 437.424 160.256C437.424 163.616 440.176 165.472 444.592 165.472C448.912 165.472 450.64 163.296 450.832 160.224C452.112 161.088 453.392 162.208 454.736 163.456L456.944 160.096C455.408 158.688 453.392 157.056 450.736 155.968C450.608 153.792 450.448 151.232 450.384 148.128C452.144 148 453.808 147.808 455.344 147.584V143.584C453.808 143.904 452.144 144.16 450.384 144.32C450.416 142.912 450.448 141.728 450.48 141.024C450.512 140.32 450.576 139.552 450.672 138.944ZM435.056 139.296L430.64 138.912C430.608 139.936 430.448 141.152 430.32 142.048C429.968 144.512 429.008 150.56 429.008 155.392C429.008 159.744 429.616 163.392 430.288 165.632L433.904 165.344C433.872 164.896 433.84 164.352 433.84 164.032C433.84 163.68 433.904 162.976 434 162.528C434.384 160.8 435.408 157.536 436.304 154.912L434.352 153.312C433.872 154.4 433.328 155.488 432.912 156.608C432.816 155.968 432.784 155.168 432.784 154.528C432.784 151.328 433.84 144.288 434.32 142.144C434.416 141.568 434.8 139.936 435.056 139.296ZM480.752 147.68H478.32V143.584H480.752V147.68ZM480.752 155.136H478.32V151.072H480.752V155.136ZM467.312 151.072H469.616V155.136H467.312V151.072ZM475.152 151.072V155.136H472.784V151.072H475.152ZM472.784 147.68V143.584H475.152V147.68H472.784ZM467.312 143.584H469.616V147.68H467.312V143.584ZM463.952 147.68H459.664V151.072H463.952V155.136H460.144V158.528H487.952V155.136H484.24V151.072H488.4V147.68H484.24V143.584H487.248V140.224H468.048C468.528 139.488 468.944 138.752 469.296 137.984L465.584 136.896C464.176 139.872 461.648 142.784 458.96 144.544C459.824 145.152 461.36 146.368 462.064 147.04C462.704 146.56 463.312 145.984 463.952 145.376V147.68ZM462.96 166.816C464.528 165.152 465.904 162.528 466.608 160.096L462.928 159.2C462.192 161.536 460.752 164 459.344 165.344L462.96 166.816ZM468.656 160.32C469.008 162.272 469.264 164.896 469.264 166.432L472.976 165.888C472.944 164.384 472.56 161.856 472.176 159.904L468.656 160.32ZM474.992 160.384C475.696 162.336 476.432 164.928 476.624 166.464L480.432 165.728C480.144 164.16 479.344 161.664 478.576 159.776L474.992 160.384ZM481.328 160.224C482.736 162.272 484.432 165.088 485.104 166.784L489.008 165.472C488.208 163.712 486.416 161.024 484.976 159.072L481.328 160.224ZM513.008 142.496C511.984 141.312 509.712 139.68 507.92 138.624L506.096 141.184C507.856 142.368 510.064 144.096 511.056 145.344L513.008 142.496ZM504.624 149.216C506.48 150.336 508.816 152.032 509.872 153.216L511.792 150.176C510.64 149.024 508.272 147.488 506.416 146.496L504.624 149.216ZM501.744 138.656C501.392 140.896 500.624 144.128 499.984 146.144L502.384 146.816C503.184 144.96 504.112 141.92 504.944 139.36L501.744 138.656ZM495.536 146.144C495.376 144.16 494.736 141.12 493.904 138.816L491.248 139.52C491.984 141.824 492.624 144.928 492.688 146.912L495.536 146.144ZM504.272 156.672C503.6 155.776 500.56 152.192 499.632 151.264V151.04H504.368V147.488H499.632V137.024H496.112V147.488H491.28V151.04H494.928C493.936 153.952 492.304 157.376 490.704 159.328C491.28 160.384 492.112 162.112 492.432 163.264C493.808 161.344 495.088 158.368 496.112 155.392V166.688H499.632V155.456C500.56 156.928 501.456 158.592 501.936 159.616L504.272 156.672ZM521.2 157.408L520.624 153.856L517.36 154.464V136.864H513.776V155.104L504.272 156.8L504.848 160.352L513.776 158.752V166.752H517.36V158.112L521.2 157.408ZM532.112 146.496C534.544 144.608 536.592 142.528 537.968 140.576C539.44 142.56 541.648 144.64 544.112 146.496H532.112ZM530.544 149.984H545.488V147.456C547.248 148.672 549.104 149.728 550.864 150.56C551.536 149.44 552.368 148.064 553.328 147.072C548.272 145.28 543.184 141.632 539.792 136.928H535.824C533.424 140.704 528.336 145.248 522.896 147.648C523.696 148.48 524.688 149.92 525.136 150.848C526.992 149.952 528.848 148.864 530.544 147.648V149.984ZM524.88 156.16H532.304C531.632 158.048 530.736 160.16 529.872 161.952L525.04 162.112L525.552 165.824C530.992 165.568 538.896 165.248 546.416 164.832C546.928 165.536 547.376 166.208 547.696 166.816L551.248 164.672C549.744 162.272 546.768 158.944 543.92 156.448L540.56 158.208C541.616 159.168 542.704 160.32 543.696 161.472C540.432 161.6 537.136 161.728 534.064 161.824C535.024 160.032 536.08 158.048 537.008 156.16H551.344V152.64H524.88V156.16ZM576.528 142.944H563.6V140.864H576.528V142.944ZM580.592 137.888H559.76V145.888H580.592V137.888ZM562.096 157.248H577.776V158.656H562.096V157.248ZM562.096 153.472H577.776V154.816H562.096V153.472ZM562.096 149.664H577.776V151.04H562.096V149.664ZM581.712 161.216V147.072H558.32V161.216H563.344C561.168 162.304 557.872 163.456 555.088 164.064C555.952 164.8 557.264 165.984 557.968 166.784C561.2 165.984 565.296 164.448 567.888 162.944L565.424 161.216H574.16L571.472 163.136C574.864 164.128 579.28 165.696 581.744 166.848L585.104 164.16C582.896 163.264 579.536 162.112 576.528 161.216H581.712ZM605.776 159.264C605.328 160.416 604.656 161.856 604.112 162.816L604.976 163.008H598.672L599.888 162.656C599.632 161.696 599.056 160.352 598.352 159.264H605.776ZM596.432 153.408H607.344V156.256H596.432V153.408ZM608.4 159.264H611.28V150.4H592.752V159.264H596.24L594.576 159.68C595.184 160.672 595.728 161.952 596.048 163.008H588.304V166.144H615.824V163.008H607.792C608.336 162.08 608.976 160.832 609.648 159.52L608.4 159.264ZM613.616 140.896C612.72 141.92 611.344 143.168 610.032 144.192C609.52 143.68 609.008 143.136 608.528 142.56C609.936 141.6 611.536 140.384 612.912 139.232L610.032 137.184C609.2 138.144 608.016 139.264 606.832 140.224C606.16 139.2 605.616 138.112 605.136 136.992L601.872 138.016C603.024 140.736 604.496 143.232 606.256 145.408H598.032C599.536 143.584 600.784 141.504 601.648 139.168L599.184 137.888L598.544 138.048H590.16V141.12H596.72C596.048 142.208 595.248 143.296 594.32 144.288C593.424 143.392 591.92 142.4 590.704 141.696L588.624 143.776C589.776 144.512 591.152 145.568 592.048 146.464C590.352 147.84 588.496 148.992 586.64 149.76C587.408 150.4 588.4 151.712 588.912 152.544C591.472 151.296 593.968 149.6 596.144 147.488V148.576H607.92V147.264C609.904 149.28 612.208 150.944 614.768 152.096C615.344 151.104 616.432 149.632 617.296 148.928C615.504 148.224 613.808 147.264 612.272 146.144C613.648 145.184 615.12 144 616.4 142.88L613.616 140.896ZM622.928 144.832C624.208 143.328 625.232 141.824 626.032 140.448C627.376 141.728 628.784 143.52 629.68 144.832H622.928ZM631.248 160.608L627.408 161.28V153.536H631.376V150.336H627.408V148H630.704V144.832H630.416L632.432 142.432C631.312 140.768 628.976 138.496 627.088 136.928H623.952C622.96 139.392 621.104 142.4 618.416 144.672C619.152 145.152 620.208 146.4 620.688 147.136C620.88 146.944 621.104 146.752 621.296 146.56V148H624.112V150.336H619.76V153.536H624.112V161.888C622.352 162.176 620.752 162.432 619.408 162.624L620.112 166.08C623.344 165.472 627.568 164.576 631.536 163.744L631.44 162.816L632.496 164.64C634.32 163.392 636.368 161.92 638.256 160.48L637.104 157.6C635.024 158.976 632.912 160.32 631.312 161.248L631.248 160.608ZM645.104 157.056C646.224 156 647.664 154.496 648.944 153.024L645.968 151.2C645.264 152.384 644.08 153.952 643.088 155.04C642.512 153.888 642.096 152.704 641.776 151.616V150.56H648.688V147.328H646.32V137.952H633.2V141.088H642.8V142.816H633.904V145.696H642.8V147.328H631.664V150.56H638.256V163.104C638.256 163.424 638.16 163.52 637.808 163.52C637.488 163.52 636.528 163.552 635.632 163.488C636.048 164.48 636.432 165.824 636.528 166.784C638.32 166.784 639.568 166.72 640.56 166.176C641.552 165.664 641.776 164.768 641.776 163.168V158.976C643.024 161.376 644.752 163.68 647.024 165.152C647.568 164.16 648.688 162.688 649.456 162.016C646.864 160.672 644.944 158.432 643.6 156.064L645.104 157.056ZM620.08 155.36C620.56 157.12 621.008 159.424 621.072 160.96L623.632 160.256C623.472 158.784 623.024 156.512 622.512 154.752L620.08 155.36ZM630.064 160.32C630.544 159.008 631.056 156.96 631.632 155.168L628.88 154.496C628.688 156 628.176 158.272 627.76 159.68L630.064 160.32ZM631.824 153.28C633.04 154.528 634.416 156.288 634.96 157.472L637.616 155.712C637.008 154.496 635.6 152.8 634.32 151.68L631.824 153.28ZM651.184 154.464L655.088 158.464C655.632 157.632 656.368 156.48 657.104 155.424C658.48 153.6 660.752 150.432 662.032 148.832C662.96 147.648 663.568 147.488 664.688 148.736C666.192 150.432 668.592 153.472 670.576 155.84C672.592 158.208 675.312 161.312 677.616 163.488L680.912 159.648C677.872 156.928 675.152 154.048 673.104 151.808C671.216 149.76 668.656 146.464 666.48 144.352C664.144 142.08 662.064 142.304 659.824 144.832C657.84 147.136 655.376 150.432 653.904 151.968C652.944 152.992 652.144 153.728 651.184 154.464Z" fill="white"/>
<path d="M287.84 232.04H242V241H283.12C280 247.96 275.92 256.52 272.4 263.4L282.48 266.2C287.44 256.04 293.2 243.64 297.12 233.8L289.52 231.56L287.84 232.04ZM255.6 215.56C261.36 210.44 266.24 205 269.68 200.04C273.2 205 278.4 210.44 284.24 215.56H255.6ZM264.48 190.76C258.48 200.68 245.6 213.56 232.08 221C234.16 223 236.88 226.36 238.08 228.6C243.28 225.48 248.32 221.88 252.88 217.96V224.36H286.8V217.72C291.68 221.8 296.88 225.48 301.92 228.44C303.68 225.56 305.76 222.52 308.16 220.12C295.68 214.28 282.56 203 274 190.76H264.48ZM362.24 194.52H350.64C350.88 195.48 351.2 198.2 351.44 201.48C351.52 202.12 351.52 202.92 351.6 203.96C340.72 204.12 326.16 204.44 317.04 204.44L317.28 214.12C327.12 213.56 339.6 213.08 351.68 212.92C351.76 214.68 351.76 216.52 351.76 218.28C350.72 218.12 349.68 218.04 348.56 218.04C339.84 218.04 332.56 223.96 332.56 233C332.56 242.76 340.16 247.72 346.32 247.72C347.6 247.72 348.8 247.56 349.92 247.32C345.52 252.12 338.48 254.76 330.4 256.44L338.96 264.92C358.48 259.48 364.56 246.2 364.56 235.8C364.56 231.64 363.6 227.88 361.68 224.84C361.68 221.32 361.6 216.92 361.6 212.84C372.48 212.84 379.92 213 384.72 213.24L384.8 203.8C380.64 203.72 369.68 203.88 361.6 203.88C361.68 202.92 361.68 202.04 361.68 201.4C361.76 200.12 362.08 195.8 362.24 194.52ZM342.16 232.84C342.16 228.6 345.2 226.44 348.32 226.44C350.48 226.44 352.4 227.4 353.52 229.24C354.64 236.28 351.68 238.84 348.32 238.84C345.12 238.84 342.16 236.52 342.16 232.84ZM442.4 212.68L436 215.32C438.16 218.52 440.88 224.12 442.56 227.4L449.12 224.6C447.6 221.72 444.48 215.72 442.4 212.68ZM452.08 208.92L445.52 211.64C447.76 214.76 450.56 220.12 452.4 223.48L458.88 220.76C457.28 217.8 454.16 211.88 452.08 208.92ZM447.44 201.32L438.08 193.08C436.88 195 434.24 197.56 432 199.88C426.56 205.08 415.6 213.96 409.36 219.08C401.28 225.8 400.72 230.04 408.64 236.84C416 243.08 427.68 253.08 432.56 258.12C434.88 260.52 437.36 263.08 439.6 265.56L448.8 257C440.64 249.08 425.52 237.08 419.52 232.04C415.12 228.28 415.04 227.4 419.36 223.72C424.64 219.16 435.28 211 440.4 206.84C442.32 205.32 444.96 203.24 447.44 201.32ZM514.8 236.28V227.8H532.56V236.28H514.8ZM487.44 236.28V227.8H504.8V236.28H487.44ZM504.8 211V219.08H487.44V211H504.8ZM532.56 211V219.08H514.8V211H532.56ZM514.8 201.88V191.16H504.8V201.88H477.92V249.64H487.44V245.4H504.8V265.88H514.8V245.4H532.56V249.24H542.48V201.88H514.8ZM579.68 195.56L566.8 195.4C567.52 198.6 567.84 202.44 567.84 206.2C567.84 213.08 567.04 234.12 567.04 244.84C567.04 258.52 575.52 264.28 588.64 264.28C606.88 264.28 618.24 253.56 623.36 245.88L616.08 237.08C610.32 245.8 601.92 253.4 588.72 253.4C582.48 253.4 577.68 250.76 577.68 242.68C577.68 232.76 578.32 214.84 578.64 206.2C578.8 203 579.2 198.92 579.68 195.56ZM674.08 211.16C671.6 226.44 665.44 238.36 654.24 245C656.48 246.68 660.16 250.36 661.6 252.2C670.32 246.12 676.4 237.32 680.4 225.88C683.92 237.08 689.76 246.28 699.6 252.12C701.36 249.8 704.8 246.44 707.04 244.84C690.4 236.52 685.6 217.24 684.4 194.6H662.4V203.56H676.32C676.56 206.28 676.88 209 677.2 211.64L674.08 211.16ZM654.24 205.16C651.52 201.4 645.68 196.44 640.88 193.08L633.84 198.84C638.56 202.36 644.24 207.64 646.72 211.48L654.24 205.16ZM652.24 222.28H633.76V231H642.96V247.88C639.44 250.6 635.44 253.24 632 255.24L636.64 265.16C641.04 261.8 644.56 258.68 648.08 255.56C653.28 261.8 659.84 264.04 669.68 264.44C679.2 264.84 695.28 264.68 704.88 264.2C705.36 261.48 706.8 256.84 707.84 254.6C697.2 255.4 679.2 255.64 669.84 255.24C661.52 254.92 655.52 252.76 652.24 247.4V222.28ZM742 194.28H730.8C731.44 196.6 731.6 199.32 731.6 204.36C731.6 204.52 731.6 204.76 731.6 205C730.8 205 730 205 729.2 205C725.44 205 720.72 204.6 716.32 203.96L716.88 213.32C722.16 213.8 726.48 213.96 729.92 213.96C730.48 213.96 731.04 213.96 731.6 213.96C731.6 215.8 731.6 217.64 731.6 219.4H731.28C722.56 219.4 716.48 226.52 716.48 235.96C716.48 246.2 722.4 250.36 728.24 250.36C728.72 250.36 729.12 250.36 729.52 250.28C729.52 250.84 729.52 251.4 729.52 251.96C729.52 257.56 730.32 263.48 748.96 263.48C754.4 263.48 762.72 262.92 766.32 261.72C775.6 258.92 777.76 254.44 778.16 247.16C778.4 243.88 778.32 241.96 778.32 237.8L767.2 234.44C767.76 238.2 767.84 241.16 767.84 244.36C767.84 248.44 766.08 251.16 761.92 252.36C758.88 253.32 753.68 253.8 749.68 253.8C740.24 253.8 739.36 252.04 739.36 248.6C739.36 247.64 739.36 246.52 739.36 245.4C742.24 241.88 743.52 236.92 743.52 231.88C743.52 228.68 742.72 225.88 741.2 223.8V213.32C745.76 212.92 750.8 212.2 755.52 211.08V201.48C750.72 202.84 745.84 203.72 741.2 204.28C741.2 199.56 741.52 196.6 742 194.28ZM768.88 201.64L762.16 208.28C766.72 211.64 774.32 219 778.64 224.28L785.84 216.92C782.24 212.6 773.84 204.76 768.88 201.64ZM729.28 240.76C726.96 240.76 724.88 238.76 724.88 235.24C724.88 230.52 727.44 227.4 730.64 227.4C732.88 227.4 734.4 229.24 734.4 232.36C734.4 236.84 732.96 240.76 729.28 240.76Z" fill="white"/>
<g clip-path="url(#clip1_12_96)">
<path d="M117.119 218.404L104.514 235.008L96.2535 215.936L80.0109 229.067L76.6514 208.593L57.6964 217.459L59.3916 196.772L38.8031 200.916L45.4296 181.235L24.4713 180.412L35.6594 162.864L15.5332 157.105L30.6664 142.756L12.4819 132.336L30.6664 121.947L15.5332 107.598L35.6594 101.809L24.4713 84.2911L45.4296 83.4685L38.8031 63.7569L59.3916 67.9003L57.6964 47.2137L76.6514 56.1099L80.0109 35.6365L96.2535 48.737L104.514 29.6652L117.119 46.2693L129.725 29.6652L137.985 48.737L154.228 35.6365L157.587 56.1099L176.542 47.2137L174.847 67.9003L195.436 63.7569L188.809 83.4685L209.767 84.2911L198.579 101.809L218.706 107.598L203.572 121.947L221.757 132.336L203.572 142.756L218.706 157.105L198.579 162.864L209.767 180.412L188.809 181.235L195.436 200.916L174.847 196.772L176.542 217.459L157.587 208.593L154.228 229.067L137.985 215.936L129.725 235.008L117.119 218.404Z" fill="#D6A760"/>
<path d="M99.504 123.36H94.64V115.168H99.504V123.36ZM99.504 138.272H94.64V130.144H99.504V138.272ZM72.624 130.144H77.232V138.272H72.624V130.144ZM88.304 130.144V138.272H83.568V130.144H88.304ZM83.568 123.36V115.168H88.304V123.36H83.568ZM72.624 115.168H77.232V123.36H72.624V115.168ZM65.904 123.36H57.328V130.144H65.904V138.272H58.288V145.056H113.904V138.272H106.48V130.144H114.8V123.36H106.48V115.168H112.496V108.448H74.096C75.056 106.976 75.888 105.504 76.592 103.968L69.168 101.792C66.352 107.744 61.296 113.568 55.92 117.088C57.648 118.304 60.72 120.736 62.128 122.08C63.408 121.12 64.624 119.968 65.904 118.752V123.36ZM63.92 161.632C67.056 158.304 69.808 153.056 71.216 148.192L63.856 146.4C62.384 151.072 59.504 156 56.688 158.688L63.92 161.632ZM75.312 148.64C76.016 152.544 76.528 157.792 76.528 160.864L83.952 159.776C83.888 156.768 83.12 151.712 82.352 147.808L75.312 148.64ZM87.984 148.768C89.392 152.672 90.864 157.856 91.248 160.928L98.864 159.456C98.288 156.32 96.688 151.328 95.152 147.552L87.984 148.768ZM100.656 148.448C103.472 152.544 106.864 158.176 108.208 161.568L116.016 158.944C114.416 155.424 110.832 150.048 107.952 146.144L100.656 148.448ZM164.016 112.992C161.968 110.624 157.424 107.36 153.84 105.248L150.192 110.368C153.712 112.736 158.128 116.192 160.112 118.688L164.016 112.992ZM147.248 126.432C150.96 128.672 155.632 132.064 157.744 134.432L161.584 128.352C159.28 126.048 154.544 122.976 150.832 120.992L147.248 126.432ZM141.488 105.312C140.784 109.792 139.248 116.256 137.968 120.288L142.768 121.632C144.368 117.92 146.224 111.84 147.888 106.72L141.488 105.312ZM129.072 120.288C128.752 116.32 127.472 110.24 125.808 105.632L120.496 107.04C121.968 111.648 123.248 117.856 123.376 121.824L129.072 120.288ZM146.544 141.344C145.2 139.552 139.12 132.384 137.264 130.528V130.08H146.736V122.976H137.264V102.048H130.224V122.976H120.56V130.08H127.856C125.872 135.904 122.608 142.752 119.408 146.656C120.56 148.768 122.224 152.224 122.864 154.528C125.616 150.688 128.176 144.736 130.224 138.784V161.376H137.264V138.912C139.12 141.856 140.912 145.184 141.872 147.232L146.544 141.344ZM180.4 142.816L179.248 135.712L172.72 136.928V101.728H165.552V138.208L146.544 141.6L147.696 148.704L165.552 145.504V161.504H172.72V144.224L180.4 142.816Z" fill="#FD0000"/>
</g>
<defs>
<clipPath id="clip0_12_96">
<rect width="182.707" height="183.465" fill="white" transform="translate(830 125)"/>
</clipPath>
<clipPath id="clip1_12_96">
<rect width="229.555" height="225.267" fill="white"/>
</clipPath>
</defs>
</svg>
