<svg width="1499" height="300" viewBox="0 0 1499 300" fill="none" xmlns="http://www.w3.org/2000/svg">
<rect width="1499" height="300" fill="#77B3C6"/>
<rect x="168" y="18" width="1216" height="264" rx="18" stroke="white" stroke-width="4"/>
<path d="M403.07 160.896C409.278 160.896 414.59 158.528 418.622 153.856L412.606 146.688C410.366 149.12 407.358 151.04 403.518 151.04C396.798 151.04 392.446 145.536 392.446 136.064C392.446 126.784 397.502 121.28 403.646 121.28C407.038 121.28 409.534 122.816 411.966 124.992L417.918 117.696C414.654 114.368 409.662 111.488 403.454 111.488C391.358 111.488 380.734 120.576 380.734 136.448C380.734 152.576 390.974 160.896 403.07 160.896ZM475.91 160H486.79V144.192C486.79 138.432 485.83 131.904 485.318 126.592H485.638L490.31 137.024L502.086 160H513.734V112.32H502.854V128.128C502.854 133.824 503.814 140.672 504.39 145.728H504.07L499.398 135.168L487.558 112.32H475.91V160ZM534.001 160H545.457V121.856H558.385V112.32H521.137V121.856H534.001V160ZM574.369 136.192C575.585 131.456 576.865 125.888 578.017 120.896H578.273C579.553 125.76 580.769 131.456 582.049 136.192L583.073 140.224H573.345L574.369 136.192ZM556.769 160H568.417L571.169 149.056H585.249L588.001 160H600.033L585.249 112.32H571.553L556.769 160ZM624.445 160.896C630.653 160.896 635.965 158.528 639.997 153.856L633.981 146.688C631.741 149.12 628.733 151.04 624.893 151.04C618.173 151.04 613.821 145.536 613.821 136.064C613.821 126.784 618.877 121.28 625.021 121.28C628.413 121.28 630.909 122.816 633.341 124.992L639.293 117.696C636.029 114.368 631.037 111.488 624.829 111.488C612.733 111.488 602.109 120.576 602.109 136.448C602.109 152.576 612.349 160.896 624.445 160.896ZM655.376 160H666.832V121.856H679.76V112.32H642.512V121.856H655.376V160Z" fill="white"/>
<path d="M445.246 160.896C458.238 160.896 467.07 151.552 467.07 135.936C467.07 120.384 458.238 111.488 445.246 111.488C432.254 111.488 423.422 120.32 423.422 135.936C423.422 151.552 432.254 160.896 445.246 160.896ZM445.246 151.04C438.974 151.04 435.134 145.152 435.134 135.936C435.134 126.72 438.974 121.28 445.246 121.28C451.518 121.28 455.422 126.72 455.422 135.936C455.422 145.152 451.518 151.04 445.246 151.04Z" fill="#FC7A31"/>
<path d="M450.854 201.152H456.35V199.232H453.494V179.6H456.35V177.728H450.854V201.152ZM467.964 177.512H464.652C464.724 177.944 464.82 179.12 464.82 179.624C464.82 180.032 464.82 180.728 464.796 181.568C464.316 181.592 463.836 181.616 463.404 181.616C462.54 181.616 461.508 181.592 460.092 181.424L460.14 184.328C460.956 184.424 461.892 184.448 463.5 184.448C463.884 184.448 464.316 184.424 464.772 184.4C464.772 185.072 464.772 185.744 464.772 186.416C464.772 186.968 464.772 187.544 464.796 188.12C461.844 189.392 459.444 191.576 459.444 193.664C459.444 196.208 462.732 198.224 465.06 198.224C466.644 198.224 467.7 197.432 467.7 194.456C467.7 193.64 467.652 191.768 467.604 189.872C469.068 189.44 470.628 189.2 472.116 189.2C474.204 189.2 475.644 190.16 475.644 191.792C475.644 193.544 474.108 194.504 472.164 194.864C471.324 195.008 470.292 195.032 469.212 195.032L470.316 198.128C471.3 198.056 472.356 197.984 473.46 197.744C477.276 196.784 478.764 194.648 478.764 191.816C478.764 188.504 475.86 186.584 472.164 186.584C470.844 186.584 469.188 186.8 467.556 187.208C467.556 186.896 467.556 186.608 467.556 186.32C467.556 185.624 467.556 184.88 467.58 184.16C469.14 183.968 470.796 183.728 472.164 183.416L472.092 180.44C470.844 180.8 469.26 181.112 467.676 181.304C467.7 180.704 467.724 180.128 467.748 179.6C467.796 178.976 467.892 177.944 467.964 177.512ZM474.804 180.104L473.484 182.432C474.972 183.152 478.116 184.952 479.268 185.936L480.708 183.488C479.436 182.576 476.652 180.992 474.804 180.104ZM462.396 193.544C462.396 192.704 463.38 191.72 464.844 190.928C464.892 192.224 464.916 193.328 464.916 193.928C464.916 194.744 464.58 194.936 464.148 194.936C463.524 194.936 462.396 194.288 462.396 193.544ZM489.972 179.768V181.064H486.3V179.768H489.972ZM486.3 184.352V182.984H489.972V184.352H486.3ZM492.636 186.512V177.584H483.468V199.088H486.3V186.512H492.636ZM495.396 190.52V193.352H491.436V190.52H495.396ZM498.06 195.704V188.168H488.772V197.048H491.436V195.704H498.06ZM497.004 184.376V182.984H500.796V184.376H497.004ZM500.796 179.744V181.064H497.004V179.744H500.796ZM503.676 177.584H494.292V186.536H500.796V195.632C500.796 196.064 500.628 196.208 500.172 196.208C499.716 196.232 498.084 196.256 496.692 196.16C497.1 196.928 497.556 198.272 497.652 199.088C499.86 199.088 501.372 199.016 502.356 198.536C503.364 198.08 503.676 197.264 503.676 195.68V177.584ZM511.74 179.84L508.044 179.792C508.188 180.536 508.236 181.568 508.236 182.24C508.236 183.704 508.26 186.512 508.5 188.72C509.172 195.152 511.452 197.528 514.092 197.528C516.012 197.528 517.524 196.064 519.108 191.888L516.708 188.96C516.252 190.88 515.292 193.688 514.164 193.688C512.652 193.688 511.932 191.312 511.596 187.856C511.452 186.128 511.428 184.328 511.452 182.768C511.452 182.096 511.572 180.704 511.74 179.84ZM523.74 180.392L520.692 181.376C523.308 184.352 524.58 190.184 524.964 194.048L528.108 192.824C527.844 189.152 526.02 183.152 523.74 180.392ZM546.276 191.792V195.704H536.796V191.792H546.276ZM533.988 199.112H536.796V198.224H546.276V199.112H549.204V189.272H533.988V199.112ZM536.652 184.376C538.62 182.816 540.3 181.112 541.428 179.504C542.58 181.088 544.356 182.816 546.348 184.376H536.652ZM539.82 176.696C538.02 179.624 534.18 183.248 530.052 185.24C530.676 185.84 531.468 186.872 531.852 187.568C533.124 186.872 534.396 186.08 535.572 185.216V186.896H547.524V185.24C548.724 186.104 549.972 186.896 551.196 187.52C551.7 186.632 552.348 185.696 553.044 184.952C549.228 183.416 545.34 180.368 542.772 176.696H539.82ZM560.028 179.696C560.028 179.96 559.98 180.632 559.932 181.544C558.9 181.688 557.844 181.808 557.148 181.856C556.308 181.904 555.756 181.904 555.06 181.88L555.372 184.952C556.716 184.76 558.564 184.52 559.74 184.376C559.716 184.952 559.668 185.528 559.62 186.08C558.252 188.096 555.852 191.264 554.484 192.944L556.38 195.56C557.22 194.432 558.396 192.68 559.404 191.168C559.38 193.184 559.356 194.576 559.308 196.448C559.308 196.832 559.284 197.696 559.236 198.224H562.548C562.476 197.672 562.404 196.808 562.38 196.376C562.236 194.12 562.236 192.104 562.236 190.136C562.236 189.512 562.26 188.816 562.284 188.12C564.3 186.272 566.532 185.048 569.076 185.048C571.476 185.048 572.988 186.776 572.988 188.648C573.012 192.392 569.988 194.12 565.764 194.744L567.204 197.648C573.156 196.472 576.204 193.568 576.204 188.72C576.18 184.856 573.276 182.24 569.58 182.24C567.42 182.24 564.948 182.912 562.524 184.712C562.548 184.496 562.548 184.256 562.572 184.04C562.98 183.416 563.46 182.624 563.796 182.192L562.908 181.064C563.1 179.552 563.292 178.328 563.436 177.656L559.932 177.536C560.052 178.28 560.028 179 560.028 179.696ZM595.86 178.16H592.644C592.716 178.64 592.812 179.768 592.812 180.368V183.08C590.628 183.272 588.3 183.488 586.26 183.68C586.26 182.744 586.284 181.928 586.284 181.376C586.284 180.368 586.308 179.696 586.428 178.88H583.044C583.164 179.744 583.236 180.56 583.236 181.544C583.236 181.952 583.236 182.84 583.236 183.968C582.468 184.04 581.844 184.088 581.412 184.136C580.188 184.256 579.084 184.304 578.388 184.304L578.724 187.376C579.348 187.28 580.836 187.04 581.604 186.944C582.012 186.896 582.564 186.848 583.212 186.776C583.212 189.008 583.212 191.336 583.236 192.368C583.356 196.52 584.1 197.816 590.316 197.816C592.596 197.816 595.548 197.624 597.156 197.432L597.276 194.168C595.476 194.48 592.452 194.768 590.1 194.768C586.5 194.768 586.284 194.24 586.236 191.888C586.188 190.856 586.212 188.648 586.236 186.44C588.276 186.224 590.628 186.008 592.764 185.84C592.74 186.992 592.668 188.096 592.572 188.744C592.524 189.2 592.308 189.296 591.828 189.296C591.348 189.296 590.364 189.152 589.62 188.984L589.548 191.648C590.388 191.768 592.308 192.008 593.172 192.008C594.396 192.008 594.996 191.696 595.26 190.424C595.452 189.416 595.548 187.448 595.62 185.624C596.316 185.576 596.94 185.552 597.468 185.528C598.092 185.504 599.364 185.48 599.772 185.504V182.552C599.076 182.624 598.14 182.672 597.468 182.72C596.916 182.744 596.316 182.792 595.668 182.84C595.692 182.048 595.692 181.184 595.716 180.248C595.74 179.6 595.812 178.544 595.86 178.16ZM602.652 201.152H608.148V177.728H602.652V179.6H605.508V199.232H602.652V201.152Z" fill="white"/>
<rect x="893" y="50" width="332" height="201" rx="10" fill="white"/>
<path d="M965.98 200.38L963.66 199.56C963.56 200.04 963.38 200.76 963.22 201.2C962.64 202.84 961.9 204.62 960.72 206.36C959.12 205.14 956.9 203.6 955.22 202.54L953.9 204.14C955.88 205.36 957.96 206.9 959.42 208.08C957.46 210.5 955.04 212.58 951.64 214.2L953.4 215.78C956.84 213.94 959.24 211.66 961.06 209.44C962.72 210.88 964.22 212.3 965.66 213.96L967.26 212.2C965.88 210.7 964.16 209.14 962.38 207.68C963.66 205.8 964.62 203.66 965.26 202C965.42 201.56 965.76 200.78 965.98 200.38ZM971.44 206.08V208.56C972.12 208.5 973.32 208.46 974.42 208.46H985.3C986.18 208.46 987.1 208.54 987.54 208.56V206.08C987.04 206.12 986.26 206.2 985.3 206.2H974.42C973.34 206.2 972.1 206.12 971.44 206.08ZM999.8 214.56L1001.12 215.66C1001.28 215.54 1001.52 215.36 1001.88 215.16C1004.18 214 1007 211.9 1008.7 209.64L1007.48 207.92C1006.04 210.04 1003.78 211.74 1002.04 212.52V201.46C1002.04 200.64 1002.12 199.98 1002.14 199.86H999.82C999.82 199.98 999.94 200.64 999.94 201.46V213.3C999.94 213.76 999.88 214.22 999.8 214.56ZM990.58 214.38L992.5 215.66C994.2 214.22 995.46 212.26 996.06 210.06C996.6 208.06 996.68 203.8 996.68 201.52C996.68 200.82 996.76 200.08 996.78 199.92H994.46C994.58 200.38 994.62 200.86 994.62 201.54C994.62 203.84 994.62 207.74 994.04 209.52C993.46 211.36 992.32 213.18 990.58 214.38ZM1011 201.6L1011.2 203.78C1013.44 203.3 1018.1 202.82 1020.12 202.62C1018.5 203.68 1016.72 206.1 1016.72 209.12C1016.72 213.52 1020.82 215.62 1024.74 215.82L1025.46 213.68C1022.16 213.54 1018.76 212.32 1018.76 208.68C1018.76 206.32 1020.52 203.46 1023.18 202.66C1024.22 202.4 1025.96 202.38 1027.08 202.38V200.36C1025.7 200.4 1023.7 200.52 1021.56 200.7C1017.88 201.02 1014.32 201.36 1012.86 201.5C1012.46 201.54 1011.76 201.58 1011 201.6ZM1024.2 204.6L1023 205.12C1023.6 205.98 1024.12 206.9 1024.6 207.92L1025.84 207.36C1025.42 206.52 1024.68 205.3 1024.2 204.6ZM1026.42 203.74L1025.22 204.28C1025.86 205.14 1026.38 206.02 1026.9 207.04L1028.12 206.46C1027.68 205.62 1026.9 204.42 1026.42 203.74ZM1047.82 207.98C1047.82 203.8 1044.78 200.44 1039.98 200.44C1034.96 200.44 1031.04 204.28 1031.04 208.76C1031.04 212.1 1032.86 214.3 1034.84 214.3C1036.82 214.3 1038.48 212.04 1039.68 207.96C1040.26 206.08 1040.6 204.14 1040.88 202.34C1043.96 202.72 1045.72 205.02 1045.72 207.92C1045.72 211.14 1043.44 213.02 1040.88 213.6C1040.38 213.72 1039.78 213.82 1039.1 213.88L1040.28 215.76C1045.14 215.06 1047.82 212.18 1047.82 207.98ZM1033.06 208.56C1033.06 206.08 1035.16 202.96 1038.76 202.38C1038.52 204.14 1038.16 205.96 1037.66 207.54C1036.74 210.62 1035.8 211.92 1034.9 211.92C1034.04 211.92 1033.06 210.86 1033.06 208.56ZM1057.94 198.9H1055.74C1055.8 199.26 1055.86 200.06 1055.86 200.48C1055.86 200.84 1055.84 201.56 1055.84 202.46C1055.34 202.5 1054.88 202.52 1054.46 202.52C1053.72 202.52 1052.94 202.5 1051.8 202.36L1051.86 204.28C1052.52 204.34 1053.28 204.38 1054.5 204.38C1054.88 204.38 1055.32 204.36 1055.82 204.32C1055.8 205.08 1055.8 205.84 1055.8 206.54C1055.8 206.94 1055.8 207.36 1055.8 207.78C1053.44 208.8 1051.38 210.58 1051.38 212.28C1051.38 214.2 1054.04 215.8 1055.78 215.8C1056.96 215.8 1057.74 215.18 1057.74 213.06C1057.74 212.26 1057.68 210.58 1057.66 208.92C1058.98 208.5 1060.36 208.26 1061.76 208.26C1063.58 208.26 1064.96 209.12 1064.96 210.66C1064.96 212.34 1063.5 213.22 1061.82 213.54C1061.08 213.7 1060.22 213.7 1059.42 213.68L1060.14 215.72C1060.88 215.68 1061.78 215.62 1062.68 215.42C1065.62 214.72 1067 213.06 1067 210.68C1067 208.12 1064.76 206.52 1061.78 206.52C1060.56 206.52 1059.08 206.74 1057.62 207.16C1057.62 206.92 1057.62 206.68 1057.62 206.46C1057.62 205.74 1057.64 204.94 1057.66 204.14C1059.04 203.98 1060.52 203.74 1061.68 203.48L1061.64 201.52C1060.54 201.84 1059.1 202.12 1057.7 202.28C1057.74 201.56 1057.76 200.92 1057.78 200.44C1057.82 199.96 1057.88 199.28 1057.94 198.9ZM1063.92 201.1L1063.04 202.62C1064.3 203.28 1066.7 204.7 1067.66 205.58L1068.64 203.98C1067.64 203.2 1065.4 201.84 1063.92 201.1ZM1053.34 212.18C1053.34 211.38 1054.38 210.36 1055.84 209.64C1055.86 210.94 1055.9 212.1 1055.9 212.74C1055.9 213.4 1055.62 213.66 1055.22 213.66C1054.54 213.66 1053.34 212.98 1053.34 212.18ZM1076.92 200.5V201.9H1073.16V200.5H1076.92ZM1073.16 204.72V203.22H1076.92V204.72H1073.16ZM1078.68 206.18V199.02H1071.32V216.58H1073.16V206.18H1078.68ZM1081.46 209.34V212.24H1077.38V209.34H1081.46ZM1083.2 213.78V207.78H1075.66V214.94H1077.38V213.78H1083.2ZM1082.04 204.74V203.22H1085.9V204.74H1082.04ZM1085.9 200.48V201.9H1082.04V200.48H1085.9ZM1087.8 199.02H1080.26V206.2H1085.9V214.2C1085.9 214.56 1085.8 214.68 1085.42 214.7C1085.02 214.7 1083.72 214.72 1082.46 214.66C1082.74 215.18 1083.04 216.04 1083.1 216.56C1084.9 216.56 1086.08 216.54 1086.82 216.24C1087.54 215.92 1087.8 215.34 1087.8 214.22V199.02ZM1094.28 200.9L1091.84 200.86C1091.96 201.4 1092 202.24 1092 202.74C1092 203.94 1092.02 206.34 1092.22 208.1C1092.76 213.36 1094.62 215.28 1096.64 215.28C1098.1 215.28 1099.34 214.1 1100.6 210.68L1099.02 208.82C1098.56 210.64 1097.68 212.82 1096.68 212.82C1095.34 212.82 1094.52 210.7 1094.22 207.56C1094.08 206 1094.06 204.32 1094.08 203.06C1094.08 202.52 1094.18 201.48 1094.28 200.9ZM1104.52 201.4L1102.54 202.06C1104.56 204.46 1105.7 208.9 1106.04 212.34L1108.1 211.54C1107.84 208.3 1106.36 203.72 1104.52 201.4ZM1123.82 210.24V214.16H1115.22V210.24H1123.82ZM1113.4 216.6H1115.22V215.82H1123.82V216.6H1125.72V208.56H1113.4V216.6ZM1114.94 204.64C1116.82 203.2 1118.42 201.56 1119.44 200.08C1120.56 201.62 1122.28 203.24 1124.16 204.64H1114.94ZM1118.4 198.26C1116.88 200.76 1113.6 203.76 1110.18 205.5C1110.56 205.88 1111.1 206.54 1111.32 206.98C1112.42 206.38 1113.52 205.7 1114.54 204.94V206.3H1124.5V204.88C1125.56 205.66 1126.68 206.34 1127.74 206.9C1128.06 206.34 1128.5 205.7 1128.96 205.24C1125.82 203.88 1122.44 201.24 1120.3 198.26H1118.4ZM1135.18 200.6C1135.18 200.82 1135.14 201.48 1135.08 202.34C1134.12 202.48 1133.08 202.6 1132.46 202.64C1131.88 202.68 1131.46 202.68 1130.96 202.66L1131.16 204.7C1132.36 204.54 1134.02 204.32 1134.96 204.2C1134.92 204.76 1134.88 205.36 1134.84 205.92C1133.76 207.56 1131.6 210.44 1130.48 211.84L1131.72 213.58C1132.56 212.42 1133.74 210.7 1134.68 209.32C1134.62 211.54 1134.62 212.68 1134.6 214.56C1134.6 214.88 1134.56 215.52 1134.54 215.88H1136.7C1136.66 215.46 1136.62 214.88 1136.6 214.52C1136.48 212.7 1136.5 211.28 1136.5 209.54C1136.5 208.9 1136.52 208.2 1136.56 207.46C1138.32 205.84 1140.32 204.74 1142.54 204.74C1144.92 204.74 1146.14 206.5 1146.14 208.06C1146.16 211.36 1143.36 212.86 1139.92 213.38L1140.84 215.28C1145.48 214.38 1148.24 212.14 1148.22 208.1C1148.22 204.94 1145.76 202.9 1142.86 202.9C1141 202.9 1138.84 203.54 1136.7 205.2C1136.72 204.88 1136.76 204.54 1136.78 204.22C1137.1 203.72 1137.48 203.14 1137.72 202.78L1137.04 201.94H1137.02C1137.16 200.64 1137.32 199.58 1137.44 199.06L1135.1 198.98C1135.18 199.52 1135.18 200.08 1135.18 200.6ZM1164.52 199.46H1162.38C1162.44 199.82 1162.52 200.64 1162.52 201.1C1162.52 201.92 1162.52 202.84 1162.52 203.7C1160.52 203.88 1158.34 204.08 1156.5 204.26C1156.52 203.3 1156.52 202.46 1156.52 201.9C1156.52 201.18 1156.56 200.62 1156.62 200.08H1154.4C1154.5 200.72 1154.54 201.3 1154.54 202C1154.54 202.34 1154.54 203.28 1154.54 204.44C1153.7 204.52 1153.04 204.58 1152.6 204.62C1151.76 204.7 1150.94 204.74 1150.34 204.74L1150.56 206.78C1151.08 206.7 1152.12 206.56 1152.74 206.48C1153.18 206.42 1153.8 206.36 1154.54 206.28C1154.54 208.2 1154.54 210.26 1154.56 211.12C1154.64 214.42 1155.16 215.5 1160.02 215.5C1162 215.5 1164.46 215.32 1165.8 215.16L1165.86 213.02C1164.48 213.28 1161.98 213.52 1159.9 213.52C1156.64 213.52 1156.56 212.88 1156.5 210.82C1156.46 210 1156.48 208.02 1156.5 206.06C1158.36 205.86 1160.54 205.66 1162.48 205.5C1162.44 206.64 1162.38 207.8 1162.28 208.4C1162.24 208.84 1162.04 208.92 1161.58 208.92C1161.16 208.92 1160.32 208.8 1159.66 208.66L1159.62 210.4C1160.22 210.5 1161.7 210.7 1162.42 210.7C1163.38 210.7 1163.84 210.44 1164.04 209.48C1164.22 208.58 1164.3 206.88 1164.34 205.36C1165.08 205.32 1165.74 205.28 1166.26 205.28C1166.78 205.26 1167.66 205.24 1168 205.26V203.3C1167.48 203.34 1166.8 203.4 1166.28 203.42C1165.72 203.46 1165.06 203.5 1164.38 203.56C1164.4 202.76 1164.4 201.9 1164.42 201.04C1164.42 200.56 1164.46 199.78 1164.52 199.46Z" fill="#167D9D"/>
<path d="M1108.21 86H1009.79C1007.69 86 1006 87.6859 1006 89.7727V165.227C1006 167.314 1007.69 169 1009.79 169H1108.21C1110.31 169 1112 167.314 1112 165.227V89.7727C1112 87.6859 1110.31 86 1108.21 86ZM1103.48 99.0631V160.511H1014.52V99.0631L1011.25 96.5283L1015.9 90.5744L1020.97 94.5004H1097.05L1102.11 90.5744L1106.76 96.5283L1103.48 99.0631ZM1097.05 94.4886L1059 123.963L1020.95 94.4886L1015.89 90.5626L1011.24 96.5165L1014.51 99.0513L1054.92 130.365C1056.08 131.265 1057.51 131.753 1058.98 131.753C1060.45 131.753 1061.88 131.265 1063.05 130.365L1103.48 99.0631L1106.75 96.5283L1102.1 90.5744L1097.05 94.4886Z" fill="#167D9D"/>
</svg>
