<svg width="1499" height="115" viewBox="0 0 1499 115" fill="none" xmlns="http://www.w3.org/2000/svg">
<rect width="1499" height="115" fill="#677FD6"/>
<g clip-path="url(#clip0_219_110)">
<path d="M535.266 27.9297C533.438 30.0088 530.663 31.6237 527.668 32.534C527.623 32.5469 527.576 32.5486 527.53 32.5386C527.485 32.5287 527.443 32.5076 527.408 32.4774C527.374 32.4472 527.348 32.4088 527.333 32.3661C527.318 32.3233 527.315 32.2776 527.324 32.2334C527.471 31.4673 527.573 30.7325 527.646 29.9687C525.802 31.9457 522.533 34.3285 520.294 35.3332C520.616 37.1751 520.834 39.036 521.076 40.735C521.46 43.4442 522.387 45.8797 524.402 47.3871C525.571 48.2978 526.951 48.9224 528.423 49.2076L528.079 49.3975C527.456 49.6868 526.815 49.9395 526.16 50.1544C526.161 50.1572 526.162 50.1601 526.163 50.1631L526.381 51.2546C526.63 52.5027 527.624 53.5344 528.809 54.0854C529.994 54.6364 531.351 54.7612 532.665 54.6874C537.014 54.4426 540.727 52.1676 543.768 49.2933C543.072 49.0335 542.395 48.7278 541.743 48.3781C541.167 48.0989 540.698 47.6504 540.404 47.0973C540.284 46.7934 540.198 46.4779 540.148 46.1564L540.014 45.1072C540.014 45.1072 539.996 44.9991 539.97 44.8416C540.333 44.3953 540.659 43.9409 540.969 43.4691C540.969 43.4691 541.456 42.6984 541.659 42.2596C541.659 42.2596 541.712 42.1626 541.79 42.0226C542.37 42.0189 542.939 41.8741 543.445 41.6015C544.215 41.0962 544.811 40.3806 545.157 39.5463C545.568 38.6888 545.723 37.2608 545.311 36.4408C545.182 36.194 544.988 35.9845 544.749 35.8338C544.509 35.6831 544.232 35.5967 543.947 35.5833C543.494 35.5243 543.035 35.6348 542.664 35.8922L540.425 35.4485C538.965 34.7732 537.324 32.6176 536.697 31.3548C536.164 30.2613 535.695 29.1397 535.292 27.9953" fill="white"/>
<path d="M531.198 79.1895C532.949 84.5612 535.247 91.6324 536.499 95.4989C536.601 95.8142 536.589 96.1539 536.464 96.4617C536.339 96.7695 536.11 97.0269 535.813 97.1912L535.67 97.2705L535.821 97.2095C539.041 95.9122 549.466 91.4386 551.443 90.5613L550.707 87.2273C550.707 87.2273 534.103 80.1759 531.198 79.1895Z" fill="white"/>
<path d="M543.742 89.1458C542.635 90.0051 541.799 91.1712 540.653 92.3244C540.488 92.4901 539.814 92.9248 539.294 92.5372C538.952 92.2827 538.902 91.6427 539.027 91.3815C539.701 89.9593 539.977 89.5285 540.478 88.5328C539.868 89.1536 539.392 89.6739 538.669 90.3791L537.933 91.0979C537.209 91.8047 536.485 92.5117 535.761 93.2187C534.989 90.8346 534.029 87.8781 533.072 84.9384C533.905 83.9069 534.66 82.7699 535.688 81.8975C536.439 81.2171 537.394 80.7834 538.416 80.6586C538.838 80.634 539.261 80.6478 539.681 80.7001C540.481 80.7792 541.279 80.8799 542.074 81.0022C543.519 81.2248 545.139 81.4858 546.294 80.541C547.792 81.8211 549.151 84.3473 549.902 86.7051C549.632 86.8317 549.372 86.978 549.125 87.1426C548.958 87.253 548.421 87.7129 548.243 87.8061C546.872 88.5105 545.376 88.9571 543.833 89.1222" fill="white"/>
<path d="M549.119 84.6764C548.361 83.0055 547.361 81.4544 546.29 80.5387C545.135 81.4855 543.517 81.2246 542.072 81.002C541.278 80.8796 540.48 80.7789 539.679 80.6998C539.259 80.6476 538.836 80.6337 538.414 80.6584C537.392 80.7832 536.437 81.2169 535.686 81.8973C534.943 82.575 534.275 83.3266 533.694 84.1396L511.37 72.1179C510.391 69.7011 509.798 67.9537 509.046 65.504C510.714 64.9772 514.839 63.826 516.925 63.0591C517.091 61.8002 517.322 60.5502 517.617 59.3136C517.973 57.6408 518.846 55.0784 520.519 53.2036C521.615 51.976 523.835 50.9445 525.848 50.2741C525.902 50.2507 525.989 50.2198 526.099 50.1838C526.254 50.7698 526.382 51.2541 526.382 51.2541C526.631 52.5023 527.625 53.534 528.81 54.085C529.995 54.636 531.352 54.7608 532.666 54.6869C537.111 54.4368 540.892 52.0653 543.97 49.1006C548.263 50.2857 551.664 51.5017 554.065 54.8483C556.158 57.7662 557.618 63.1662 558.21 65.2826C558.82 67.4637 559.456 69.6733 559.905 72.1987C560.151 73.5112 560.608 76.1769 560.638 77.1633C560.661 77.9534 560.522 79.7222 560.29 80.4373C559.846 81.9544 558.913 83.295 557.625 84.2639C555.556 85.8688 552.354 87.235 550.255 87.9994C549.988 86.8589 549.608 85.7461 549.119 84.6764V84.6764Z" fill="white"/>
<path d="M508.984 51.3527C509.014 51.3476 509.045 51.3429 509.077 51.3391C509.289 51.3148 509.503 51.3062 509.716 51.3133L509.489 50.7716C509.02 49.7068 508.551 48.6418 508.083 47.5766C507.959 47.3176 507.861 47.0477 507.79 46.7705C507.733 46.5445 507.725 46.3093 507.768 46.0803C507.81 45.8512 507.902 45.6333 508.038 45.4408C508.31 45.1011 508.864 45.0669 509.296 45.2233C509.77 45.3952 510.032 45.7579 510.328 46.2159C511.287 47.7027 512.553 50.671 513.098 52.3502L513.236 52.7777C513.834 52.5689 514.473 52.4603 515.013 52.7475C515.446 53.0269 515.769 53.4408 515.926 53.9208C516.336 54.9204 516.517 55.9939 516.456 57.0675C516.395 58.1411 516.095 59.1892 515.574 60.1397C515.993 61.0898 516.346 62.066 516.629 63.0617L516.654 63.1556C515.008 63.7403 512.369 64.508 510.503 65.0626L510.436 64.8228C510.325 64.4205 509.657 62.4037 509.306 61.9129C508.98 61.5099 508.602 61.1484 508.182 60.8369C507.479 60.2248 506.813 59.5735 506.189 58.8862C505.84 58.5315 505.447 57.6509 505.538 57.1233C505.614 56.4923 505.881 55.8969 506.305 55.4119C506.42 55.3053 506.557 55.2236 506.708 55.1722C506.858 55.1209 507.018 55.1011 507.176 55.1142L507.133 55.0269C507.006 54.8695 506.916 54.6873 506.869 54.4929C506.822 54.2986 506.82 54.0967 506.861 53.9013C506.999 53.3765 507.248 53.2661 507.698 53.1549C507.709 53.1521 507.72 53.15 507.732 53.1485L507.736 52.6482C507.732 52.4975 507.759 52.3476 507.818 52.2078C507.876 52.0679 507.963 51.9411 508.074 51.8352C508.311 51.5784 508.632 51.408 508.984 51.3527V51.3527Z" fill="white"/>
<path d="M493.805 72.6379C502.01 72.7694 520.738 72.8106 527.426 72.8538C527.921 72.8566 528.403 73.0111 528.802 73.295C529.2 73.5789 529.496 73.9777 529.645 74.434C531.236 79.2943 534.814 90.2974 536.498 95.4995C536.569 95.7171 536.585 95.9477 536.546 96.1726C536.507 96.3975 536.414 96.6103 536.274 96.7938C536.133 96.9772 535.95 97.1262 535.739 97.2285C535.528 97.3308 535.295 97.3836 535.059 97.3826C527.813 97.3569 508.289 97.2899 500.783 97.1433C500.467 97.1374 500.162 97.0357 499.91 96.8526C499.658 96.6695 499.473 96.4143 499.38 96.1234C497.9 91.5 494.099 79.8505 492.348 74.5287C492.275 74.3092 492.258 74.0761 492.298 73.8489C492.337 73.6217 492.432 73.4068 492.574 73.2221C492.717 73.0373 492.903 72.8879 493.117 72.7863C493.331 72.6848 493.567 72.6339 493.805 72.6379Z" fill="white"/>
<path d="M561.101 43.6479C560.986 43.4586 560.95 43.2334 561.003 43.0195C561.255 41.8431 561.625 40.693 562.107 39.5854C562.107 39.5854 562.182 39.4778 562.284 39.3301C563.661 40.0332 565.109 40.6003 566.604 41.0229C566.598 41.2003 566.595 41.3318 566.595 41.3318C566.704 41.5822 565.853 43.6026 565.414 44.4277C565.336 44.5732 565.236 44.7063 565.117 44.822C564.871 44.9909 564.577 45.0809 564.276 45.0793C563.446 44.8455 562.637 44.5496 561.856 44.1943C561.57 44.0848 561.318 43.9079 561.121 43.6796C561.114 43.669 561.108 43.6577 561.101 43.6479Z" fill="white"/>
<path d="M570.368 31.8694C570.482 31.9932 570.595 32.1267 570.704 32.2708C571.276 32.9839 571.635 33.8355 571.739 34.7322C571.844 35.629 571.691 36.5362 571.297 37.3546C570.956 38.1105 570.46 38.7922 569.84 39.3588C569.388 39.8016 568.878 40.184 568.321 40.4958C567.863 40.7482 567.376 40.9486 566.87 41.0929C565.166 40.6391 563.524 39.9904 561.979 39.1607C561.169 38.4313 560.78 36.6963 560.833 35.7569C560.853 35.0695 560.978 34.3888 561.206 33.7372C561.48 33.0221 561.895 32.3652 562.429 31.8032C563.121 31.0283 564.041 30.4753 565.067 30.2177C566.193 30.0026 567.36 30.1036 568.429 30.5088C569.172 30.8186 569.834 31.2832 570.368 31.8694V31.8694Z" fill="#FCDC4A"/>
<path d="M538.946 49.8532C538.96 49.8463 538.96 49.8454 538.946 49.8532V49.8532Z" fill="white"/>
<path d="M559.779 83.1305C561.535 83.1305 563.291 83.1285 565.047 83.1243L573.314 83.1146C574.003 83.1146 574.693 83.1138 575.382 83.1122C576.205 83.1122 576.207 81.877 575.382 81.877C573.581 81.877 571.78 81.879 569.978 81.8831L561.749 81.8932C561.092 81.8932 560.435 81.8939 559.779 81.8952C558.956 81.8952 558.955 83.1305 559.779 83.1305V83.1305Z" fill="#211715"/>
<path d="M483.618 83.1326C486.776 83.1326 489.934 83.1205 493.093 83.1148C493.592 83.1138 494.092 83.1129 494.592 83.1122C495.415 83.1122 495.416 81.877 494.592 81.877C491.398 81.877 488.203 81.8888 485.009 81.8947C484.545 81.8957 484.081 81.8966 483.618 81.8973C482.795 81.8973 482.793 83.1326 483.618 83.1326V83.1326Z" fill="#211715"/>
<path d="M544.302 49.8369C547.587 50.7657 550.857 51.9372 553.073 54.5892C554.093 55.8093 554.798 57.2718 555.394 58.7202C556.012 60.2216 556.522 61.7636 556.984 63.3157C558.005 66.6117 558.834 69.9605 559.466 73.3463C559.937 76.0341 560.505 79.0101 559.144 81.5558C558.282 83.1679 556.76 84.2253 555.171 85.1147C553.63 85.9644 552.022 86.6958 550.362 87.3022C550.041 87.4223 549.718 87.5377 549.394 87.6484C549.232 87.6953 549.096 87.8004 549.013 87.9419C548.929 88.0833 548.906 88.2503 548.947 88.4081C548.993 88.5653 549.102 88.6985 549.249 88.7792C549.396 88.8599 549.57 88.8815 549.734 88.8394C551.387 88.2766 553.001 87.6086 554.563 86.8398C556.311 85.9753 558.14 84.949 559.383 83.4479C559.954 82.7521 560.405 81.9717 560.719 81.1369C560.974 80.4207 561.133 79.6754 561.19 78.9198C561.275 78.2315 561.298 77.5374 561.258 76.8453C561.196 76.0773 561.074 75.312 560.955 74.5507C560.666 72.713 560.332 70.8793 559.889 69.0691C559.471 67.3629 558.987 65.6721 558.506 63.9807C558.071 62.4554 557.6 60.9388 557.042 59.4513C556.479 57.8248 555.727 56.2653 554.8 54.8028C553.816 53.3422 552.519 52.1021 550.997 51.1661C549.445 50.2596 547.778 49.5503 546.038 49.0558C545.574 48.9122 545.108 48.7769 544.641 48.6441C543.849 48.4202 543.511 49.612 544.301 49.8351L544.302 49.8369Z" fill="#211715"/>
<path d="M546.146 79.1147C547.458 78.5771 548.72 77.9504 550.002 77.3505C550.148 77.2672 550.254 77.1318 550.297 76.9735C550.34 76.8153 550.317 76.647 550.232 76.5054C550.143 76.3671 550.003 76.267 549.84 76.2258C549.677 76.1846 549.504 76.2053 549.357 76.2838C548.074 76.8837 546.813 77.5103 545.5 78.0479C545.427 78.0889 545.364 78.1432 545.313 78.2078C545.262 78.2725 545.225 78.3461 545.204 78.4246C545.183 78.5031 545.178 78.5849 545.189 78.6653C545.2 78.7456 545.228 78.8231 545.271 78.8931C545.36 79.0307 545.5 79.1303 545.663 79.1714C545.825 79.2126 545.998 79.1923 546.146 79.1147V79.1147Z" fill="#211715"/>
<path d="M517.605 62.7103C517.753 61.5982 518.008 60.5024 518.249 59.4069C518.483 58.3145 518.839 57.2502 519.313 56.233C519.836 55.1263 520.5 53.9924 521.45 53.1746C522.421 52.3387 523.663 51.7591 524.86 51.2895C525.243 51.1394 525.634 51.0144 526.019 50.87C526.04 50.8623 526.295 50.7619 526.102 50.836C526.155 50.8154 526.208 50.7946 526.264 50.7745C526.38 50.7315 526.497 50.6904 526.613 50.6487C527.228 50.4532 527.826 50.2132 528.403 49.9309C529.122 49.5449 528.478 48.4779 527.757 48.8642C526.785 49.3851 525.681 49.6522 524.679 50.0367C523.287 50.5294 521.981 51.222 520.803 52.0911C519.75 52.9118 518.982 54.081 518.39 55.2424C517.822 56.3589 517.387 57.534 517.093 58.7452C516.768 60.0534 516.512 61.3768 516.327 62.7103C516.328 62.8738 516.396 63.0304 516.515 63.1461C516.635 63.2618 516.797 63.3271 516.967 63.3279C517.135 63.3239 517.295 63.2576 517.414 63.1426C517.533 63.0276 517.602 62.8728 517.606 62.7103H517.605Z" fill="#211715"/>
<path d="M546.994 67.478L548.944 74.3715C549.16 75.1376 550.395 74.8123 550.177 74.0431L548.227 67.1496C548.01 66.3838 546.776 66.709 546.994 67.478Z" fill="#211715"/>
<path d="M545.724 80.1861C544.815 80.7461 543.687 80.6213 542.672 80.4715C541.415 80.2862 540.131 80.0438 538.857 80.0268C536.259 79.9921 534.554 81.9925 533.142 83.8271C533.058 83.9688 533.034 84.137 533.077 84.2952C533.12 84.4534 533.226 84.5889 533.372 84.6723C533.519 84.7511 533.692 84.7721 533.855 84.7308C534.018 84.6896 534.158 84.5892 534.247 84.4507C534.913 83.5842 535.604 82.667 536.526 82.0349C536.952 81.731 537.431 81.5036 537.941 81.3638C538.491 81.2487 539.059 81.2308 539.616 81.311C540.803 81.4248 541.973 81.6399 543.156 81.7714C544.256 81.8936 545.41 81.8442 546.369 81.2526C547.062 80.8261 546.42 79.7566 545.724 80.1861V80.1861Z" fill="#211715"/>
<path d="M535.849 84.6839L533.893 86.5567C533.774 86.6728 533.708 86.8294 533.709 86.9924C533.71 87.1553 533.777 87.3114 533.896 87.4266C534.016 87.5418 534.177 87.6068 534.346 87.6075C534.515 87.6081 534.677 87.5444 534.797 87.4301L536.753 85.5576C536.873 85.4418 536.941 85.2846 536.941 85.1207C536.941 84.9567 536.874 84.7994 536.754 84.6834C536.634 84.5674 536.471 84.5021 536.301 84.502C536.132 84.5018 535.969 84.5668 535.849 84.6826V84.6839Z" fill="#211715"/>
<path d="M536.029 90.0587C537.015 88.9456 538.096 87.9103 539.174 86.8809C539.292 86.7647 539.358 86.6081 539.357 86.4452C539.357 86.2823 539.289 86.1262 539.17 86.011C539.051 85.8958 538.889 85.8307 538.721 85.8301C538.552 85.8294 538.39 85.8932 538.269 86.0074C537.191 87.0368 536.111 88.0719 535.125 89.1852C535.007 89.3014 534.941 89.458 534.941 89.6209C534.942 89.7838 535.009 89.9399 535.129 90.0551C535.248 90.1703 535.41 90.2354 535.578 90.236C535.747 90.2367 535.909 90.1729 536.029 90.0587V90.0587Z" fill="#211715"/>
<path d="M537.458 92.438C538.184 91.729 538.92 91.0274 539.633 90.3053C540.263 89.6676 540.873 89.0124 541.514 88.3852C541.574 88.3277 541.621 88.2595 541.653 88.1845C541.685 88.1095 541.702 88.0291 541.701 87.9479C541.701 87.8667 541.685 87.7863 541.653 87.7113C541.62 87.6363 541.573 87.5682 541.514 87.5108C541.454 87.4535 541.384 87.408 541.306 87.377C541.228 87.3459 541.145 87.33 541.061 87.3301C540.977 87.3301 540.893 87.3462 540.816 87.3773C540.738 87.4084 540.668 87.454 540.608 87.5115C539.967 88.1389 539.356 88.7939 538.727 89.4318C538.014 90.154 537.279 90.8555 536.552 91.5645C536.434 91.6807 536.368 91.8373 536.369 92.0002C536.369 92.1631 536.437 92.3192 536.556 92.4344C536.675 92.5496 536.837 92.6147 537.006 92.6153C537.174 92.616 537.336 92.5522 537.457 92.438H537.458Z" fill="#211715"/>
<path d="M543.831 89.7402C545.137 89.5936 546.415 89.2698 547.627 88.7782C548.137 88.58 548.616 88.3138 549.05 87.9873C549.138 87.9189 549.225 87.8491 549.312 87.7799C549.355 87.7462 549.397 87.7122 549.441 87.6788C549.523 87.6155 549.369 87.7277 549.43 87.687C549.685 87.5195 549.951 87.3689 550.227 87.2361C550.374 87.1534 550.48 87.0179 550.523 86.8595C550.566 86.701 550.542 86.5324 550.457 86.391C550.371 86.2495 550.231 86.1467 550.067 86.1052C549.903 86.0636 549.728 86.0867 549.582 86.1694C549.143 86.3852 548.73 86.6475 548.351 86.9515C548.229 87.0547 548.102 87.1517 547.97 87.242C547.72 87.3874 547.459 87.5147 547.189 87.6229C546.121 88.0752 544.99 88.3724 543.832 88.5049C543.664 88.51 543.504 88.5767 543.386 88.6914C543.267 88.8062 543.198 88.9603 543.192 89.1225C543.193 89.2861 543.261 89.4427 543.381 89.5583C543.5 89.6739 543.663 89.7393 543.832 89.7402H543.831Z" fill="#211715"/>
<path d="M545.607 80.7904C546.638 81.5328 547.388 82.7231 547.985 83.8184C548.693 85.1211 549.231 86.5044 549.583 87.936C549.774 88.7081 551.008 88.3817 550.817 87.6076C550.425 86.0392 549.828 84.5257 549.038 83.104C548.335 81.8321 547.46 80.594 546.252 79.7236C546.105 79.642 545.931 79.6195 545.767 79.661C545.604 79.7024 545.463 79.8046 545.377 79.9452C545.295 80.0875 545.274 80.2548 545.316 80.4122C545.359 80.5696 545.463 80.705 545.606 80.7904H545.607Z" fill="#211715"/>
<path d="M539.732 88.5964C539.47 89.1006 539.199 89.6001 538.943 90.106C538.74 90.4714 538.559 90.8482 538.402 91.2343C538.3 91.5612 538.297 91.9094 538.393 92.2379C538.444 92.4369 538.539 92.6227 538.672 92.7824C538.805 92.9422 538.973 93.072 539.163 93.1628C539.353 93.2537 539.562 93.3034 539.774 93.3085C539.986 93.3136 540.197 93.274 540.391 93.1925C541.16 92.8975 541.666 92.1813 542.189 91.5946C542.795 90.8679 543.466 90.1947 544.195 89.5828C544.313 89.4664 544.38 89.3096 544.38 89.1461C544.38 88.9827 544.313 88.8258 544.195 88.7094C544.073 88.597 543.911 88.5342 543.742 88.5342C543.574 88.5342 543.412 88.597 543.29 88.7094C542.112 89.6359 541.252 90.8601 540.191 91.8982C540.174 91.9144 540.083 91.9819 540.155 91.9317C540.231 91.8779 540.071 91.979 540.053 91.9891C540.024 92.0053 539.902 92.0583 539.995 92.0231C539.958 92.0372 539.805 92.0794 539.84 92.0745C539.813 92.085 539.783 92.0879 539.754 92.0829C539.726 92.078 539.699 92.0653 539.677 92.0465C539.739 92.0815 539.642 91.9875 539.699 92.0722C539.678 92.0415 539.66 92.0096 539.643 91.9767C539.672 92.0336 539.655 92.0161 539.643 91.9669C539.629 91.9111 539.612 91.8568 539.602 91.8002C539.623 91.9173 539.606 91.7562 539.604 91.7168C539.603 91.6911 539.609 91.6653 539.607 91.6396C539.607 91.653 539.575 91.7425 539.6 91.6852C539.609 91.6661 539.608 91.6414 539.615 91.6213C539.647 91.5307 539.586 91.6767 539.635 91.5758C539.777 91.285 539.916 90.9934 540.062 90.7044C540.313 90.2072 540.58 89.7177 540.836 89.2233C540.918 89.081 540.939 88.9138 540.897 88.7564C540.854 88.599 540.75 88.4636 540.607 88.3782C540.46 88.2971 540.286 88.2749 540.122 88.3163C539.959 88.3577 539.819 88.4595 539.732 88.5998V88.5964Z" fill="#211715"/>
<path d="M535.991 97.8048C538.077 96.9633 540.146 96.0806 542.215 95.2002C544.604 94.1852 546.991 93.1633 549.374 92.1346C550.173 91.79 550.971 91.4464 551.765 91.0941C551.911 91.0106 552.016 90.8752 552.059 90.7171C552.102 90.559 552.079 90.3909 551.995 90.2492C551.907 90.1106 551.766 90.0102 551.603 89.9689C551.44 89.9276 551.267 89.9487 551.12 90.0276C546.95 91.877 542.74 93.6494 538.533 95.4176C537.969 95.6546 537.405 95.8904 536.84 96.1251C536.605 96.2229 536.368 96.3203 536.132 96.4174C536.079 96.4393 535.77 96.5654 535.929 96.5006L535.651 96.6135C535.49 96.6616 535.355 96.7669 535.272 96.908C535.189 97.0492 535.165 97.2155 535.204 97.3732C535.25 97.5307 535.358 97.6643 535.506 97.7451C535.653 97.8258 535.827 97.8473 535.991 97.8048V97.8048Z" fill="#211715"/>
<path d="M493.806 73.2557C497.638 73.3167 501.47 73.3406 505.302 73.3643C509.779 73.3924 514.256 73.4146 518.732 73.4307C520.615 73.4387 522.498 73.4469 524.381 73.4551C525.117 73.4587 525.852 73.4625 526.588 73.4665C527.405 73.4711 528.246 73.4235 528.786 74.1412C529.004 74.4957 529.162 74.8816 529.253 75.2844C529.379 75.6685 529.504 76.0528 529.63 76.4371C529.929 77.3543 530.229 78.2715 530.528 79.1887C531.222 81.3204 531.916 83.4522 532.61 85.5841C533.293 87.6848 533.975 89.7858 534.657 91.887C534.945 92.7729 535.233 93.6591 535.52 94.5454C535.727 95.1836 536.333 96.291 535.433 96.6884C535.13 96.8222 534.741 96.764 534.413 96.763L533.354 96.7592L530.91 96.7501C528.962 96.7429 527.015 96.735 525.067 96.7265C520.637 96.7067 516.206 96.681 511.775 96.6493C508.18 96.6235 504.585 96.5963 500.991 96.5286C500.591 96.5211 500.211 96.4292 500.027 96.0422C499.899 95.7212 499.792 95.3928 499.707 95.0588C499.45 94.2605 499.193 93.4627 498.934 92.6654C498.29 90.6725 497.643 88.6801 496.993 86.6882C495.719 82.773 494.44 78.8594 493.156 74.9475C493.044 74.6063 492.836 74.2115 492.95 73.8561C493.005 73.6796 493.119 73.5255 493.273 73.4171C493.428 73.3087 493.615 73.252 493.806 73.2557C494.628 73.2451 494.63 72.0098 493.806 72.0204C493.486 72.0213 493.17 72.0905 492.881 72.2232C492.592 72.3558 492.338 72.5486 492.135 72.7876C491.932 73.0266 491.787 73.306 491.709 73.6056C491.632 73.9053 491.624 74.2178 491.686 74.5208C491.791 74.9233 491.918 75.3202 492.065 75.7101C492.205 76.1352 492.345 76.5604 492.484 76.9858C493.151 79.0193 493.816 81.0535 494.48 83.0883C495.796 87.1193 497.106 91.1519 498.41 95.186C498.703 96.0988 498.903 97.1066 499.892 97.5564C500.64 97.8964 501.635 97.7772 502.448 97.7896C504.272 97.8172 506.096 97.8385 507.92 97.8534C512.427 97.8956 516.933 97.9261 521.44 97.9448C525.431 97.9648 529.422 97.9815 533.414 97.9947L534.494 97.9986C534.95 98.0359 535.41 97.9867 535.847 97.8539C536.15 97.7376 536.422 97.5568 536.642 97.3252C536.863 97.0935 537.026 96.8168 537.121 96.5157C537.294 95.9629 537.152 95.4467 536.98 94.917C536.364 93.0154 535.747 91.1141 535.129 89.2133C533.74 84.9356 532.348 80.6586 530.953 76.3823C530.682 75.5549 530.478 74.6526 530.096 73.8664C529.555 72.7521 528.405 72.2415 527.183 72.234C525.59 72.2239 523.997 72.2159 522.404 72.2101C517.98 72.1908 513.557 72.1709 509.133 72.1504C504.819 72.1275 500.504 72.103 496.19 72.0521C495.395 72.0428 494.6 72.032 493.804 72.0196C492.982 72.007 492.982 73.2423 493.806 73.2557Z" fill="#211715"/>
<path d="M525.765 51.4179C525.919 52.0368 526.2 52.6192 526.594 53.1299C526.987 53.6406 527.483 54.069 528.052 54.3893C529.317 55.1376 530.856 55.3597 532.316 55.3196C535.096 55.2424 537.781 54.3159 540.124 52.8953C541.441 52.0839 542.675 51.152 543.808 50.1126C544.41 49.5678 543.504 48.6956 542.903 49.2391C541.115 50.8574 539.081 52.2944 536.787 53.165C535.642 53.6095 534.44 53.9002 533.213 54.029C531.924 54.153 530.566 54.1296 529.351 53.6478C528.205 53.1933 527.255 52.2826 526.999 51.09C526.831 50.312 525.598 50.6414 525.765 51.4184V51.4179Z" fill="#211715"/>
<path d="M569.915 32.3058C570.512 32.9451 570.905 33.7366 571.048 34.586C571.191 35.4353 571.078 36.3065 570.722 37.0954C570.34 37.9056 569.783 38.628 569.089 39.2145C568.396 39.8011 567.581 40.2385 566.699 40.4976H567.039C565.669 40.1473 564.342 39.6584 563.079 39.0392C562.781 38.9338 562.507 38.7728 562.273 38.5654C562.099 38.3432 561.959 38.0977 561.858 37.8366C561.619 37.2594 561.487 36.6464 561.467 36.0253C561.423 34.6362 561.928 33.283 562.88 32.2402C563.789 31.2839 564.942 30.6806 566.317 30.7128C566.616 30.7187 566.914 30.751 567.207 30.8093C567.372 30.8397 567.536 30.8749 567.699 30.9189C567.807 30.9483 567.915 30.9811 568.022 31.0175C568.101 31.0444 568.18 31.0734 568.258 31.1045C568.143 31.0573 568.118 31.0474 568.184 31.0749C568.835 31.3789 569.422 31.7964 569.916 32.3063C570.471 32.8957 571.374 32.0201 570.821 31.4329C569.091 29.5969 566.199 28.9108 563.837 29.9917C562.929 30.4323 562.144 31.0757 561.545 31.8686C560.675 33.016 560.201 34.3989 560.19 35.8212C560.147 36.9904 560.473 38.1447 561.124 39.131C561.301 39.3984 561.539 39.6228 561.82 39.7868C562.111 39.9481 562.41 40.0956 562.712 40.2377C563.358 40.5388 564.022 40.8072 564.693 41.0527C565.247 41.2555 565.808 41.4441 566.377 41.6029C566.64 41.7019 566.928 41.715 567.199 41.6402C568.703 41.1731 570.022 40.2717 570.978 39.0577C571.916 37.941 572.422 36.5431 572.407 35.105C572.334 33.7407 571.773 32.4431 570.82 31.4336C570.277 30.8325 569.376 31.7093 569.915 32.3058Z" fill="#211715"/>
<path d="M561.586 42.2333C562.87 42.7749 564.183 43.2494 565.52 43.6549C565.684 43.697 565.858 43.6753 566.005 43.5947C566.152 43.514 566.26 43.3807 566.307 43.2235C566.348 43.0657 566.325 42.8985 566.242 42.7569C566.158 42.6153 566.022 42.5103 565.86 42.4638C565.238 42.2752 564.622 42.0683 564.011 41.8498C563.685 41.7335 563.361 41.6134 563.038 41.4895C562.882 41.4298 562.727 41.3689 562.572 41.3068L562.459 41.2615C562.519 41.2859 562.515 41.284 562.446 41.2558C562.374 41.2262 562.303 41.1966 562.233 41.1665C562.085 41.0881 561.912 41.0674 561.75 41.1086C561.587 41.1499 561.447 41.2499 561.358 41.3881C561.274 41.5299 561.251 41.6978 561.294 41.8557C561.337 42.0137 561.442 42.1491 561.587 42.233L561.586 42.2333Z" fill="#211715"/>
<path d="M561.556 39.2734C561.146 39.9791 560.928 40.842 560.7 41.6138C560.571 42.0215 560.467 42.436 560.387 42.8553C560.316 43.2081 560.368 43.5738 560.537 43.8943C560.706 44.2148 560.981 44.4716 561.318 44.6238C561.795 44.8595 562.288 45.0667 562.792 45.244C563.215 45.4288 563.655 45.5734 564.107 45.6756C564.421 45.7207 564.742 45.6834 565.036 45.5677C565.33 45.4521 565.587 45.2622 565.779 45.0181C566.024 44.6623 566.225 44.2806 566.38 43.8806C566.607 43.3736 566.826 42.8617 567.013 42.3393C567.135 41.9967 567.334 41.5327 567.212 41.1675C566.96 40.4143 565.725 40.7365 565.979 41.4962C565.986 41.5181 565.966 41.2967 565.963 41.4447C565.964 41.3508 565.98 41.3418 565.95 41.4668C565.915 41.6133 565.868 41.7569 565.819 41.8995C565.692 42.2677 565.546 42.6298 565.392 42.9886C565.275 43.2642 565.115 43.617 564.954 43.9372C564.883 44.0875 564.795 44.2302 564.692 44.3628C564.719 44.3332 564.818 44.2982 564.708 44.3428C564.668 44.3587 564.631 44.3847 564.592 44.4025C564.422 44.4797 564.518 44.4321 564.536 44.4259C564.53 44.4279 564.357 44.4951 564.41 44.4694C564.343 44.5023 564.321 44.4645 564.402 44.4774C564.37 44.4717 564.338 44.4644 564.306 44.4552C564.221 44.4315 564.136 44.4086 564.051 44.3824C563.829 44.3139 563.61 44.2349 563.393 44.1539C562.987 44.0023 562.647 43.8651 562.259 43.6978C562.069 43.6299 561.89 43.5344 561.729 43.4147C561.615 43.3157 561.611 43.2513 561.638 43.0874C561.71 42.7126 561.805 42.3422 561.922 41.9782C562.054 41.5287 562.199 41.0826 562.357 40.64C562.418 40.4696 562.481 40.3 562.549 40.1322C562.563 40.0959 562.579 40.0602 562.593 40.0239C562.572 40.0753 562.546 40.1212 562.586 40.0424C562.61 39.994 562.632 39.9454 562.659 39.8983C563.062 39.2034 561.958 38.5804 561.555 39.2747L561.556 39.2734Z" fill="#211715"/>
<path d="M573.673 28.0686C573.206 28.4117 572.738 28.7526 572.268 29.0913C572.128 29.1767 572.024 29.3076 571.975 29.4603C571.93 29.6211 571.954 29.7921 572.039 29.9365C572.124 30.0748 572.261 30.1763 572.421 30.2195C572.503 30.2424 572.59 30.2487 572.674 30.238C572.759 30.2273 572.841 30.1998 572.914 30.1573C573.384 29.8189 573.853 29.4779 574.319 29.1343C574.458 29.0476 574.561 28.9172 574.612 28.7652C574.656 28.6046 574.633 28.4336 574.548 28.2894C574.463 28.1509 574.326 28.0495 574.165 28.0063C574.083 27.9832 573.997 27.9767 573.912 27.9875C573.827 27.9982 573.746 28.0258 573.673 28.0686V28.0686Z" fill="#211715"/>
<path d="M570.548 27.6307C570.624 27.4382 570.704 27.247 570.786 27.0571L570.722 27.2045C570.836 26.9436 570.957 26.6854 571.085 26.4301C571.167 26.2848 571.19 26.1149 571.149 25.954C571.104 25.7994 570.999 25.6674 570.856 25.585C570.782 25.5437 570.701 25.5169 570.616 25.5062C570.532 25.4956 570.446 25.5012 570.363 25.5227C570.202 25.5647 570.065 25.6664 569.981 25.8058C569.737 26.2948 569.516 26.7946 569.315 27.3015C569.292 27.3811 569.286 27.4641 569.297 27.5458C569.309 27.6276 569.336 27.7064 569.379 27.7776C569.465 27.9191 569.605 28.0219 569.769 28.0634C569.933 28.105 570.108 28.0819 570.254 27.9992L570.384 27.9025C570.462 27.827 570.519 27.733 570.548 27.6299V27.6307Z" fill="#211715"/>
<path d="M567.267 27.0364C567.187 26.4679 567.093 25.9002 566.963 25.3402C566.917 25.1829 566.809 25.0495 566.661 24.9688C566.514 24.8881 566.34 24.8666 566.177 24.9089C566.015 24.9555 565.878 25.0605 565.795 25.2021C565.712 25.3436 565.689 25.5108 565.73 25.6686C565.86 26.2286 565.953 26.7963 566.033 27.3648C566.078 27.52 566.183 27.6524 566.327 27.7338C566.476 27.8164 566.653 27.8388 566.82 27.7961C566.98 27.7527 567.117 27.6514 567.202 27.513L567.266 27.3656C567.297 27.2581 567.297 27.1447 567.266 27.0372L567.267 27.0364Z" fill="#211715"/>
<path d="M568.838 37.3916C568.794 36.7764 568.531 36.1946 568.095 35.7445C567.695 35.296 567.151 34.7977 566.528 34.6945C565.21 34.476 563.937 35.6387 564.37 36.9366C564.463 37.2146 564.628 37.4652 564.849 37.6646C565.07 37.864 565.34 38.0058 565.633 38.0764C565.931 38.1662 566.249 38.171 566.549 38.0903C566.871 37.9756 567.157 37.783 567.379 37.5311C567.598 37.299 567.753 37.0178 567.83 36.7129C567.908 36.4081 567.905 36.0894 567.822 35.786C567.645 35.2363 567.295 34.7539 566.82 34.4065C566.532 34.1654 566.198 33.9816 565.837 33.8657C565.476 33.7498 565.094 33.7041 564.715 33.7313C564.34 33.7796 563.979 33.8997 563.654 34.0846C563.328 34.2694 563.043 34.5153 562.817 34.8078C562.702 34.926 562.638 35.0822 562.638 35.2445C562.638 35.4068 562.702 35.563 562.817 35.6812C562.938 35.7961 563.1 35.8605 563.27 35.8605C563.439 35.8605 563.601 35.7961 563.722 35.6812C564.182 35.115 564.786 34.7517 565.534 35.0661C565.876 35.2092 566.172 35.4382 566.391 35.7293C566.374 35.7067 566.478 35.8652 566.493 35.892C566.517 35.9312 566.538 35.9716 566.558 36.0129C566.551 35.9988 566.534 35.9545 566.558 36.0201C566.576 36.0716 566.614 36.226 566.614 36.2245C566.611 36.1905 566.59 36.4486 566.609 36.3686C566.598 36.4312 566.576 36.4916 566.544 36.5469C566.518 36.5941 566.488 36.6386 566.453 36.68C566.402 36.7354 566.347 36.7874 566.288 36.8357C566.284 36.8385 566.062 36.9507 566.151 36.918C566.278 36.8715 566.043 36.9052 566.112 36.915C566.031 36.9011 565.952 36.8817 565.875 36.8568C565.768 36.8257 565.955 36.9003 565.853 36.8493C565.812 36.8297 565.773 36.8078 565.735 36.7837C565.75 36.7932 565.632 36.6743 565.673 36.7304C565.61 36.6458 565.571 36.5462 565.562 36.4422C565.556 36.3466 565.578 36.2513 565.626 36.1673C565.659 36.1303 565.696 36.0992 565.73 36.0644C565.739 36.0554 565.802 36.0093 565.742 36.0528C565.674 36.102 565.77 36.0369 565.788 36.0271L565.889 35.972C565.975 35.9236 565.807 35.9978 565.904 35.962C565.934 35.9512 565.965 35.9411 565.995 35.9321C566.037 35.9203 566.08 35.9095 566.122 35.9015C566.019 35.9211 566.212 35.8989 566.22 35.8987C566.364 35.9098 566.498 35.9699 566.599 36.0683C566.783 36.2112 566.954 36.367 567.113 36.5346C567.246 36.6692 567.358 36.8214 567.446 36.9865C567.513 37.1125 567.552 37.2509 567.56 37.3926C567.563 37.5554 567.631 37.7106 567.751 37.8257C567.87 37.9408 568.031 38.007 568.199 38.0102C568.368 38.0087 568.53 37.9431 568.65 37.8276C568.769 37.7121 568.837 37.5559 568.839 37.3926L568.838 37.3916Z" fill="#211715"/>
<path d="M516.191 60.3367C516.822 59.1372 517.136 57.8055 517.106 56.4602C517.073 55.2249 516.791 53.7495 515.978 52.7577C514.982 51.5437 513.441 51.9828 512.202 52.5338C511.011 53.0634 509.734 54.0997 510.082 55.5237C510.161 55.861 510.344 56.1674 510.607 56.4025C510.87 56.6377 511.2 56.7907 511.554 56.8416C511.963 56.8595 512.371 56.7917 512.751 56.6429L514.021 56.2463C514.801 56.0026 514.467 54.8095 513.681 55.055C513.128 55.228 512.577 55.4225 512.016 55.5723C511.699 55.6567 511.461 55.605 511.339 55.2802C511.016 54.4194 512.352 53.8154 512.954 53.5539C513.358 53.3478 513.803 53.2245 514.259 53.1918C514.71 53.1903 514.976 53.4579 515.178 53.8213C515.616 54.6749 515.839 55.6162 515.83 56.5688C515.846 57.6593 515.592 58.7377 515.087 59.7134C514.717 60.4213 515.82 61.0475 516.191 60.3367H516.191Z" fill="#211715"/>
<path d="M515.057 60.531C515.441 61.4064 515.761 62.307 516.015 63.226C516.06 63.3839 516.168 63.5181 516.315 63.5991C516.463 63.68 516.638 63.701 516.801 63.6574C516.965 63.6139 517.104 63.5093 517.188 63.3669C517.271 63.2244 517.293 63.0556 517.248 62.8976C516.994 61.9786 516.674 61.078 516.289 60.2026C516.239 60.0501 516.135 59.9194 515.996 59.8335C515.846 59.7508 515.669 59.7284 515.503 59.7713C515.206 59.8639 514.919 60.2113 515.056 60.531H515.057Z" fill="#211715"/>
<path d="M517.165 62.3066C514.48 63.3715 511.632 64.0411 508.877 64.9094C508.715 64.9553 508.578 65.0602 508.495 65.202C508.412 65.3438 508.389 65.5113 508.431 65.6691C509.118 67.9037 509.876 70.11 510.754 72.2831C510.804 72.4379 510.912 72.5686 511.058 72.6486C511.204 72.7286 511.376 72.7517 511.539 72.7134C511.702 72.6689 511.84 72.5642 511.924 72.422C512.007 72.2798 512.03 72.1116 511.986 71.9537C511.106 69.7816 510.349 67.5754 509.662 65.3397L509.216 66.0994C511.972 65.2314 514.82 64.5615 517.504 63.4968C517.664 63.4488 517.8 63.3435 517.883 63.2023C517.966 63.0611 517.99 62.8947 517.951 62.7369C517.904 62.5795 517.796 62.4459 517.649 62.3652C517.501 62.2845 517.327 62.263 517.164 62.3056L517.165 62.3066Z" fill="#211715"/>
<path d="M510.042 50.4602C509.567 49.3827 509.078 48.3095 508.619 47.2258C508.453 46.8321 508.268 46.3508 508.47 45.9334C508.592 45.6797 508.92 45.7255 509.143 45.8305C509.465 45.9821 509.658 46.3369 509.836 46.6193C510.04 46.9433 510.225 47.2776 510.403 47.6155C510.807 48.3831 511.172 49.1709 511.511 49.9677C511.866 50.8046 512.201 51.652 512.483 52.5155C512.73 53.2708 513.965 52.9483 513.716 52.1871C513.094 50.2735 512.293 48.4188 511.321 46.6463C510.857 45.806 510.301 44.7735 509.243 44.5676C508.951 44.4932 508.644 44.4944 508.354 44.5712C508.063 44.6481 507.798 44.7978 507.587 45.0051C507.396 45.2372 507.258 45.5048 507.18 45.7909C507.102 46.0771 507.086 46.3758 507.134 46.6682C507.229 47.4261 507.643 48.141 507.948 48.8361C508.278 49.5858 508.608 50.3353 508.938 51.0846C509.024 51.2253 509.164 51.3275 509.328 51.3689C509.492 51.4104 509.666 51.3879 509.813 51.3062C509.956 51.2206 510.06 51.0851 510.102 50.9278C510.145 50.7705 510.124 50.6034 510.042 50.461L510.042 50.4602Z" fill="#211715"/>
<path d="M508.23 58.3817C508.955 58.9332 510.048 59.826 511.014 59.3416C511.212 59.2294 511.386 59.0803 511.524 58.9031C511.663 58.7259 511.763 58.5239 511.821 58.3089C511.878 58.094 511.891 57.8701 511.858 57.6504C511.825 57.4307 511.748 57.2193 511.63 57.0285C511.248 56.5584 510.805 56.1372 510.312 55.775C509.661 55.238 508.896 54.8446 508.072 54.6223C507.348 54.4102 506.347 54.4038 505.822 55.0145C505.273 55.654 504.82 56.5741 504.894 57.4262C504.97 58.3158 505.442 59.0107 506.052 59.645C506.647 60.2823 507.28 60.8859 507.947 61.4527C508.308 61.7084 508.617 62.0268 508.857 62.3918C508.995 62.6513 509.112 62.9203 509.208 63.1968C509.434 63.7843 509.65 64.3806 509.821 64.9866C510.037 65.7528 511.271 65.4275 511.054 64.6583C510.797 63.7069 510.452 62.7797 510.024 61.8879C509.716 61.2702 509.16 60.8394 508.635 60.3999C508.095 59.9341 507.581 59.4395 507.097 58.9185C506.669 58.4702 506.261 58.0744 506.173 57.4259C506.157 57.1139 506.217 56.8027 506.35 56.518C506.443 56.247 506.599 56.0004 506.806 55.7974C506.746 55.8434 506.898 55.7567 506.844 55.7794C506.837 55.7824 507.022 55.7356 506.995 55.7397C507.134 55.7221 507.275 55.7221 507.415 55.7397C507.709 55.7945 507.998 55.8781 508.275 55.9894C508.76 56.177 509.204 56.4508 509.584 56.7964C509.828 57.0023 510.07 57.2108 510.3 57.4308C510.4 57.5186 510.493 57.6142 510.577 57.7167C510.512 57.6292 510.591 57.7682 510.593 57.8634C510.596 58.0556 510.521 58.2479 510.345 58.2332C510.131 58.1679 509.931 58.0643 509.756 57.928C509.541 57.7994 509.333 57.659 509.134 57.5075C509.012 57.3963 508.85 57.3345 508.682 57.3345C508.514 57.3345 508.352 57.3963 508.23 57.5075C508.111 57.6239 508.044 57.7808 508.044 57.9443C508.044 58.1078 508.111 58.2648 508.23 58.3812V58.3817Z" fill="#211715"/>
<path d="M507.586 54.59C507.691 54.7153 507.599 54.5982 507.579 54.5642C507.57 54.5491 507.501 54.4006 507.548 54.5182C507.527 54.4637 507.508 54.4081 507.493 54.3517C507.489 54.3398 507.463 54.1623 507.473 54.2757C507.467 54.2134 507.466 54.1508 507.471 54.0884C507.462 54.1893 507.488 54.0331 507.495 54.0112C507.499 53.9945 507.541 53.8521 507.514 53.9402C507.487 54.0217 507.543 53.8913 507.551 53.873C507.562 53.8553 507.573 53.8381 507.585 53.8215C507.528 53.8893 507.516 53.9064 507.547 53.873C507.574 53.8583 507.644 53.7569 507.582 53.837C507.527 53.9082 507.575 53.837 507.613 53.8264C507.737 53.7899 507.487 53.8635 507.607 53.8264C507.693 53.8007 507.784 53.7809 507.869 53.7513C507.801 53.7559 507.791 53.7566 507.841 53.7533C507.871 53.7507 507.901 53.7495 507.931 53.7495C507.991 53.7495 508.051 53.7518 508.111 53.7554C508.327 53.7682 508.542 53.8048 508.75 53.8642C508.985 53.9221 509.216 53.9849 509.445 54.0621C509.581 54.108 509.405 54.0364 509.521 54.0938C509.576 54.1211 509.631 54.1473 509.684 54.1779C509.688 54.1803 509.848 54.284 509.757 54.2163C509.805 54.2528 509.85 54.2926 509.892 54.3354C509.911 54.3545 510.01 54.4827 509.943 54.3869C509.976 54.4345 510.004 54.4852 510.036 54.5339C510.095 54.626 510.033 54.5104 510.055 54.5702C510.077 54.6334 510.096 54.6979 510.112 54.7632C510.158 54.9204 510.266 55.0538 510.413 55.1345C510.561 55.2153 510.735 55.2369 510.898 55.1947C511.06 55.1481 511.196 55.043 511.28 54.9014C511.363 54.7598 511.386 54.5926 511.345 54.4348C511.249 54.0765 511.061 53.7474 510.799 53.4776C510.536 53.2077 510.208 53.0059 509.844 52.8907C509.22 52.6356 508.548 52.5073 507.87 52.5139C507.282 52.5456 506.657 52.8063 506.395 53.3439C506.229 53.6866 506.167 54.068 506.218 54.4433C506.269 54.8186 506.43 55.172 506.682 55.4619C506.802 55.5773 506.964 55.6421 507.134 55.6421C507.303 55.6421 507.466 55.5773 507.586 55.4619C507.701 55.3439 507.766 55.1876 507.766 55.0252C507.766 54.8627 507.701 54.7065 507.586 54.5884L507.586 54.59Z" fill="#211715"/>
<path d="M508.376 52.6491C508.379 52.6082 508.379 52.5671 508.376 52.5261C508.368 52.5866 508.41 52.4373 508.39 52.4836C508.379 52.5094 508.441 52.3892 508.452 52.3701C508.454 52.3665 508.514 52.2821 508.479 52.3251C508.539 52.2561 508.605 52.1919 508.676 52.1334C508.72 52.094 508.725 52.102 508.676 52.1334C508.716 52.1076 508.756 52.0819 508.798 52.06C508.815 52.0505 508.934 51.9962 508.838 52.0343C508.879 52.0183 508.921 52.0055 508.963 51.9936C509.019 51.9776 509.077 51.9644 509.135 51.9543C509.251 51.9342 509.068 51.9594 509.188 51.9476C509.423 51.9263 509.66 51.9239 509.896 51.9404C509.942 51.9435 509.988 51.9468 510.033 51.9509C510.049 51.9509 510.218 51.972 510.136 51.961C510.065 51.9514 510.206 51.9723 510.219 51.9741C510.279 51.9836 510.339 51.9929 510.4 52.0034C510.584 52.0346 510.767 52.0785 510.945 52.1349C511 52.1585 511.054 52.1856 511.105 52.2163C511.123 52.2265 511.24 52.3128 511.166 52.251C511.199 52.2783 511.228 52.3089 511.26 52.3375L511.304 52.3846C511.281 52.3521 511.282 52.3532 511.307 52.3879C511.333 52.424 511.357 52.4613 511.379 52.4999C511.391 52.5212 511.439 52.6344 511.413 52.5634C511.428 52.6056 511.44 52.6486 511.451 52.6921C511.43 52.6077 511.455 52.7775 511.455 52.7914C511.455 52.9552 511.522 53.1123 511.642 53.2282C511.762 53.344 511.925 53.4091 512.095 53.4091C512.264 53.4091 512.427 53.344 512.547 53.2282C512.667 53.1123 512.734 52.9552 512.734 52.7914C512.728 52.4598 512.635 52.1351 512.462 51.848C512.29 51.561 512.045 51.321 511.751 51.1508C511.176 50.8665 510.542 50.7144 509.897 50.7064C509.27 50.6302 508.633 50.7462 508.078 51.0381C507.785 51.203 507.54 51.438 507.369 51.7206C507.197 52.0032 507.103 52.3238 507.097 52.6514C507.097 52.8152 507.165 52.9723 507.284 53.0882C507.404 53.204 507.567 53.2691 507.737 53.2691C507.906 53.2691 508.069 53.204 508.189 53.0882C508.309 52.9723 508.376 52.8152 508.376 52.6514L508.376 52.6491Z" fill="#211715"/>
<path d="M542.843 22.8897C544.304 24.2307 545.368 26.0901 545.973 27.9338C546.286 28.8637 546.464 29.8312 546.5 30.8084C546.523 31.5233 546.529 32.2385 546.539 32.9537C546.528 34.7242 546.635 36.4935 546.859 38.2507C547.193 40.3623 547.697 42.4455 548.366 44.4815C548.884 46.1123 549.462 48.6455 547.564 49.6489C546.842 50.0308 547.486 51.0978 548.21 50.7156C550.169 49.68 550.34 47.403 549.962 45.5006C549.776 44.5675 549.431 43.6701 549.173 42.7547C548.853 41.6177 548.56 40.473 548.331 39.3152C547.99 37.4262 547.821 35.512 547.825 33.5945C547.798 31.8131 547.866 30.0137 547.404 28.2735C546.799 25.9905 545.528 23.6509 543.746 22.0157C543.149 21.468 542.244 22.3402 542.842 22.8891L542.843 22.8897Z" fill="#211715"/>
<path d="M538.687 47.0611C539.566 46.2955 540.351 45.4354 541.027 44.4974C541.482 43.8921 541.879 43.2476 542.212 42.5721C542.292 42.4297 542.314 42.2627 542.271 42.1056C542.228 41.9485 542.125 41.8131 541.982 41.7272C541.835 41.6458 541.661 41.6234 541.498 41.6649C541.334 41.7063 541.194 41.8083 541.107 41.9488C540.785 42.6025 540.403 43.2271 539.965 43.8149C539.336 44.685 538.603 45.4813 537.783 46.1877C537.664 46.3038 537.598 46.4604 537.599 46.6234C537.6 46.7863 537.667 46.9424 537.786 47.0576C537.906 47.1728 538.067 47.2378 538.236 47.2385C538.405 47.2391 538.567 47.1754 538.687 47.0611V47.0611Z" fill="#211715"/>
<path d="M535.622 47.3537C532.893 48.6499 529.637 49.3332 526.756 48.0583C525.406 47.4998 524.24 46.5936 523.387 45.4387C522.604 44.238 522.081 42.897 521.848 41.4961C521.466 39.5528 521.309 37.5668 520.988 35.6127C520.942 35.4554 520.834 35.322 520.687 35.2413C520.539 35.1605 520.365 35.139 520.202 35.1814C520.04 35.2283 519.904 35.3334 519.821 35.4748C519.738 35.6163 519.714 35.7833 519.755 35.9411C520.059 37.794 520.23 39.6694 520.557 41.5187C520.793 43.0698 521.343 44.5607 522.177 45.9058C523.946 48.5962 527.33 50.1073 530.586 49.9645C532.592 49.8767 534.477 49.2709 536.268 48.4204C536.413 48.3366 536.519 48.2012 536.561 48.0432C536.604 47.8852 536.581 47.7173 536.497 47.5755C536.409 47.4366 536.269 47.3359 536.106 47.2946C535.943 47.2533 535.77 47.2745 535.622 47.3539V47.3537Z" fill="#211715"/>
<path d="M542.987 36.4268C543.156 36.308 543.353 36.231 543.561 36.2024C543.768 36.1738 543.979 36.1946 544.176 36.2629C544.318 36.3046 544.448 36.3765 544.556 36.4734C544.577 36.4909 544.693 36.6206 544.612 36.5203C544.652 36.5715 544.688 36.6258 544.719 36.6826C545.076 37.3201 544.928 38.2811 544.709 38.9556C544.472 39.6921 544.027 40.3505 543.425 40.8572C542.922 41.2648 541.994 41.6148 541.315 41.3351C541.167 41.2577 540.994 41.2376 540.832 41.2787C540.669 41.3199 540.529 41.4193 540.44 41.5566C540.355 41.6983 540.332 41.8664 540.375 42.0245C540.418 42.1826 540.524 42.3181 540.669 42.4015C541.131 42.5735 541.625 42.6494 542.119 42.6242C542.613 42.599 543.096 42.4733 543.536 42.2553C544.361 41.8855 545.018 41.1253 545.447 40.369C545.889 39.6081 546.142 38.7588 546.187 37.8876C546.225 37.0954 546.08 36.2086 545.482 35.6213C545.065 35.243 544.528 35.0115 543.958 34.9641C543.388 34.9168 542.818 35.0564 542.34 35.3604C542.197 35.446 542.094 35.5813 542.051 35.7386C542.008 35.8958 542.03 36.0629 542.111 36.2053C542.197 36.3457 542.338 36.4477 542.501 36.4891C542.665 36.5306 542.839 36.5082 542.986 36.4268H542.987Z" fill="#211715"/>
<path d="M541.972 20.5992C538.748 18.2887 534.308 17.5761 530.398 18.2336C527.24 18.7456 524.366 20.3055 522.271 22.6446C520.226 24.9827 519.288 27.8962 519.027 30.9113C518.952 31.8122 518.927 32.7162 518.951 33.6197C518.949 34.1504 518.99 34.6805 519.073 35.2052C519.17 35.7294 519.252 36.2562 519.312 36.7859C519.5 38.7071 519.538 40.6392 519.427 42.566C519.39 43.4948 519.347 44.4238 519.335 45.3534C519.323 46.2325 519.247 47.1945 519.44 48.0587C519.748 49.4329 520.937 50.9351 522.356 51.3587C522.741 51.468 523.147 51.4849 523.54 51.4081C523.703 51.3633 523.841 51.2585 523.925 51.1164C524.008 50.9742 524.03 50.8061 523.987 50.6482C523.939 50.4922 523.83 50.3602 523.683 50.2799C523.537 50.1995 523.364 50.1769 523.2 50.2168C522.97 50.2399 522.738 50.2019 522.529 50.1069C522.248 49.9733 521.993 49.7929 521.776 49.574C521.319 49.1351 520.97 48.6026 520.755 48.016C520.712 47.8929 520.679 47.7671 520.655 47.6394C520.673 47.7396 520.653 47.6137 520.65 47.5764C520.641 47.4282 520.636 47.2794 520.631 47.1312C520.615 46.6798 520.608 46.2283 520.611 45.7767C520.614 44.8935 520.647 44.0108 520.683 43.1283C520.789 41.3394 520.789 39.5461 520.685 37.7571C520.605 36.7323 520.398 35.7315 520.278 34.7139C520.196 33.8094 520.183 32.9003 520.239 31.994C520.346 29.1888 520.989 26.3919 522.709 24.0917C524.356 21.9471 526.709 20.4059 529.381 19.7203C531.259 19.24 533.216 19.1196 535.141 19.366C536.835 19.5401 538.478 20.0287 539.979 20.8051C540.446 21.0654 540.896 21.3532 541.327 21.6669C541.473 21.7486 541.648 21.7711 541.811 21.7296C541.975 21.6881 542.115 21.586 542.202 21.4454C542.284 21.3031 542.305 21.1359 542.263 20.9785C542.22 20.8211 542.116 20.6857 541.972 20.6005V20.5992Z" fill="#211715"/>
<path d="M534.676 28.1589C535.207 29.6902 535.817 31.2858 536.726 32.651C537.567 33.9162 538.676 35.2997 540.103 35.9814C540.25 36.06 540.423 36.0808 540.586 36.0396C540.749 35.9983 540.889 35.8982 540.978 35.7598C541.062 35.618 541.085 35.45 541.042 35.292C540.999 35.134 540.893 34.9985 540.748 34.9147C539.485 34.3112 538.518 33.0793 537.781 31.9551C536.955 30.6941 536.398 29.2393 535.909 27.8316C535.649 27.0817 534.413 27.4033 534.676 28.16V28.1589Z" fill="#211715"/>
<path d="M534.814 27.4925C533.872 28.5419 532.766 29.4432 531.536 30.164C530.894 30.5457 530.227 30.888 529.54 31.1891C529.217 31.331 528.89 31.4623 528.558 31.5831C528.192 31.7424 527.809 31.8653 527.417 31.9501H527.757C527.883 32.3104 527.956 32.3991 527.976 32.2162C527.983 32.1763 527.99 32.1361 527.997 32.0962C528.015 31.9969 528.032 31.8974 528.049 31.7977C528.081 31.6003 528.111 31.4027 528.139 31.2058C528.197 30.794 528.246 30.3818 528.286 29.969C528.338 29.4365 527.551 29.1527 527.194 29.5315C525.281 31.5564 523.022 33.2496 520.517 34.5377C519.789 34.9099 520.435 35.9763 521.163 35.6045C522.456 34.9243 523.686 34.138 524.839 33.2541C526.009 32.3979 527.1 31.4442 528.098 30.4039L527.006 29.9664C526.949 30.5493 526.875 31.1294 526.773 31.7066C526.714 32.0432 526.611 32.3757 526.789 32.6977C526.853 32.8114 526.943 32.9099 527.051 32.9864C527.159 33.0628 527.284 33.1152 527.415 33.1398C527.707 33.1657 528 33.1149 528.264 32.9929C528.547 32.9 528.827 32.8008 529.105 32.6951C529.624 32.4985 530.136 32.2833 530.637 32.0484C532.572 31.1667 534.301 29.9133 535.718 28.3646C535.834 28.2468 535.898 28.0905 535.898 27.9279C535.898 27.7653 535.834 27.609 535.718 27.4912C535.597 27.3767 535.435 27.3125 535.265 27.3125C535.096 27.3125 534.934 27.3767 534.813 27.4912L534.814 27.4925Z" fill="#211715"/>
<path d="M544.072 48.7463C543.477 48.5322 542.899 48.2793 542.34 47.9895C541.807 47.7161 541.34 47.4361 541.067 46.9904C541.026 46.925 540.989 46.8568 540.957 46.7863C541.003 46.8934 540.933 46.7014 540.933 46.7001C540.884 46.5488 540.847 46.3936 540.814 46.2387C540.808 46.2065 540.761 46.0843 540.777 46.0508C540.758 46.0874 540.796 46.2037 540.785 46.1247C540.777 46.0701 540.771 46.0153 540.764 45.9607L540.655 45.1079C540.65 44.9456 540.581 44.7913 540.462 44.6765C540.343 44.5617 540.183 44.4951 540.015 44.4902C539.846 44.4911 539.684 44.5565 539.564 44.6721C539.444 44.7878 539.376 44.9443 539.375 45.1079C539.485 45.9613 539.509 46.925 539.998 47.6698C540.414 48.2511 540.978 48.7185 541.637 49.0266C542.312 49.3769 543.013 49.6812 543.732 49.9374C543.896 49.9794 544.07 49.9578 544.217 49.8771C544.364 49.7965 544.472 49.6632 544.519 49.506C544.56 49.3482 544.537 49.181 544.454 49.0394C544.37 48.8978 544.234 48.7928 544.072 48.7463H544.072Z" fill="#211715"/>
<path d="M534.717 36.9194C534.917 37.4599 534.858 38.7286 533.787 38.8804C532.363 38.9319 532.22 37.4076 532.668 36.67C533.033 36.066 534.175 35.7742 534.717 36.9194Z" fill="#211715"/>
<path d="M526.145 37.0357C526.33 37.5617 526.282 38.7909 525.299 38.9345C523.993 38.9785 523.855 37.5 524.263 36.7863C524.596 36.2019 525.644 35.9227 526.145 37.0357Z" fill="#211715"/>
<path d="M528.336 39.4732C528.138 39.8268 527.959 40.1901 527.799 40.5615L527.864 40.414C527.769 40.5867 527.714 40.7773 527.704 40.9725C527.703 41.0935 527.73 41.2131 527.784 41.3225C527.837 41.4319 527.916 41.5281 528.013 41.604C528.16 41.7299 528.337 41.8183 528.528 41.8614C528.653 41.884 528.775 41.8871 528.901 41.8985C528.985 41.8987 529.068 41.8828 529.146 41.8519C529.224 41.821 529.294 41.7756 529.354 41.7183C529.474 41.6025 529.541 41.4454 529.541 41.2816C529.541 41.1178 529.474 40.9607 529.354 40.8449C529.229 40.736 529.069 40.6724 528.901 40.6647C528.839 40.6588 528.777 40.6601 528.716 40.6524L528.886 40.6745C528.842 40.6679 528.799 40.6566 528.758 40.6408L528.911 40.7031C528.868 40.6843 528.827 40.6613 528.789 40.6343L528.918 40.7308C528.89 40.7101 528.863 40.6873 528.839 40.6626L528.939 40.7877C528.927 40.7724 528.917 40.7556 528.909 40.7378L528.973 40.8855C528.969 40.8734 528.966 40.8609 528.964 40.8482L528.987 41.0124C528.984 40.9856 528.984 40.9586 528.987 40.9318L528.964 41.096C528.974 41.0386 528.992 40.9825 529.016 40.929L528.951 41.0767C528.985 41 529.019 40.9228 529.052 40.8451L528.988 40.9926C529.123 40.6868 529.281 40.3888 529.441 40.0957C529.524 39.9509 529.547 39.7806 529.505 39.6199C529.472 39.5026 529.403 39.3975 529.308 39.3177C529.213 39.2379 529.096 39.187 528.971 39.1712C528.847 39.1555 528.72 39.1757 528.607 39.2292C528.494 39.2828 528.4 39.3674 528.336 39.4724L528.336 39.4732Z" fill="#211715"/>
<path d="M531.121 46.2239C531.34 46.0385 531.54 45.8337 531.719 45.6122C531.887 45.4009 532.038 45.1779 532.172 44.9451C532.485 44.3879 532.886 43.4885 532.148 43.0644C531.786 42.8564 531.289 42.955 530.889 42.9872C530.466 43.0204 530.043 43.0602 529.621 43.1037C529.146 43.1532 528.672 43.2067 528.198 43.2731C528.035 43.317 527.896 43.4215 527.813 43.5639C527.729 43.7063 527.707 43.8749 527.752 44.0328C527.801 44.1879 527.91 44.319 528.056 44.3992C528.203 44.4794 528.375 44.5027 528.538 44.4644C528.586 44.4577 528.634 44.452 528.681 44.4451C528.486 44.4741 528.621 44.4528 528.668 44.4471C528.768 44.4344 528.869 44.4222 528.969 44.4106C529.195 44.3843 529.42 44.3596 529.646 44.3365C530.105 44.2891 530.565 44.2461 531.025 44.2122C531.208 44.1988 531.39 44.1864 531.573 44.1784C531.605 44.1751 531.636 44.1739 531.668 44.1748C531.603 44.1724 531.54 44.1536 531.484 44.1204C531.429 44.0872 531.384 44.0407 531.353 43.9854C531.311 43.9105 531.294 43.8253 531.304 43.7409C531.28 43.799 531.262 43.8594 531.251 43.9211C531.238 43.9607 531.224 44.0004 531.208 44.0395C531.18 44.1084 531.177 44.1167 531.198 44.067C531.071 44.3377 530.915 44.5951 530.733 44.8349C530.694 44.8864 530.656 44.9399 530.615 44.9894C530.685 44.9055 530.562 45.0408 530.547 45.0568C530.443 45.1597 530.328 45.2534 530.218 45.3512C530.099 45.4677 530.032 45.6245 530.032 45.7879C530.032 45.9513 530.099 46.1082 530.218 46.2247C530.339 46.3372 530.501 46.4001 530.67 46.4001C530.838 46.4001 531 46.3372 531.122 46.2247L531.121 46.2239Z" fill="#211715"/>
<path d="M518.364 64.3181C518.748 65.5209 519.176 66.7114 519.613 67.8976C519.636 67.9758 519.674 68.049 519.725 68.113C519.777 68.177 519.841 68.2305 519.914 68.2706C519.987 68.3106 520.068 68.3364 520.151 68.3464C520.234 68.3564 520.319 68.3505 520.4 68.3289C520.481 68.3073 520.557 68.2706 520.623 68.2207C520.689 68.1709 520.745 68.1089 520.786 68.0384C520.828 67.9678 520.854 67.8901 520.865 67.8096C520.875 67.7291 520.869 67.6474 520.847 67.5692C520.409 66.3838 519.981 65.1925 519.597 63.9897C519.552 63.8317 519.444 63.6976 519.296 63.6167C519.149 63.5358 518.974 63.5148 518.81 63.5584C518.647 63.6019 518.508 63.7064 518.424 63.8489C518.34 63.9913 518.319 64.1601 518.364 64.3181Z" fill="#211715"/>
</g>
<path d="M636.46 69.392C636.46 67.844 638.152 66.872 640.96 66.872C641.968 66.872 642.976 66.98 643.912 67.124C643.948 67.628 643.948 68.06 643.948 68.384C643.948 70.796 643.12 71.804 640.816 71.804C638.296 71.804 636.46 71.156 636.46 69.392ZM648.52 45.128H643.084C643.3 46.028 643.408 47.576 643.48 49.34C643.516 50.888 643.516 53.012 643.516 55.208C643.516 57.116 643.66 60.176 643.768 62.984C643.084 62.912 642.364 62.876 641.644 62.876C635.02 62.876 631.816 65.864 631.816 69.608C631.816 74.504 636.028 76.196 641.176 76.196C647.224 76.196 648.844 73.172 648.844 69.968C648.844 69.608 648.844 69.176 648.808 68.708C652.012 70.184 654.712 72.308 656.764 74.36L659.536 70.076C657.052 67.772 653.164 65.252 648.592 63.92C648.412 61.256 648.268 58.376 648.196 56.216C651.112 56.144 655.36 55.964 658.384 55.712L658.24 51.428C655.252 51.788 651.04 51.932 648.16 51.968C648.16 51.032 648.16 50.168 648.196 49.34C648.232 47.936 648.34 46.172 648.52 45.128ZM695.824 48.044L691.612 44.336C691.036 45.2 689.884 46.352 688.84 47.396C686.428 49.736 681.496 53.732 678.652 56.036C675.052 59.06 674.764 60.968 678.364 64.028C681.64 66.836 686.932 71.336 689.128 73.604C690.208 74.684 691.252 75.836 692.26 76.952L696.472 73.1C692.8 69.536 685.96 64.136 683.26 61.868C681.316 60.176 681.28 59.78 683.188 58.124C685.6 56.072 690.352 52.4 692.692 50.528C693.52 49.844 694.708 48.908 695.824 48.044ZM728.656 45.02L723.976 44.912C724.012 45.524 723.94 46.388 723.904 47.072C723.832 47.684 723.76 48.332 723.688 49.016C723.22 49.016 722.752 49.016 722.248 49.016C720.052 49.016 716.884 48.728 715.624 48.512L715.732 52.688C717.424 52.76 720.232 52.904 722.104 52.904C722.5 52.904 722.86 52.904 723.256 52.904C723.112 54.38 723.004 55.892 722.932 57.44C717.892 59.816 714.076 64.64 714.076 69.284C714.076 72.92 716.308 74.504 718.936 74.504C720.844 74.504 722.752 73.928 724.516 73.064C724.66 73.568 724.84 74.072 724.984 74.54L729.124 73.28C728.836 72.416 728.548 71.516 728.296 70.616C731.032 68.348 733.912 64.568 735.856 59.672C738.34 60.644 739.6 62.552 739.6 64.712C739.6 68.24 736.792 71.768 729.844 72.524L732.22 76.304C741.076 74.972 744.064 70.04 744.064 64.928C744.064 60.752 741.292 57.476 737.116 56.108C737.332 55.424 737.62 54.668 737.764 54.272L733.372 53.228C733.336 53.768 733.192 54.668 733.048 55.388C732.832 55.388 732.616 55.388 732.4 55.388C730.636 55.388 728.764 55.64 727.036 56.036C727.072 54.956 727.18 53.84 727.288 52.76C731.716 52.58 736.54 52.148 740.068 51.5L740.032 47.324C736.072 48.26 732.184 48.728 727.792 48.908C727.9 48.188 728.044 47.54 728.152 46.928C728.296 46.388 728.44 45.74 728.656 45.02ZM718.324 68.348C718.324 66.296 720.124 63.56 722.824 61.724C722.896 64.208 723.184 66.692 723.58 68.924C722.284 69.68 720.988 70.112 719.98 70.112C718.828 70.112 718.324 69.5 718.324 68.348ZM726.892 59.96V59.852C728.296 59.42 729.952 59.096 731.86 59.06C730.636 61.976 729.016 64.172 727.324 65.936C727.036 64.136 726.892 62.156 726.892 59.96ZM766.24 69.752C766.24 68.852 767.104 68.024 768.472 68.024C770.416 68.024 771.748 69.536 771.964 71.876C771.316 71.948 770.632 71.984 769.876 71.984C767.716 71.984 766.24 71.084 766.24 69.752ZM760.12 46.568L760.264 51.248C761.092 51.14 762.244 51.032 763.216 50.96C765.124 50.852 770.092 50.636 771.928 50.6C770.164 52.148 766.42 55.172 764.404 56.828C762.28 58.592 757.924 62.264 755.368 64.316L758.644 67.7C762.496 63.308 766.096 60.392 771.604 60.392C775.852 60.392 779.092 62.588 779.092 65.828C779.092 68.024 778.084 69.68 776.104 70.724C775.6 67.304 772.9 64.568 768.436 64.568C764.62 64.568 761.992 67.268 761.992 70.184C761.992 73.784 765.772 76.088 770.776 76.088C779.488 76.088 783.808 71.588 783.808 65.9C783.808 60.644 779.164 56.828 773.044 56.828C771.892 56.828 770.812 56.936 769.624 57.224C771.892 55.424 775.672 52.256 777.616 50.888C778.444 50.276 779.308 49.772 780.136 49.232L777.796 46.028C777.364 46.172 776.536 46.28 775.06 46.424C773.008 46.604 765.304 46.748 763.396 46.748C762.388 46.748 761.128 46.712 760.12 46.568ZM803.932 66.908H819.556V68.492H803.932V66.908ZM803.932 62.948H819.556V64.496H803.932V62.948ZM803.932 58.952H819.556V60.5H803.932V58.952ZM823.912 71.084V56.396H812.176C814.012 55.1 815.092 53.552 815.704 51.968H819.34V55.748H823.156V51.968H827.692V48.872H816.424C816.46 48.512 816.46 48.152 816.46 47.828V47.648C819.808 47.36 823.516 46.892 826.288 46.1L823.696 43.544C821.752 44.12 818.62 44.66 815.632 45.02L812.752 44.336V47.612C812.752 48.98 812.536 50.42 811.492 51.788V48.872H801.592C801.628 48.512 801.628 48.116 801.628 47.792V47.612C804.76 47.36 808.18 46.856 810.772 46.064L808.144 43.544C806.344 44.12 803.464 44.66 800.656 44.984L797.92 44.3V47.576C797.92 49.952 797.488 52.904 794.86 55.28C795.724 55.784 797.092 57.152 797.668 57.944C799.576 56.216 800.584 54.02 801.124 51.968H804.292V55.712H808.108V51.968H811.348C810.844 52.58 810.16 53.192 809.26 53.768C810.016 54.272 811.204 55.496 811.744 56.396H799.792V71.084H805.12C802.636 72.308 798.712 73.46 795.22 74.108C796.12 74.864 797.632 76.412 798.388 77.24C802.024 76.232 806.632 74.468 809.62 72.524L806.344 71.084H816.856L813.616 72.956C817.252 74.324 820.924 76.016 822.976 77.204L827.944 75.296C825.496 74.108 821.356 72.38 817.684 71.084H823.912ZM847.708 48.152V50.096H842.2V48.152H847.708ZM842.2 55.028V52.976H847.708V55.028H842.2ZM851.704 58.268V44.876H837.952V77.132H842.2V58.268H851.704ZM855.844 64.28V68.528H849.904V64.28H855.844ZM859.84 72.056V60.752H845.908V74.072H849.904V72.056H859.84ZM858.256 55.064V52.976H863.944V55.064H858.256ZM863.944 48.116V50.096H858.256V48.116H863.944ZM868.264 44.876H854.188V58.304H863.944V71.948C863.944 72.596 863.692 72.812 863.008 72.812C862.324 72.848 859.876 72.884 857.788 72.74C858.4 73.892 859.084 75.908 859.228 77.132C862.54 77.132 864.808 77.024 866.284 76.304C867.796 75.62 868.264 74.396 868.264 72.02V44.876Z" fill="white"/>
<defs>
<clipPath id="clip0_219_110">
<rect width="93" height="80" fill="white" transform="translate(483 18)"/>
</clipPath>
</defs>
</svg>
