<svg width="1356" height="886" viewBox="0 0 1356 886" fill="none" xmlns="http://www.w3.org/2000/svg">
<rect x="2.5" y="88.5" width="1295" height="795" rx="17.5" fill="white" stroke="#728EF3" stroke-width="5"/>
<rect x="40" y="437" width="200" height="100" rx="5" fill="#9CB468"/>
<rect x="279" y="437" width="200" height="100" rx="5" fill="#9CB468"/>
<rect x="524" y="437" width="200" height="100" rx="5" fill="#9CB468"/>
<path d="M70.1364 510V503.909L86.2955 488.068C87.8409 486.508 89.1288 485.121 90.1591 483.909C91.1894 482.697 91.9621 481.523 92.4773 480.386C92.9924 479.25 93.25 478.038 93.25 476.75C93.25 475.28 92.9167 474.023 92.25 472.977C91.5833 471.917 90.6667 471.098 89.5 470.523C88.3333 469.947 87.0076 469.659 85.5227 469.659C83.9924 469.659 82.6515 469.977 81.5 470.614C80.3485 471.235 79.4545 472.121 78.8182 473.273C78.197 474.424 77.8864 475.795 77.8864 477.386H69.8636C69.8636 474.432 70.5379 471.864 71.8864 469.682C73.2348 467.5 75.0909 465.811 77.4545 464.614C79.8333 463.417 82.5606 462.818 85.6364 462.818C88.7576 462.818 91.5 463.402 93.8636 464.568C96.2273 465.735 98.0606 467.333 99.3636 469.364C100.682 471.394 101.341 473.712 101.341 476.318C101.341 478.061 101.008 479.773 100.341 481.455C99.6742 483.136 98.5 485 96.8182 487.045C95.1515 489.091 92.8106 491.568 89.7955 494.477L81.7727 502.636V502.955H102.045V510H70.1364ZM127.091 510.886C123.348 510.886 120.136 509.939 117.455 508.045C114.788 506.136 112.735 503.386 111.295 499.795C109.871 496.189 109.159 491.848 109.159 486.773C109.174 481.697 109.894 477.379 111.318 473.818C112.758 470.242 114.811 467.515 117.477 465.636C120.159 463.758 123.364 462.818 127.091 462.818C130.818 462.818 134.023 463.758 136.705 465.636C139.386 467.515 141.439 470.242 142.864 473.818C144.303 477.394 145.023 481.712 145.023 486.773C145.023 491.864 144.303 496.212 142.864 499.818C141.439 503.409 139.386 506.152 136.705 508.045C134.038 509.939 130.833 510.886 127.091 510.886ZM127.091 503.773C130 503.773 132.295 502.341 133.977 499.477C135.674 496.598 136.523 492.364 136.523 486.773C136.523 483.076 136.136 479.97 135.364 477.455C134.591 474.939 133.5 473.045 132.091 471.773C130.682 470.485 129.015 469.841 127.091 469.841C124.197 469.841 121.909 471.28 120.227 474.159C118.545 477.023 117.697 481.227 117.682 486.773C117.667 490.485 118.038 493.606 118.795 496.136C119.568 498.667 120.659 500.576 122.068 501.864C123.477 503.136 125.152 503.773 127.091 503.773ZM170.134 477.232L171.286 484.592L210.198 479.344L209.11 472.048L170.134 477.232ZM194.262 459.696C197.526 462.96 201.43 467.504 203.03 470.448L209.174 466.48C207.382 463.472 203.35 459.184 200.022 456.112L194.262 459.696ZM166.614 456.176C162.646 465.84 155.926 475.376 149.014 481.328C150.358 483.184 152.534 487.28 153.302 489.136C161.302 481.776 169.11 469.936 173.91 458.608L166.614 456.176ZM159.958 474.544V515.632H167.894V466.864L167.83 466.736L159.958 474.544ZM182.102 456.624C183.254 491.504 187.03 514.224 202.198 515.632C205.782 515.824 209.238 512.88 210.902 500.464C209.494 499.76 206.038 497.712 204.566 496.112C204.118 503.152 203.286 506.48 201.814 506.352C194.07 505.264 190.358 484.016 189.91 456.624H182.102Z" fill="black"/>
<path d="M324.841 510.636C321.568 510.636 318.659 510.076 316.114 508.955C313.583 507.833 311.583 506.273 310.114 504.273C308.644 502.273 307.864 499.962 307.773 497.341H316.318C316.394 498.598 316.811 499.697 317.568 500.636C318.326 501.561 319.333 502.28 320.591 502.795C321.848 503.311 323.258 503.568 324.818 503.568C326.485 503.568 327.962 503.28 329.25 502.705C330.538 502.114 331.545 501.295 332.273 500.25C333 499.205 333.356 498 333.341 496.636C333.356 495.227 332.992 493.985 332.25 492.909C331.508 491.833 330.432 490.992 329.023 490.386C327.629 489.78 325.947 489.477 323.977 489.477H319.864V482.977H323.977C325.598 482.977 327.015 482.697 328.227 482.136C329.455 481.576 330.417 480.788 331.114 479.773C331.811 478.742 332.152 477.553 332.136 476.205C332.152 474.886 331.856 473.742 331.25 472.773C330.659 471.788 329.818 471.023 328.727 470.477C327.652 469.932 326.386 469.659 324.932 469.659C323.508 469.659 322.189 469.917 320.977 470.432C319.765 470.947 318.788 471.682 318.045 472.636C317.303 473.576 316.909 474.697 316.864 476H308.75C308.811 473.394 309.561 471.106 311 469.136C312.455 467.152 314.394 465.606 316.818 464.5C319.242 463.379 321.962 462.818 324.977 462.818C328.083 462.818 330.78 463.402 333.068 464.568C335.371 465.72 337.152 467.273 338.409 469.227C339.667 471.182 340.295 473.341 340.295 475.705C340.311 478.326 339.538 480.523 337.977 482.295C336.432 484.068 334.402 485.227 331.886 485.773V486.136C335.159 486.591 337.667 487.803 339.409 489.773C341.167 491.727 342.038 494.159 342.023 497.068C342.023 499.674 341.28 502.008 339.795 504.068C338.326 506.114 336.295 507.72 333.705 508.886C331.129 510.053 328.174 510.636 324.841 510.636ZM367.028 510.886C363.286 510.886 360.074 509.939 357.392 508.045C354.725 506.136 352.672 503.386 351.233 499.795C349.809 496.189 349.097 491.848 349.097 486.773C349.112 481.697 349.831 477.379 351.256 473.818C352.695 470.242 354.748 467.515 357.415 465.636C360.097 463.758 363.301 462.818 367.028 462.818C370.756 462.818 373.96 463.758 376.642 465.636C379.324 467.515 381.377 470.242 382.801 473.818C384.241 477.394 384.96 481.712 384.96 486.773C384.96 491.864 384.241 496.212 382.801 499.818C381.377 503.409 379.324 506.152 376.642 508.045C373.975 509.939 370.771 510.886 367.028 510.886ZM367.028 503.773C369.938 503.773 372.233 502.341 373.915 499.477C375.612 496.598 376.46 492.364 376.46 486.773C376.46 483.076 376.074 479.97 375.301 477.455C374.528 474.939 373.438 473.045 372.028 471.773C370.619 470.485 368.953 469.841 367.028 469.841C364.134 469.841 361.847 471.28 360.165 474.159C358.483 477.023 357.634 481.227 357.619 486.773C357.604 490.485 357.975 493.606 358.733 496.136C359.506 498.667 360.597 500.576 362.006 501.864C363.415 503.136 365.089 503.773 367.028 503.773ZM410.071 477.232L411.223 484.592L450.135 479.344L449.047 472.048L410.071 477.232ZM434.199 459.696C437.463 462.96 441.367 467.504 442.967 470.448L449.111 466.48C447.319 463.472 443.287 459.184 439.959 456.112L434.199 459.696ZM406.551 456.176C402.583 465.84 395.863 475.376 388.951 481.328C390.295 483.184 392.471 487.28 393.239 489.136C401.239 481.776 409.047 469.936 413.847 458.608L406.551 456.176ZM399.895 474.544V515.632H407.831V466.864L407.767 466.736L399.895 474.544ZM422.039 456.624C423.191 491.504 426.967 514.224 442.135 515.632C445.719 515.824 449.175 512.88 450.839 500.464C449.431 499.76 445.975 497.712 444.503 496.112C444.055 503.152 443.223 506.48 441.751 506.352C434.007 505.264 430.295 484.016 429.847 456.624H422.039Z" fill="black"/>
<path d="M552.295 501.364V494.659L572.045 463.455H577.636V473H574.227L560.932 494.068V494.432H588.5V501.364H552.295ZM574.5 510V499.318L574.591 496.318V463.455H582.545V510H574.5ZM612.966 510.886C609.223 510.886 606.011 509.939 603.33 508.045C600.663 506.136 598.61 503.386 597.17 499.795C595.746 496.189 595.034 491.848 595.034 486.773C595.049 481.697 595.769 477.379 597.193 473.818C598.633 470.242 600.686 467.515 603.352 465.636C606.034 463.758 609.239 462.818 612.966 462.818C616.693 462.818 619.898 463.758 622.58 465.636C625.261 467.515 627.314 470.242 628.739 473.818C630.178 477.394 630.898 481.712 630.898 486.773C630.898 491.864 630.178 496.212 628.739 499.818C627.314 503.409 625.261 506.152 622.58 508.045C619.913 509.939 616.708 510.886 612.966 510.886ZM612.966 503.773C615.875 503.773 618.17 502.341 619.852 499.477C621.549 496.598 622.398 492.364 622.398 486.773C622.398 483.076 622.011 479.97 621.239 477.455C620.466 474.939 619.375 473.045 617.966 471.773C616.557 470.485 614.89 469.841 612.966 469.841C610.072 469.841 607.784 471.28 606.102 474.159C604.42 477.023 603.572 481.227 603.557 486.773C603.542 490.485 603.913 493.606 604.67 496.136C605.443 498.667 606.534 500.576 607.943 501.864C609.352 503.136 611.027 503.773 612.966 503.773ZM656.009 477.232L657.161 484.592L696.073 479.344L694.985 472.048L656.009 477.232ZM680.137 459.696C683.401 462.96 687.305 467.504 688.905 470.448L695.049 466.48C693.257 463.472 689.225 459.184 685.897 456.112L680.137 459.696ZM652.489 456.176C648.521 465.84 641.801 475.376 634.889 481.328C636.233 483.184 638.409 487.28 639.177 489.136C647.177 481.776 654.985 469.936 659.785 458.608L652.489 456.176ZM645.833 474.544V515.632H653.769V466.864L653.705 466.736L645.833 474.544ZM667.977 456.624C669.129 491.504 672.905 514.224 688.073 515.632C691.657 515.824 695.113 512.88 696.777 500.464C695.369 499.76 691.913 497.712 690.441 496.112C689.993 503.152 689.161 506.48 687.689 506.352C679.945 505.264 676.233 484.016 675.785 456.624H667.977Z" fill="black"/>
<path d="M189.784 568.72L185.016 568.24C185.048 570.256 184.792 572.592 184.344 575.024C182.712 575.152 181.208 575.248 180.216 575.28C179.032 575.312 177.944 575.376 176.792 575.28L177.176 579.632C178.136 579.472 179.832 579.248 180.728 579.088C181.336 579.024 182.328 578.896 183.48 578.768C182.328 583.152 180.12 589.616 177.016 593.808L181.176 595.472C184.12 590.768 186.488 583.184 187.704 578.32C188.6 578.256 189.4 578.192 189.912 578.192C191.928 578.192 193.016 578.544 193.016 581.104C193.016 584.272 192.6 588.144 191.736 589.968C191.224 591.024 190.392 591.344 189.336 591.344C188.472 591.344 186.648 591.024 185.4 590.672L186.104 594.896C187.192 595.12 188.696 595.344 189.944 595.344C192.344 595.344 194.136 594.64 195.192 592.4C196.568 589.616 197.016 584.432 197.016 580.656C197.016 576.048 194.616 574.544 191.224 574.544C190.552 574.544 189.592 574.608 188.536 574.672C188.76 573.52 188.984 572.336 189.208 571.376C189.368 570.576 189.592 569.552 189.784 568.72ZM200.792 571.728L196.984 573.36C199.256 576.176 201.528 581.968 202.36 585.52L206.424 583.632C205.464 580.592 202.776 574.48 200.792 571.728ZM217.688 568.24L216.664 572.08C219.16 572.72 226.296 574.224 229.528 574.64L230.488 570.736C227.704 570.416 220.728 569.2 217.688 568.24ZM217.88 574.672L213.592 574.064C213.368 578.032 212.632 584.304 211.992 587.44L215.672 588.368C215.96 587.728 216.28 587.216 216.856 586.512C218.872 584.08 222.136 582.736 225.752 582.736C228.536 582.736 230.52 584.272 230.52 586.352C230.52 590.416 225.432 592.752 215.832 591.44L217.048 595.632C230.36 596.752 234.968 592.272 234.968 586.448C234.968 582.576 231.704 579.12 226.104 579.12C222.744 579.12 219.576 580.048 216.664 582.16C216.888 580.336 217.464 576.432 217.88 574.672ZM257.72 591.6H252.184V589.52H257.72V591.6ZM267.96 582.384H242.296V596.784H246.008V585.552H264.12V592.688C264.12 593.072 263.992 593.168 263.512 593.2C263.16 593.232 262.168 593.232 261.08 593.2V586.992H248.856V595.6H252.184V594.16H260.44C260.792 594.992 261.08 595.984 261.176 596.72C263.48 596.72 265.176 596.688 266.36 596.112C267.608 595.536 267.96 594.512 267.96 592.752V582.384ZM259.864 578.48H249.88V576.528H259.864V578.48ZM246.264 574V581.04H263.736V574H246.264ZM256.728 569.552V566.864H252.856V569.552H241.016V572.784H268.984V569.552H256.728ZM279.32 571.12L274.392 571.056C274.584 572.048 274.648 573.424 274.648 574.32C274.648 576.272 274.68 580.016 275 582.96C275.896 591.536 278.936 594.704 282.456 594.704C285.016 594.704 287.032 592.752 289.144 587.184L285.944 583.28C285.336 585.84 284.056 589.584 282.552 589.584C280.536 589.584 279.576 586.416 279.128 581.808C278.936 579.504 278.904 577.104 278.936 575.024C278.936 574.128 279.096 572.272 279.32 571.12ZM295.32 571.856L291.256 573.168C294.744 577.136 296.44 584.912 296.952 590.064L301.144 588.432C300.792 583.536 298.36 575.536 295.32 571.856ZM315.352 567.888H305.688V570.768H315.352V567.888ZM316.568 572.176H304.056V575.184H316.568V572.176ZM312.088 588.432V592.112H308.696V588.432H312.088ZM315.384 585.424H305.464V596.336H308.696V595.088H315.384V585.424ZM305.56 583.856H315.416V581.008H305.56V583.856ZM305.56 579.536H315.416V576.624H305.56V579.536ZM333.944 582.288H326.872V572.016H333.368V568.464H317.176V572.016H323.128V582.288H316.056V585.904H323.128V596.752H326.872V585.904H333.944V582.288ZM317.432 573.968C318.104 576.368 318.648 579.44 318.744 581.456L321.944 580.688C321.816 578.704 321.208 575.696 320.504 573.328L317.432 573.968ZM330.744 581.392C331.544 579.472 332.408 576.464 333.208 573.776L329.592 573.072C329.272 575.376 328.536 578.608 327.832 580.656L330.744 581.392ZM342.424 566.96C340.856 571.376 338.232 575.792 335.48 578.576C336.088 579.504 337.08 581.52 337.432 582.416C338.104 581.712 338.744 580.912 339.384 580.048V596.752H342.968V574.352C344.056 572.304 345.048 570.16 345.848 568.048L342.424 566.96ZM356.312 577.424H354.2V573.424H356.312V577.424ZM361.656 590.992H359.512V580.72H361.656V590.992ZM348.984 580.72H350.968V590.992H348.984V580.72ZM356.312 580.72V590.992H354.168V580.72H356.312ZM365.464 573.424V570.032H345.144V573.424H350.616V577.424H345.464V596.08H348.984V594.256H361.656V595.888H365.304V577.424H359.896V573.424H365.464ZM382.552 568.336L378.328 567.984C378.264 569.136 378.04 570.384 377.688 571.664C377.176 571.664 376.632 571.664 376.152 571.664C374.52 571.664 372.152 571.536 370.52 571.28V575.024C372.28 575.152 374.616 575.216 375.928 575.216C376.056 575.216 376.184 575.216 376.344 575.216C374.904 578.096 372.632 580.944 369.272 584.048L372.696 586.608C373.784 585.2 374.712 584.048 375.672 583.088C376.888 581.904 378.872 580.88 380.664 580.88C381.56 580.88 382.424 581.168 382.904 581.968C379.256 583.856 375.416 586.416 375.416 590.512C375.416 594.64 379.128 595.856 384.152 595.856C387.16 595.856 391.096 595.6 393.208 595.312L393.336 591.184C390.52 591.728 386.968 592.08 384.248 592.08C381.112 592.08 379.608 591.6 379.608 589.84C379.608 588.24 380.888 586.992 383.288 585.616C383.256 587.024 383.224 588.56 383.128 589.52H386.968C386.936 588.048 386.872 585.68 386.84 583.888C388.792 582.992 390.616 582.288 392.056 581.712C393.144 581.296 394.84 580.656 395.864 580.368L394.264 576.656C393.08 577.264 391.96 577.776 390.712 578.32C389.4 578.896 388.056 579.44 386.392 580.208C385.688 578.576 384.088 577.744 382.136 577.744C381.08 577.744 379.352 578 378.52 578.384C379.16 577.456 379.8 576.304 380.344 575.12C383.8 575.024 387.736 574.768 390.776 574.32L390.808 570.608C387.992 571.088 384.792 571.376 381.752 571.536C382.168 570.192 382.392 569.136 382.552 568.336ZM411.64 572.24V568.688H400.056V572.24H404.472V591.568C404.472 592.016 404.312 592.176 403.832 592.208C403.352 592.208 401.72 592.208 400.216 592.144C400.728 593.168 401.208 594.832 401.336 595.824C403.8 595.856 405.496 595.76 406.68 595.152C407.832 594.544 408.184 593.52 408.184 591.6V572.24H411.64ZM416.696 585.648H425.08V587.696H416.696V585.648ZM416.696 580.976H425.08V582.992H416.696V580.976ZM416.696 576.368H425.08V578.384H416.696V576.368ZM428.792 590.448V573.584H422.072C422.328 572.88 422.616 572.112 422.904 571.344H429.784V568.144H412.152V571.344H418.616C418.488 572.08 418.328 572.848 418.168 573.584H413.176V590.448H416.44C414.84 591.76 411.736 593.264 409.176 594.064C409.944 594.8 410.968 595.92 411.512 596.688C414.264 595.76 417.592 594.128 419.704 592.464L416.792 590.448H428.792ZM421.336 592.528C423.416 593.776 426.168 595.568 427.48 596.784L430.488 594.544C429.016 593.328 426.168 591.6 424.152 590.512L421.336 592.528ZM439.32 571.12L434.392 571.056C434.584 572.048 434.648 573.424 434.648 574.32C434.648 576.272 434.68 580.016 435 582.96C435.896 591.536 438.936 594.704 442.456 594.704C445.016 594.704 447.032 592.752 449.144 587.184L445.944 583.28C445.336 585.84 444.056 589.584 442.552 589.584C440.536 589.584 439.576 586.416 439.128 581.808C438.936 579.504 438.904 577.104 438.936 575.024C438.936 574.128 439.096 572.272 439.32 571.12ZM455.32 571.856L451.256 573.168C454.744 577.136 456.44 584.912 456.952 590.064L461.144 588.432C460.792 583.536 458.36 575.536 455.32 571.856ZM464.303 571.984L464.719 576.368C468.431 575.568 474.959 574.864 477.967 574.544C475.823 576.176 473.231 579.824 473.231 584.432C473.231 591.344 479.567 594.96 486.255 595.408L487.759 591.024C482.351 590.736 477.423 588.816 477.423 583.568C477.423 579.76 480.303 575.6 484.175 574.576C485.871 574.192 488.623 574.192 490.351 574.16L490.319 570.064C488.079 570.128 484.559 570.352 481.263 570.608C475.407 571.12 470.127 571.6 467.471 571.824C466.831 571.888 465.583 571.952 464.303 571.984ZM502.351 571.12L497.423 571.056C497.615 572.048 497.679 573.424 497.679 574.32C497.679 576.272 497.711 580.016 498.031 582.96C498.927 591.536 501.967 594.704 505.487 594.704C508.047 594.704 510.063 592.752 512.175 587.184L508.975 583.28C508.367 585.84 507.087 589.584 505.583 589.584C503.567 589.584 502.607 586.416 502.159 581.808C501.967 579.504 501.935 577.104 501.967 575.024C501.967 574.128 502.127 572.272 502.351 571.12ZM518.351 571.856L514.287 573.168C517.775 577.136 519.471 584.912 519.983 590.064L524.175 588.432C523.823 583.536 521.391 575.536 518.351 571.856ZM535.119 590.384C535.119 589.296 536.367 588.4 538.639 588.4C539.535 588.4 540.399 588.496 541.263 588.624C541.295 589.2 541.295 589.648 541.295 590C541.295 591.856 540.175 592.336 538.479 592.336C536.271 592.336 535.119 591.6 535.119 590.384ZM545.135 568.112H540.815C540.943 568.72 541.007 569.712 541.007 570.32C541.007 570.704 541.007 571.216 541.007 571.824C540.591 571.824 540.175 571.824 539.759 571.824C537.807 571.824 534.159 571.504 531.855 571.12L531.951 574.768C534.063 575.056 537.775 575.344 539.791 575.344C540.175 575.344 540.559 575.344 540.975 575.344C540.943 576.432 540.943 577.584 540.943 578.64C540.431 578.64 539.919 578.64 539.407 578.64C537.711 578.64 533.775 578.416 531.695 578.032L531.727 581.808C533.839 582.064 537.487 582.224 539.343 582.224C539.919 582.224 540.463 582.224 541.007 582.224C541.039 583.184 541.071 584.208 541.135 585.2C540.495 585.136 539.823 585.104 539.151 585.104C534.223 585.104 531.247 587.376 531.247 590.608C531.247 594 533.935 595.952 539.055 595.952C543.279 595.952 545.359 593.84 545.359 591.12C545.359 590.768 545.359 590.384 545.327 589.936C547.887 591.088 550.063 592.784 551.791 594.384L554.095 590.8C552.239 589.264 549.167 587.12 545.135 585.968C545.039 584.688 544.975 583.376 544.911 582.16C547.983 582.064 550.479 581.84 553.359 581.52L553.391 577.744C550.799 578.096 548.079 578.352 544.847 578.512C544.847 577.52 544.847 576.336 544.847 575.216C547.951 575.056 550.863 574.768 552.975 574.512L553.007 570.832C550.191 571.312 547.535 571.568 544.911 571.696C544.911 571.184 544.911 570.704 544.943 570.384C544.975 569.552 545.039 568.752 545.135 568.112ZM578.927 568.208H574.287C574.383 568.592 574.511 569.68 574.607 570.992C574.639 571.248 574.639 571.568 574.671 571.984C570.319 572.048 564.495 572.176 560.847 572.176L560.943 576.048C564.879 575.824 569.871 575.632 574.703 575.568C574.735 576.272 574.735 577.008 574.735 577.712C574.319 577.648 573.903 577.616 573.455 577.616C569.967 577.616 567.055 579.984 567.055 583.6C567.055 587.504 570.095 589.488 572.559 589.488C573.071 589.488 573.551 589.424 573.999 589.328C572.239 591.248 569.423 592.304 566.191 592.976L569.615 596.368C577.423 594.192 579.855 588.88 579.855 584.72C579.855 583.056 579.471 581.552 578.703 580.336C578.703 578.928 578.671 577.168 578.671 575.536C583.023 575.536 585.999 575.6 587.919 575.696L587.951 571.92C586.287 571.888 581.903 571.952 578.671 571.952C578.703 571.568 578.703 571.216 578.703 570.96C578.735 570.448 578.863 568.72 578.927 568.208ZM570.895 583.536C570.895 581.84 572.111 580.976 573.359 580.976C574.223 580.976 574.991 581.36 575.439 582.096C575.887 584.912 574.703 585.936 573.359 585.936C572.079 585.936 570.895 585.008 570.895 583.536ZM593.02 586.064C590.204 586.064 587.868 588.4 587.868 591.248C587.868 594.096 590.204 596.432 593.02 596.432C595.9 596.432 598.204 594.096 598.204 591.248C598.204 588.4 595.9 586.064 593.02 586.064ZM593.02 594.128C591.484 594.128 590.172 592.848 590.172 591.248C590.172 589.648 591.484 588.368 593.02 588.368C594.62 588.368 595.9 589.648 595.9 591.248C595.9 592.848 594.62 594.128 593.02 594.128Z" fill="black"/>
<rect x="175" width="672" height="246" fill="white"/>
<path d="M206.328 73H199.736L205.624 25H205.688L226.104 60.008L223.224 59.368L252.088 25H252.152L246.264 73H239.48L243.448 40.424V43.944L223.352 68.2H223.224L208.76 43.944L210.296 40.744L206.328 73ZM272.033 73.512C270.113 73.5547 268.257 73.064 266.465 72.04C264.716 70.9733 263.286 69.4587 262.177 67.496C261.11 65.5333 260.577 63.208 260.577 60.52C260.577 58.6853 260.897 56.872 261.537 55.08C262.22 53.2453 263.201 51.5813 264.481 50.088C265.804 48.552 267.382 47.336 269.217 46.44C271.094 45.5013 273.206 45.032 275.553 45.032C277.473 45.032 279.073 45.3093 280.353 45.864C281.676 46.376 282.764 47.0587 283.617 47.912C284.47 48.7227 285.132 49.6613 285.601 50.728L285.025 51.88L286.433 46.184H292.449L289.249 73H282.657L283.425 66.408L283.937 68.072C283.681 68.3707 283.233 68.8187 282.593 69.416C281.996 70.0133 281.206 70.632 280.225 71.272C279.244 71.912 278.07 72.4667 276.705 72.936C275.34 73.3627 273.782 73.5547 272.033 73.512ZM275.681 68.264C276.876 68.264 278.006 68.0293 279.073 67.56C280.14 67.048 281.1 66.344 281.953 65.448C282.806 64.552 283.468 63.4853 283.937 62.248L284.577 56.68C284.406 55.4427 283.958 54.3547 283.233 53.416C282.55 52.4773 281.633 51.752 280.481 51.24C279.372 50.728 278.113 50.472 276.705 50.472C274.998 50.472 273.548 50.792 272.353 51.432C271.201 52.0293 270.241 52.7973 269.473 53.736C268.748 54.6747 268.214 55.6773 267.873 56.744C267.532 57.8107 267.361 58.8133 267.361 59.752C267.361 61.416 267.702 62.888 268.385 64.168C269.11 65.448 270.092 66.4507 271.329 67.176C272.609 67.9013 274.06 68.264 275.681 68.264ZM311.696 46.184V52.136L311.248 51.24C312.442 49.4053 314.021 47.9333 315.984 46.824C317.989 45.672 320.293 45.096 322.896 45.096C325.456 45.096 327.461 45.8427 328.912 47.336C330.405 48.8293 331.024 50.7707 330.768 53.16L328.336 73H321.744L323.92 55.464C324.048 54.056 323.749 52.9253 323.024 52.072C322.341 51.2187 321.189 50.792 319.568 50.792C318.074 50.792 316.666 51.2187 315.344 52.072C314.064 52.9253 313.018 54.12 312.208 55.656C311.397 57.1493 310.864 58.8773 310.608 60.84L309.072 73H302.544L305.808 46.184H311.696ZM355.953 68.072C356.934 68.072 357.894 67.9013 358.833 67.56C359.814 67.176 360.732 66.7067 361.585 66.152L363.953 71.272C362.63 71.9973 361.201 72.5733 359.665 73C358.172 73.384 356.7 73.576 355.249 73.576C352.433 73.576 349.937 73.064 347.761 72.04C345.628 70.9733 343.964 69.4373 342.769 67.432C341.574 65.384 340.977 62.9093 340.977 60.008C340.977 58.2587 341.297 56.5307 341.937 54.824C342.62 53.0747 343.58 51.4747 344.817 50.024C346.097 48.5733 347.718 47.4 349.681 46.504C351.644 45.608 353.926 45.16 356.529 45.16C358.108 45.16 359.622 45.3733 361.073 45.8C362.566 46.184 363.91 46.8667 365.105 47.848C366.342 48.7867 367.388 50.088 368.241 51.752C369.094 53.3733 369.713 55.4213 370.097 57.896L347.441 64.04L346.417 60.136L365.361 54.824L363.057 55.72C362.63 54.0987 361.82 52.7973 360.625 51.816C359.43 50.8347 358.001 50.344 356.337 50.344C354.46 50.344 352.86 50.7707 351.537 51.624C350.257 52.4347 349.276 53.5227 348.593 54.888C347.91 56.2533 347.569 57.704 347.569 59.24C347.569 61.288 347.974 62.9733 348.785 64.296C349.596 65.576 350.641 66.536 351.921 67.176C353.201 67.7733 354.545 68.072 355.953 68.072ZM445.305 26.536L439.609 73H432.569L435.065 52.968H411.897L409.465 73H402.425L408.057 26.536H415.097L412.665 46.312H435.833L438.265 26.536H445.305ZM465.408 73.512C463.488 73.5547 461.632 73.064 459.84 72.04C458.091 70.9733 456.661 69.4587 455.552 67.496C454.485 65.5333 453.952 63.208 453.952 60.52C453.952 58.6853 454.272 56.872 454.912 55.08C455.595 53.2453 456.576 51.5813 457.856 50.088C459.179 48.552 460.757 47.336 462.592 46.44C464.469 45.5013 466.581 45.032 468.928 45.032C470.848 45.032 472.448 45.3093 473.728 45.864C475.051 46.376 476.139 47.0587 476.992 47.912C477.845 48.7227 478.507 49.6613 478.976 50.728L478.4 51.88L479.808 46.184H485.824L482.624 73H476.032L476.8 66.408L477.312 68.072C477.056 68.3707 476.608 68.8187 475.968 69.416C475.371 70.0133 474.581 70.632 473.6 71.272C472.619 71.912 471.445 72.4667 470.08 72.936C468.715 73.3627 467.157 73.5547 465.408 73.512ZM469.056 68.264C470.251 68.264 471.381 68.0293 472.448 67.56C473.515 67.048 474.475 66.344 475.328 65.448C476.181 64.552 476.843 63.4853 477.312 62.248L477.952 56.68C477.781 55.4427 477.333 54.3547 476.608 53.416C475.925 52.4773 475.008 51.752 473.856 51.24C472.747 50.728 471.488 50.472 470.08 50.472C468.373 50.472 466.923 50.792 465.728 51.432C464.576 52.0293 463.616 52.7973 462.848 53.736C462.123 54.6747 461.589 55.6773 461.248 56.744C460.907 57.8107 460.736 58.8133 460.736 59.752C460.736 61.416 461.077 62.888 461.76 64.168C462.485 65.448 463.467 66.4507 464.704 67.176C465.984 67.9013 467.435 68.264 469.056 68.264ZM511.086 73.64C509.124 73.64 507.204 73.1707 505.326 72.232C503.449 71.2933 502.126 70.0773 501.358 68.584L502.894 66.92L500.782 85.864H494.254L499.246 45.736H504.942L504.814 52.264L503.342 50.408C505.134 48.8293 507.076 47.5493 509.166 46.568C511.257 45.544 513.305 45.032 515.31 45.032C517.572 45.032 519.641 45.544 521.518 46.568C523.396 47.592 524.889 49.0213 525.998 50.856C527.108 52.648 527.662 54.76 527.662 57.192C527.662 60.136 526.958 62.8667 525.55 65.384C524.185 67.8587 522.265 69.864 519.79 71.4C517.316 72.8933 514.414 73.64 511.086 73.64ZM510.958 68.136C512.964 68.136 514.713 67.688 516.206 66.792C517.7 65.8533 518.852 64.616 519.662 63.08C520.516 61.544 520.942 59.9227 520.942 58.216C520.942 56.68 520.58 55.3147 519.854 54.12C519.129 52.9253 518.169 52.008 516.974 51.368C515.78 50.6853 514.457 50.344 513.006 50.344C511.684 50.344 510.446 50.6 509.294 51.112C508.185 51.624 507.182 52.3493 506.286 53.288C505.39 54.184 504.665 55.2933 504.11 56.616L503.47 61.8C503.598 62.5253 503.833 63.272 504.174 64.04C504.558 64.7653 505.049 65.448 505.646 66.088C506.244 66.6853 506.969 67.176 507.822 67.56C508.718 67.944 509.764 68.136 510.958 68.136ZM540.133 46.184H546.661L543.397 73H536.805L540.133 46.184ZM540.581 37.16C540.623 36.0933 541.029 35.1973 541.797 34.472C542.565 33.7467 543.525 33.384 544.677 33.384C545.573 33.384 546.405 33.6613 547.173 34.216C547.983 34.728 548.367 35.56 548.325 36.712C548.325 37.7787 547.941 38.6747 547.173 39.4C546.405 40.1253 545.445 40.488 544.293 40.488C543.439 40.488 542.607 40.232 541.797 39.72C540.986 39.1653 540.581 38.312 540.581 37.16ZM222.136 177.448C219.363 177.448 216.632 177 213.944 176.104C211.299 175.165 208.909 173.779 206.776 171.944C204.685 170.109 203 167.827 201.72 165.096C200.483 162.323 199.864 159.101 199.864 155.432C199.864 152.616 200.376 149.736 201.4 146.792C202.467 143.805 204.045 141.053 206.136 138.536C208.269 136.019 210.915 133.992 214.072 132.456C217.229 130.877 220.899 130.088 225.08 130.088C227.896 130.088 230.627 130.557 233.272 131.496C235.917 132.392 238.307 133.757 240.44 135.592C242.573 137.427 244.259 139.731 245.496 142.504C246.776 145.277 247.416 148.499 247.416 152.168C247.416 154.984 246.883 157.885 245.816 160.872C244.749 163.816 243.171 166.547 241.08 169.064C238.989 171.539 236.365 173.565 233.208 175.144C230.051 176.68 226.36 177.448 222.136 177.448ZM222.264 170.856C225.379 170.856 228.067 170.301 230.328 169.192C232.632 168.04 234.509 166.568 235.96 164.776C237.453 162.941 238.563 160.957 239.288 158.824C240.013 156.648 240.376 154.536 240.376 152.488C240.376 150.355 239.971 148.349 239.16 146.472C238.392 144.595 237.304 142.931 235.896 141.48C234.531 139.987 232.909 138.813 231.032 137.96C229.155 137.107 227.085 136.68 224.824 136.68C221.667 136.68 218.957 137.256 216.696 138.408C214.435 139.517 212.579 140.989 211.128 142.824C209.677 144.659 208.611 146.664 207.928 148.84C207.245 150.973 206.904 153.043 206.904 155.048C206.904 157.181 207.267 159.208 207.992 161.128C208.76 163.005 209.827 164.691 211.192 166.184C212.557 167.635 214.179 168.787 216.056 169.64C217.933 170.451 220.003 170.856 222.264 170.856ZM265.683 150.184V156.136L265.235 155.24C266.43 153.405 268.008 151.933 269.971 150.824C271.976 149.672 274.28 149.096 276.883 149.096C279.443 149.096 281.448 149.843 282.899 151.336C284.392 152.829 285.011 154.771 284.755 157.16L282.323 177H275.731L277.907 159.464C278.035 158.056 277.736 156.925 277.011 156.072C276.328 155.219 275.176 154.792 273.555 154.792C272.062 154.792 270.654 155.219 269.331 156.072C268.051 156.925 267.006 158.12 266.195 159.656C265.384 161.149 264.851 162.877 264.595 164.84L263.059 177H256.531L259.795 150.184H265.683ZM301.685 127.272H308.341L302.197 177H295.669L301.685 127.272ZM318.82 150.184H325.348L322.084 177H315.492L318.82 150.184ZM319.268 141.16C319.311 140.093 319.716 139.197 320.484 138.472C321.252 137.747 322.212 137.384 323.364 137.384C324.26 137.384 325.092 137.661 325.86 138.216C326.671 138.728 327.055 139.56 327.012 140.712C327.012 141.779 326.628 142.675 325.86 143.4C325.092 144.125 324.132 144.488 322.98 144.488C322.127 144.488 321.295 144.232 320.484 143.72C319.673 143.165 319.268 142.312 319.268 141.16ZM344.533 150.184V156.136L344.085 155.24C345.28 153.405 346.858 151.933 348.821 150.824C350.826 149.672 353.13 149.096 355.733 149.096C358.293 149.096 360.298 149.843 361.749 151.336C363.242 152.829 363.861 154.771 363.605 157.16L361.173 177H354.581L356.757 159.464C356.885 158.056 356.586 156.925 355.861 156.072C355.178 155.219 354.026 154.792 352.405 154.792C350.912 154.792 349.504 155.219 348.181 156.072C346.901 156.925 345.856 158.12 345.045 159.656C344.234 161.149 343.701 162.877 343.445 164.84L341.909 177H335.381L338.645 150.184H344.533ZM388.791 172.072C389.772 172.072 390.732 171.901 391.671 171.56C392.652 171.176 393.569 170.707 394.423 170.152L396.791 175.272C395.468 175.997 394.039 176.573 392.503 177C391.009 177.384 389.537 177.576 388.087 177.576C385.271 177.576 382.775 177.064 380.599 176.04C378.465 174.973 376.801 173.437 375.607 171.432C374.412 169.384 373.815 166.909 373.815 164.008C373.815 162.259 374.135 160.531 374.775 158.824C375.457 157.075 376.417 155.475 377.655 154.024C378.935 152.573 380.556 151.4 382.519 150.504C384.481 149.608 386.764 149.16 389.367 149.16C390.945 149.16 392.46 149.373 393.911 149.8C395.404 150.184 396.748 150.867 397.943 151.848C399.18 152.787 400.225 154.088 401.079 155.752C401.932 157.373 402.551 159.421 402.935 161.896L380.279 168.04L379.255 164.136L398.199 158.824L395.895 159.72C395.468 158.099 394.657 156.797 393.463 155.816C392.268 154.835 390.839 154.344 389.175 154.344C387.297 154.344 385.697 154.771 384.375 155.624C383.095 156.435 382.113 157.523 381.431 158.888C380.748 160.253 380.407 161.704 380.407 163.24C380.407 165.288 380.812 166.973 381.623 168.296C382.433 169.576 383.479 170.536 384.759 171.176C386.039 171.773 387.383 172.072 388.791 172.072ZM444.286 160.424C444.073 162.387 444.329 164.157 445.054 165.736C445.78 167.315 446.889 168.573 448.382 169.512C449.876 170.451 451.625 170.92 453.63 170.92C455.721 170.92 457.62 170.451 459.326 169.512C461.033 168.573 462.441 167.315 463.55 165.736C464.702 164.157 465.385 162.387 465.598 160.424L469.246 130.536H476.286L472.638 160.616C472.212 163.987 471.081 166.952 469.246 169.512C467.412 172.029 465.065 173.992 462.206 175.4C459.39 176.808 456.254 177.512 452.798 177.512C449.556 177.512 446.676 176.808 444.158 175.4C441.641 173.992 439.742 172.029 438.462 169.512C437.225 166.952 436.82 163.987 437.246 160.616L440.894 130.536H447.934L444.286 160.424ZM494.833 150.184V156.136L494.385 155.24C495.58 153.405 497.158 151.933 499.121 150.824C501.126 149.672 503.43 149.096 506.033 149.096C508.593 149.096 510.598 149.843 512.049 151.336C513.542 152.829 514.161 154.771 513.905 157.16L511.473 177H504.881L507.057 159.464C507.185 158.056 506.886 156.925 506.161 156.072C505.478 155.219 504.326 154.792 502.705 154.792C501.212 154.792 499.804 155.219 498.481 156.072C497.201 156.925 496.156 158.12 495.345 159.656C494.534 161.149 494.001 162.877 493.745 164.84L492.209 177H485.681L488.945 150.184H494.833ZM528.082 150.184H534.61L531.346 177H524.754L528.082 150.184ZM528.53 141.16C528.573 140.093 528.978 139.197 529.746 138.472C530.514 137.747 531.474 137.384 532.626 137.384C533.522 137.384 534.354 137.661 535.122 138.216C535.933 138.728 536.317 139.56 536.274 140.712C536.274 141.779 535.89 142.675 535.122 143.4C534.354 144.125 533.394 144.488 532.242 144.488C531.389 144.488 530.557 144.232 529.746 143.72C528.936 143.165 528.53 142.312 528.53 141.16ZM555.588 177.704L543.748 150.184H551.556L558.852 170.728L554.884 170.6L566.34 150.184H573.7L555.844 177.704H555.588ZM593.553 172.072C594.534 172.072 595.494 171.901 596.433 171.56C597.414 171.176 598.332 170.707 599.185 170.152L601.553 175.272C600.23 175.997 598.801 176.573 597.265 177C595.772 177.384 594.3 177.576 592.849 177.576C590.033 177.576 587.537 177.064 585.361 176.04C583.228 174.973 581.564 173.437 580.369 171.432C579.174 169.384 578.577 166.909 578.577 164.008C578.577 162.259 578.897 160.531 579.537 158.824C580.22 157.075 581.18 155.475 582.417 154.024C583.697 152.573 585.318 151.4 587.281 150.504C589.244 149.608 591.526 149.16 594.129 149.16C595.708 149.16 597.222 149.373 598.673 149.8C600.166 150.184 601.51 150.867 602.705 151.848C603.942 152.787 604.988 154.088 605.841 155.752C606.694 157.373 607.313 159.421 607.697 161.896L585.041 168.04L584.017 164.136L602.961 158.824L600.657 159.72C600.23 158.099 599.42 156.797 598.225 155.816C597.03 154.835 595.601 154.344 593.937 154.344C592.06 154.344 590.46 154.771 589.137 155.624C587.857 156.435 586.876 157.523 586.193 158.888C585.51 160.253 585.169 161.704 585.169 163.24C585.169 165.288 585.574 166.973 586.385 168.296C587.196 169.576 588.241 170.536 589.521 171.176C590.801 171.773 592.145 172.072 593.553 172.072ZM625.445 150.184L624.997 156.584C625.893 154.963 627.024 153.597 628.389 152.488C629.755 151.379 631.184 150.547 632.677 149.992C634.171 149.395 635.515 149.096 636.709 149.096L635.557 155.624C633.595 155.496 631.781 155.88 630.117 156.776C628.496 157.672 627.173 158.867 626.149 160.36C625.125 161.853 624.507 163.453 624.293 165.16L622.821 177H616.293L619.557 150.184H625.445ZM652.693 177.576C651.882 177.576 650.816 177.448 649.493 177.192C648.213 176.979 646.912 176.531 645.589 175.848C644.266 175.123 643.093 174.077 642.069 172.712L645.269 169.192C646.208 170.301 647.104 171.112 647.957 171.624C648.853 172.136 649.706 172.477 650.517 172.648C651.328 172.776 652.053 172.84 652.693 172.84C654.186 172.84 655.232 172.477 655.829 171.752C656.469 170.984 656.789 170.259 656.789 169.576C656.789 168.765 656.512 168.125 655.957 167.656C655.402 167.144 654.677 166.717 653.781 166.376C652.928 165.992 652.032 165.629 651.093 165.288C649.13 164.52 647.658 163.517 646.677 162.28C645.696 161.043 645.205 159.592 645.205 157.928C645.205 157.075 645.354 156.157 645.653 155.176C645.994 154.195 646.528 153.256 647.253 152.36C648.021 151.464 649.024 150.739 650.261 150.184C651.541 149.587 653.12 149.288 654.997 149.288C655.893 149.288 656.896 149.373 658.005 149.544C659.157 149.715 660.33 150.056 661.525 150.568C662.72 151.037 663.829 151.763 664.853 152.744L661.781 156.648C660.97 155.624 660.032 154.899 658.965 154.472C657.941 154.045 656.896 153.832 655.829 153.832C654.933 153.832 654.186 154.003 653.589 154.344C653.034 154.643 652.608 155.048 652.309 155.56C652.053 156.029 651.925 156.499 651.925 156.968C651.968 157.736 652.266 158.376 652.821 158.888C653.376 159.357 654.08 159.763 654.933 160.104C655.829 160.445 656.704 160.808 657.557 161.192C658.794 161.704 659.861 162.301 660.757 162.984C661.696 163.667 662.4 164.499 662.869 165.48C663.381 166.419 663.573 167.613 663.445 169.064C663.402 170.045 663.146 171.048 662.677 172.072C662.208 173.053 661.546 173.971 660.693 174.824C659.84 175.635 658.752 176.296 657.429 176.808C656.106 177.32 654.528 177.576 652.693 177.576ZM677.27 150.184H683.798L680.534 177H673.942L677.27 150.184ZM677.718 141.16C677.761 140.093 678.166 139.197 678.934 138.472C679.702 137.747 680.662 137.384 681.814 137.384C682.71 137.384 683.542 137.661 684.31 138.216C685.121 138.728 685.505 139.56 685.462 140.712C685.462 141.779 685.078 142.675 684.31 143.4C683.542 144.125 682.582 144.488 681.43 144.488C680.577 144.488 679.745 144.232 678.934 143.72C678.123 143.165 677.718 142.312 677.718 141.16ZM700.871 138.408H707.463L706.055 150.248H713.223L712.583 155.432H705.415L702.791 177H696.199L698.823 155.432H694.087L694.727 150.248H699.463L700.871 138.408ZM721.813 189.864L744.405 150.184H750.485L728.341 189.864H721.813ZM730.197 177.192L720.597 150.184H727.957L735.701 173.864L730.197 177.192Z" fill="#489398"/>
<path d="M1252.88 509.881C1252.88 647.952 1140.95 759.881 1002.88 759.881C864.81 759.881 752.881 647.952 752.881 509.881C752.881 371.81 864.81 259.881 1002.88 259.881C1140.95 259.881 1252.88 371.81 1252.88 509.881ZM888.496 509.881C888.496 573.054 939.708 624.265 1002.88 624.265C1066.05 624.265 1117.27 573.054 1117.27 509.881C1117.27 446.708 1066.05 395.496 1002.88 395.496C939.708 395.496 888.496 446.708 888.496 509.881Z" fill="#A5A5A5"/>
<path d="M941.331 445.781C947.631 445.781 953.131 447.056 957.831 449.606C962.531 452.156 966.181 455.756 968.781 460.406C971.381 465.056 972.681 470.556 972.681 476.906C972.681 484.956 970.981 492.881 967.581 500.681C964.181 508.481 959.581 515.856 953.781 522.806C947.981 529.706 941.456 535.906 934.206 541.406C926.956 546.906 919.506 551.431 911.856 554.981L902.031 543.506C905.731 541.856 909.756 539.781 914.106 537.281C918.506 534.781 922.906 531.906 927.306 528.656C931.756 525.356 935.906 521.706 939.756 517.706C943.656 513.706 946.981 509.406 949.731 504.806C952.531 500.156 954.406 495.256 955.356 490.106L958.281 496.106C955.031 500.606 950.931 504.206 945.981 506.906C941.031 509.606 935.181 510.956 928.431 510.956C920.331 510.956 913.856 508.456 909.006 503.456C904.206 498.406 901.806 491.806 901.806 483.656C901.806 476.556 903.506 470.156 906.906 464.456C910.356 458.706 915.056 454.156 921.006 450.806C927.006 447.456 933.781 445.781 941.331 445.781ZM939.981 460.406C935.881 460.406 932.206 461.381 928.956 463.331C925.756 465.231 923.231 467.806 921.381 471.056C919.531 474.306 918.606 477.881 918.606 481.781C918.606 486.031 919.956 489.531 922.656 492.281C925.356 495.031 928.931 496.406 933.381 496.406C937.531 496.406 941.256 495.431 944.556 493.481C947.856 491.481 950.456 488.856 952.356 485.606C954.256 482.356 955.181 478.756 955.131 474.806C955.031 470.556 953.556 467.106 950.706 464.456C947.906 461.756 944.331 460.406 939.981 460.406ZM1004.14 554.906C998.235 554.906 992.91 554.156 988.16 552.656C983.46 551.156 979.135 549.006 975.185 546.206L983.21 531.581C986.51 533.831 989.885 535.681 993.335 537.131C996.835 538.531 1000.79 539.231 1005.19 539.231C1009.44 539.231 1013.19 538.381 1016.44 536.681C1019.74 534.981 1022.31 532.606 1024.16 529.556C1026.06 526.456 1027.01 522.831 1027.01 518.681C1027.01 513.181 1025.34 508.906 1021.99 505.856C1018.64 502.806 1013.71 501.281 1007.21 501.281C1003.96 501.281 1000.69 501.456 997.385 501.806C994.135 502.106 990.885 502.581 987.635 503.231L1003.84 447.881H1052.14L1048.16 464.606H1006.46L1016.59 457.106L1005.04 495.056L1000.16 488.531C1002.36 487.931 1004.64 487.506 1006.99 487.256C1009.34 486.956 1011.79 486.806 1014.34 486.806C1023.74 486.806 1031.11 489.431 1036.46 494.681C1041.86 499.931 1044.56 507.106 1044.56 516.206C1044.56 523.906 1042.74 530.681 1039.09 536.531C1035.49 542.331 1030.61 546.856 1024.46 550.106C1018.36 553.306 1011.59 554.906 1004.14 554.906Z" fill="black"/>
<path d="M792.743 374.448C762.595 421.225 748.917 476.725 753.875 532.154C758.833 587.584 782.144 639.775 820.116 680.459C858.087 721.143 908.548 747.995 963.504 756.76C1018.46 765.526 1074.77 755.704 1123.51 728.85C1172.26 701.997 1210.65 659.647 1232.6 608.51C1254.56 557.373 1258.82 500.373 1244.72 446.538C1230.62 392.702 1198.96 345.111 1154.76 311.303C1110.55 277.494 1056.33 259.401 1000.68 259.89L1001.87 394.564C1027.54 394.338 1052.55 402.684 1072.94 418.28C1093.33 433.875 1107.93 455.828 1114.44 480.661C1120.94 505.495 1118.98 531.788 1108.85 555.377C1098.72 578.966 1081.01 598.501 1058.53 610.888C1036.04 623.275 1010.07 627.806 984.717 623.763C959.366 619.719 936.09 607.333 918.574 588.566C901.058 569.799 890.305 545.724 888.018 520.155C885.731 494.586 892.04 468.985 905.947 447.407L792.743 374.448Z" fill="#CCB57A"/>
<path d="M1066.6 532.785C1063.66 532.785 1061.44 531.889 1059.94 530.097C1058.47 528.284 1057.75 525.926 1057.77 523.025C1057.77 520.294 1058.31 517.724 1059.4 515.313C1060.51 512.881 1062.06 510.918 1064.04 509.425C1066.05 507.932 1068.39 507.185 1071.08 507.185C1073.88 507.185 1076.06 508.038 1077.64 509.745C1079.22 511.43 1080.01 513.724 1080.01 516.625C1080.01 518.716 1079.69 520.732 1079.05 522.673C1078.41 524.593 1077.5 526.321 1076.33 527.857C1075.16 529.372 1073.75 530.577 1072.1 531.473C1070.46 532.348 1068.63 532.785 1066.6 532.785ZM1067.5 527.569C1068.93 527.569 1070.11 527.014 1071.05 525.905C1072.01 524.796 1072.72 523.441 1073.19 521.841C1073.68 520.241 1073.93 518.694 1073.93 517.201C1073.93 515.58 1073.6 514.374 1072.94 513.585C1072.28 512.796 1071.36 512.401 1070.18 512.401C1068.71 512.401 1067.51 512.956 1066.57 514.065C1065.63 515.174 1064.94 516.54 1064.49 518.161C1064.04 519.761 1063.82 521.308 1063.82 522.801C1063.82 524.337 1064.12 525.521 1064.71 526.353C1065.33 527.164 1066.26 527.569 1067.5 527.569ZM1063.24 552.881L1097.38 508.081H1103.37L1069.29 552.881H1063.24ZM1095.21 553.777C1092.26 553.777 1090.05 552.881 1088.55 551.089C1087.08 549.276 1086.36 546.918 1086.38 544.017C1086.38 541.286 1086.92 538.716 1088.01 536.305C1089.12 533.873 1090.66 531.91 1092.65 530.417C1094.65 528.924 1097 528.177 1099.69 528.177C1102.48 528.177 1104.67 529.03 1106.25 530.737C1107.83 532.422 1108.62 534.716 1108.62 537.617C1108.62 539.708 1108.3 541.724 1107.66 543.665C1107.02 545.585 1106.11 547.313 1104.94 548.849C1103.76 550.364 1102.36 551.569 1100.71 552.465C1099.07 553.34 1097.24 553.777 1095.21 553.777ZM1096.1 548.561C1097.53 548.561 1098.72 548.006 1099.66 546.897C1100.62 545.788 1101.33 544.433 1101.8 542.833C1102.29 541.233 1102.54 539.686 1102.54 538.193C1102.54 536.572 1102.21 535.366 1101.54 534.577C1100.88 533.788 1099.97 533.393 1098.79 533.393C1097.32 533.393 1096.12 533.948 1095.18 535.057C1094.24 536.166 1093.54 537.532 1093.1 539.153C1092.65 540.753 1092.42 542.3 1092.42 543.793C1092.42 545.329 1092.72 546.513 1093.32 547.345C1093.94 548.156 1094.87 548.561 1096.1 548.561ZM1133.58 537.969H1142.03V531.377H1133.58V524.401H1142.79V521.457C1144.27 522.545 1145.93 523.825 1146.76 524.657C1152.59 521.009 1156.04 515.441 1157.51 507.377H1164.3C1163.98 513.073 1163.53 515.441 1162.95 516.273C1162.44 516.785 1161.87 516.913 1161.1 516.913C1160.14 516.913 1158.15 516.913 1155.91 516.657C1156.94 518.385 1157.71 521.073 1157.77 523.057C1160.65 523.185 1163.27 523.121 1164.87 522.929C1166.6 522.673 1168.01 522.161 1169.16 520.753C1170.7 518.961 1171.27 514.289 1171.72 503.665C1171.79 502.769 1171.79 501.041 1171.79 501.041H1143.56V507.377H1150.41C1149.32 512.689 1147.02 516.593 1142.79 519.281V517.681H1132.62V511.793H1141.71V505.201H1132.62V498.737H1125.58V505.201H1116.23V511.793H1125.58V517.681H1114.76V524.401H1126.79V543.537C1125.32 541.873 1124.17 539.633 1123.21 536.753C1123.34 533.937 1123.47 530.993 1123.47 528.049L1116.81 527.601C1116.75 538.481 1116.23 548.785 1113.03 555.121C1114.63 555.761 1117.83 557.553 1119.11 558.449C1120.39 555.505 1121.35 552.049 1122.06 548.081C1127.11 555.249 1134.73 556.849 1146.63 556.849H1171.47C1171.98 554.545 1173.26 551.089 1174.35 549.297C1168.59 549.617 1151.5 549.617 1146.63 549.553C1141.39 549.553 1137.03 549.233 1133.58 548.081V537.969ZM1152.27 531.633H1162.7V539.569H1152.27V531.633ZM1145.16 545.585H1170.25V525.489H1145.16V545.585Z" fill="black"/>
<path d="M1036.23 343.001C1037.05 344.873 1037.77 347.273 1038.06 348.953H1028.89L1031.38 348.233C1030.9 346.697 1029.8 344.537 1028.7 342.761C1032.78 342.569 1036.95 342.281 1040.98 341.897L1036.23 343.001ZM1024.33 353.897H1055.29V359.369H1060.86V348.953H1054.04C1055.14 347.177 1056.39 345.209 1057.5 343.193L1051.4 341.753C1050.68 343.913 1049.43 346.745 1048.28 348.953H1039.93L1043.48 348.089C1043.19 346.361 1042.28 343.817 1041.32 341.897C1047.7 341.321 1053.9 340.553 1059.08 339.593L1055.24 334.985C1046.5 336.665 1032.06 337.817 1019.43 338.249C1019.96 339.497 1020.63 341.657 1020.73 343.097C1023.03 343.049 1025.48 342.953 1027.88 342.809L1023.61 344.009C1024.47 345.545 1025.38 347.465 1025.86 348.953H1019V359.369H1024.33V353.897ZM1046.46 362.825C1044.73 365.033 1042.47 366.857 1039.93 368.393C1037.05 366.809 1034.6 364.985 1032.63 362.825H1046.46ZM1051.21 357.353L1050.15 357.593H1025.91V362.825H1028.17L1026.58 363.497C1028.7 366.425 1031.24 368.969 1034.17 371.033C1029.42 372.809 1023.85 373.913 1017.85 374.537C1019.05 375.689 1020.63 378.233 1021.21 379.577C1027.98 378.665 1034.36 377.081 1039.88 374.441C1045.06 376.985 1051.26 378.617 1058.22 379.481C1058.98 377.945 1060.52 375.449 1061.72 374.153C1055.82 373.625 1050.44 372.521 1045.83 370.889C1049.72 368.057 1052.89 364.409 1055.05 359.705L1051.21 357.353ZM1080.54 336.713H1067.82V341.033H1080.54V336.713ZM1082.07 343.337H1065.46V347.849H1082.07V343.337ZM1080.68 350.201H1067.53V354.473H1080.68V350.201ZM1067.53 361.193H1080.68V356.873H1067.53V361.193ZM1076.07 368.153V373.625H1072.09V368.153H1076.07ZM1080.82 363.641H1067.38V380.009H1072.09V378.137H1080.82V363.641ZM1098.44 368.537V366.281H1102.9V368.537H1098.44ZM1089.22 366.281H1093.74V368.537H1089.22V366.281ZM1093.74 360.521V362.777H1089.22V360.521H1093.74ZM1102.9 360.521V362.777H1098.44V360.521H1102.9ZM1093.45 348.473H1099.02V350.537H1093.45V348.473ZM1093.45 342.617H1099.02V344.537H1093.45V342.617ZM1110.49 368.537H1108.09V356.585H1098.44V354.857H1110.39V350.537H1104.15V348.473H1108.52V344.537H1104.15V342.617H1109.53V338.585H1104.15V335.225H1099.02V338.585H1093.45V335.225H1088.36V338.585H1083.37V342.617H1088.36V344.537H1084.23V348.473H1088.36V350.537H1082.12V354.857H1093.74V356.585H1084.42V368.537H1082.02V373.049H1084.42V380.057H1089.22V373.049H1102.9V374.969C1102.9 375.545 1102.71 375.689 1102.09 375.737C1101.51 375.737 1099.4 375.737 1097.53 375.641C1098.1 376.889 1098.68 378.713 1098.82 380.057C1102.04 380.057 1104.39 380.009 1105.98 379.289C1107.61 378.569 1108.09 377.417 1108.09 375.017V373.049H1110.49V368.537ZM1144.57 347.993C1144.14 345.449 1142.94 341.753 1141.54 338.873L1137.51 340.265C1138.71 343.145 1139.91 346.985 1140.25 349.529L1144.57 347.993ZM1115.1 363.305C1114.71 367.337 1114.04 371.609 1112.65 374.441C1113.75 374.825 1115.72 375.785 1116.63 376.361C1118.02 373.289 1119.08 368.585 1119.46 364.025L1115.1 363.305ZM1125.03 364.217C1126.09 367.049 1127.05 370.649 1127.24 373.049L1131.22 371.753C1130.94 369.353 1129.98 365.849 1128.78 363.113L1125.03 364.217ZM1152.78 338.441C1152.25 341.369 1150.9 345.593 1149.85 348.281L1153.64 349.625C1154.84 347.177 1156.33 343.337 1157.67 339.977L1152.78 338.441ZM1121.72 355.673C1122.58 354.569 1123.4 353.369 1124.26 352.121C1124.79 353.129 1125.27 354.281 1125.7 355.433L1121.72 355.673ZM1158.34 372.713H1136.79V365.177C1137.61 366.617 1138.62 368.777 1139.05 370.265C1141.21 368.297 1143.22 365.225 1144.9 361.961V372.041H1149.85V361.721C1151.67 364.025 1153.64 366.665 1154.65 368.345L1158.01 363.929C1156.86 362.681 1151.91 357.689 1149.85 355.913V355.193H1157.38V350.105H1149.85V336.185H1144.9V350.105H1137.75V355.193H1143.51C1141.93 358.697 1139.34 362.537 1136.79 364.793V337.049H1131.46V359.321C1130.74 356.681 1129.4 353.321 1128.01 350.585L1124.26 352.121C1126.38 349.097 1128.44 345.881 1130.22 342.953L1125.7 340.889C1124.6 343.241 1123.16 346.025 1121.58 348.713C1121.14 348.089 1120.62 347.417 1120.04 346.745C1121.72 344.057 1123.69 340.265 1125.42 336.953L1120.57 335.273C1119.8 337.721 1118.46 340.985 1117.11 343.625C1116.73 343.241 1116.34 342.857 1115.96 342.521L1113.22 346.217C1115.19 348.281 1117.54 350.969 1118.79 353.177C1118.17 354.137 1117.5 355.097 1116.87 355.961C1115.48 356.009 1114.23 356.105 1113.08 356.153L1113.66 361.097L1119.99 360.617V380.057H1124.79V360.233L1127.24 360.041C1127.53 361.049 1127.72 361.961 1127.86 362.777L1131.46 361.193V379.913H1136.79V377.897H1158.34V372.713ZM1189.74 346.409H1181.53V351.017H1204.14V346.409H1195.4V343.625H1205.53V338.969H1195.4V335.225H1189.74V338.969H1179.8V343.625H1189.74V346.409ZM1163.1 363.305C1162.71 367.337 1162.04 371.609 1160.65 374.441C1161.8 374.873 1163.86 375.785 1164.82 376.457C1166.17 373.385 1167.22 368.633 1167.66 364.073L1163.1 363.305ZM1175.62 359.993C1175.91 361.049 1176.2 362.009 1176.34 362.825L1179.66 361.289V362.729H1184.41V357.641H1201.02V362.729H1206.01V353.225H1179.66V357.737C1178.79 355.433 1177.59 352.841 1176.34 350.681L1172.31 352.361C1172.84 353.321 1173.37 354.377 1173.85 355.433L1169.67 355.673C1172.7 351.833 1175.96 347.081 1178.6 343.049L1173.94 340.889C1172.84 343.241 1171.3 345.977 1169.62 348.665C1169.19 348.089 1168.66 347.417 1168.09 346.793C1169.86 344.105 1171.83 340.313 1173.51 337.001L1168.57 335.273C1167.8 337.721 1166.46 340.937 1165.11 343.577C1164.73 343.241 1164.34 342.905 1164.01 342.569L1161.22 346.409C1163.14 348.377 1165.35 350.969 1166.7 353.129C1165.98 354.137 1165.26 355.097 1164.54 355.961L1161.08 356.153L1161.66 361.097L1168.33 360.569V380.057H1173.22V360.185L1175.62 359.993ZM1173.66 364.313C1174.71 367.049 1175.62 370.601 1175.86 372.953L1180.09 371.561C1179.8 369.257 1178.79 365.753 1177.64 363.113L1173.66 364.313ZM1185.42 363.785C1185.42 367.289 1184.31 372.569 1176.44 376.313C1177.69 377.321 1179.46 378.953 1180.33 380.105C1189.26 375.737 1190.55 368.825 1190.55 363.881V360.041H1185.42V363.785ZM1199.86 374.777C1199.24 374.777 1199.14 374.585 1199.14 373.289V360.041H1194.01V373.289C1194.01 378.041 1194.87 379.577 1198.95 379.577H1202.02C1205.29 379.577 1206.58 377.801 1207.06 370.937C1205.62 370.553 1203.51 369.737 1202.5 368.825C1202.41 374.009 1202.17 374.777 1201.5 374.777H1199.86ZM1222.76 358.841L1221.9 355.289C1217.48 357.017 1212.87 358.793 1209.85 359.753L1212.54 364.361C1215.13 363.209 1218.3 361.721 1221.32 360.233L1221.9 363.545C1226.5 363.209 1232.36 362.777 1238.17 362.249C1238.6 363.113 1238.94 363.929 1239.18 364.649L1243.5 362.729C1243.16 361.721 1242.58 360.521 1241.86 359.273C1244.79 360.953 1247.86 363.065 1249.5 364.505L1253.62 361.097C1251.37 359.225 1246.9 356.585 1243.59 354.953L1240.66 357.305C1239.9 356.153 1239.03 355.001 1238.26 353.993L1234.23 355.673C1234.81 356.489 1235.43 357.353 1235.96 358.265L1231.02 358.505C1234.09 355.625 1237.3 352.265 1239.94 349.145L1235.48 347.081C1234.28 348.809 1232.74 350.729 1231.11 352.697C1230.39 352.121 1229.58 351.545 1228.71 350.921C1230.1 349.289 1231.69 347.321 1233.18 345.401L1232.12 345.017H1251.99V339.929H1234.66V335.273H1228.81V339.929H1211.91V345.017H1227.61C1226.94 346.217 1226.12 347.561 1225.35 348.713L1224.2 348.041L1221.99 350.681C1220.22 349.193 1217.29 347.321 1215.08 346.121L1211.29 349.241C1213.83 350.681 1217 352.985 1218.49 354.521L1221.99 351.545C1224.01 352.889 1226.31 354.569 1228.04 356.057C1227.13 356.969 1226.22 357.881 1225.3 358.745L1222.76 358.841ZM1244.94 353.993C1247.1 352.505 1249.88 350.345 1252.33 348.089L1247.24 345.641C1245.61 347.609 1242.92 350.105 1240.76 351.737L1244.94 353.993ZM1234.66 363.161H1228.81V366.233H1210.38V371.513H1228.81V380.057H1234.66V371.513H1253.48V366.233H1234.66V363.161Z" fill="black"/>
</svg>
