<svg width="1300" height="886" viewBox="0 0 1300 886" fill="none" xmlns="http://www.w3.org/2000/svg">
<rect x="2.5" y="88.5" width="1295" height="795" rx="17.5" fill="white" stroke="#728EF3" stroke-width="5"/>
<rect x="40" y="431" width="200" height="100" rx="5" fill="#9CB468"/>
<path d="M70.1364 504V497.909L86.2955 482.068C87.8409 480.508 89.1288 479.121 90.1591 477.909C91.1894 476.697 91.9621 475.523 92.4773 474.386C92.9924 473.25 93.25 472.038 93.25 470.75C93.25 469.28 92.9167 468.023 92.25 466.977C91.5833 465.917 90.6667 465.098 89.5 464.523C88.3333 463.947 87.0076 463.659 85.5227 463.659C83.9924 463.659 82.6515 463.977 81.5 464.614C80.3485 465.235 79.4545 466.121 78.8182 467.273C78.197 468.424 77.8864 469.795 77.8864 471.386H69.8636C69.8636 468.432 70.5379 465.864 71.8864 463.682C73.2348 461.5 75.0909 459.811 77.4545 458.614C79.8333 457.417 82.5606 456.818 85.6364 456.818C88.7576 456.818 91.5 457.402 93.8636 458.568C96.2273 459.735 98.0606 461.333 99.3636 463.364C100.682 465.394 101.341 467.712 101.341 470.318C101.341 472.061 101.008 473.773 100.341 475.455C99.6742 477.136 98.5 479 96.8182 481.045C95.1515 483.091 92.8106 485.568 89.7955 488.477L81.7727 496.636V496.955H102.045V504H70.1364ZM127.091 504.886C123.348 504.886 120.136 503.939 117.455 502.045C114.788 500.136 112.735 497.386 111.295 493.795C109.871 490.189 109.159 485.848 109.159 480.773C109.174 475.697 109.894 471.379 111.318 467.818C112.758 464.242 114.811 461.515 117.477 459.636C120.159 457.758 123.364 456.818 127.091 456.818C130.818 456.818 134.023 457.758 136.705 459.636C139.386 461.515 141.439 464.242 142.864 467.818C144.303 471.394 145.023 475.712 145.023 480.773C145.023 485.864 144.303 490.212 142.864 493.818C141.439 497.409 139.386 500.152 136.705 502.045C134.038 503.939 130.833 504.886 127.091 504.886ZM127.091 497.773C130 497.773 132.295 496.341 133.977 493.477C135.674 490.598 136.523 486.364 136.523 480.773C136.523 477.076 136.136 473.97 135.364 471.455C134.591 468.939 133.5 467.045 132.091 465.773C130.682 464.485 129.015 463.841 127.091 463.841C124.197 463.841 121.909 465.28 120.227 468.159C118.545 471.023 117.697 475.227 117.682 480.773C117.667 484.485 118.038 487.606 118.795 490.136C119.568 492.667 120.659 494.576 122.068 495.864C123.477 497.136 125.152 497.773 127.091 497.773ZM170.134 471.232L171.286 478.592L210.198 473.344L209.11 466.048L170.134 471.232ZM194.262 453.696C197.526 456.96 201.43 461.504 203.03 464.448L209.174 460.48C207.382 457.472 203.35 453.184 200.022 450.112L194.262 453.696ZM166.614 450.176C162.646 459.84 155.926 469.376 149.014 475.328C150.358 477.184 152.534 481.28 153.302 483.136C161.302 475.776 169.11 463.936 173.91 452.608L166.614 450.176ZM159.958 468.544V509.632H167.894V460.864L167.83 460.736L159.958 468.544ZM182.102 450.624C183.254 485.504 187.03 508.224 202.198 509.632C205.782 509.824 209.238 506.88 210.902 494.464C209.494 493.76 206.038 491.712 204.566 490.112C204.118 497.152 203.286 500.48 201.814 500.352C194.07 499.264 190.358 478.016 189.91 450.624H182.102Z" fill="black"/>
<rect x="250" y="431" width="200" height="100" rx="5" fill="#9CB468"/>
<path d="M296.841 502C293.568 502 290.659 501.439 288.114 500.318C285.583 499.197 283.583 497.636 282.114 495.636C280.644 493.636 279.864 491.325 279.773 488.704H288.318C288.394 489.962 288.811 491.06 289.568 492C290.326 492.924 291.333 493.644 292.591 494.159C293.848 494.674 295.258 494.931 296.818 494.931C298.485 494.931 299.962 494.644 301.25 494.068C302.538 493.477 303.545 492.659 304.273 491.613C305 490.568 305.356 489.363 305.341 488C305.356 486.591 304.992 485.348 304.25 484.272C303.508 483.197 302.432 482.356 301.023 481.75C299.629 481.144 297.947 480.841 295.977 480.841H291.864V474.341H295.977C297.598 474.341 299.015 474.06 300.227 473.5C301.455 472.939 302.417 472.151 303.114 471.136C303.811 470.106 304.152 468.916 304.136 467.568C304.152 466.25 303.856 465.106 303.25 464.136C302.659 463.151 301.818 462.386 300.727 461.841C299.652 461.295 298.386 461.022 296.932 461.022C295.508 461.022 294.189 461.28 292.977 461.795C291.765 462.31 290.788 463.045 290.045 464C289.303 464.939 288.909 466.06 288.864 467.363H280.75C280.811 464.757 281.561 462.469 283 460.5C284.455 458.515 286.394 456.969 288.818 455.863C291.242 454.742 293.962 454.181 296.977 454.181C300.083 454.181 302.78 454.765 305.068 455.931C307.371 457.083 309.152 458.636 310.409 460.591C311.667 462.545 312.295 464.704 312.295 467.068C312.311 469.689 311.538 471.886 309.977 473.659C308.432 475.431 306.402 476.591 303.886 477.136V477.5C307.159 477.954 309.667 479.166 311.409 481.136C313.167 483.091 314.038 485.522 314.023 488.431C314.023 491.038 313.28 493.371 311.795 495.431C310.326 497.477 308.295 499.083 305.705 500.25C303.129 501.416 300.174 502 296.841 502ZM339.028 502.25C335.286 502.25 332.074 501.303 329.392 499.409C326.725 497.5 324.672 494.75 323.233 491.159C321.809 487.553 321.097 483.212 321.097 478.136C321.112 473.06 321.831 468.742 323.256 465.181C324.695 461.606 326.748 458.878 329.415 457C332.097 455.121 335.301 454.181 339.028 454.181C342.756 454.181 345.96 455.121 348.642 457C351.324 458.878 353.377 461.606 354.801 465.181C356.241 468.757 356.96 473.075 356.96 478.136C356.96 483.227 356.241 487.575 354.801 491.181C353.377 494.772 351.324 497.515 348.642 499.409C345.975 501.303 342.771 502.25 339.028 502.25ZM339.028 495.136C341.938 495.136 344.233 493.704 345.915 490.841C347.612 487.962 348.46 483.727 348.46 478.136C348.46 474.439 348.074 471.333 347.301 468.818C346.528 466.303 345.438 464.409 344.028 463.136C342.619 461.848 340.953 461.204 339.028 461.204C336.134 461.204 333.847 462.644 332.165 465.522C330.483 468.386 329.634 472.591 329.619 478.136C329.604 481.848 329.975 484.969 330.733 487.5C331.506 490.03 332.597 491.939 334.006 493.227C335.415 494.5 337.089 495.136 339.028 495.136ZM382.071 468.595L383.223 475.955L422.135 470.707L421.047 463.411L382.071 468.595ZM406.199 451.059C409.463 454.323 413.367 458.867 414.967 461.811L421.111 457.843C419.319 454.835 415.287 450.547 411.959 447.475L406.199 451.059ZM378.551 447.539C374.583 457.203 367.863 466.739 360.951 472.691C362.295 474.547 364.471 478.643 365.239 480.499C373.239 473.139 381.047 461.299 385.847 449.971L378.551 447.539ZM371.895 465.907V506.995H379.831V458.227L379.767 458.099L371.895 465.907ZM394.039 447.987C395.191 482.867 398.967 505.587 414.135 506.995C417.719 507.187 421.175 504.243 422.839 491.827C421.431 491.123 417.975 489.075 416.503 487.475C416.055 494.515 415.223 497.843 413.751 497.715C406.007 496.627 402.295 475.379 401.847 447.987H394.039Z" fill="black"/>
<rect x="462" y="431" width="200" height="100" rx="5" fill="#9CB468"/>
<path d="M490.295 495.364V488.659L510.045 457.455H515.636V467H512.227L498.932 488.068V488.432H526.5V495.364H490.295ZM512.5 504V493.318L512.591 490.318V457.455H520.545V504H512.5ZM550.966 504.886C547.223 504.886 544.011 503.939 541.33 502.045C538.663 500.136 536.61 497.386 535.17 493.795C533.746 490.189 533.034 485.848 533.034 480.773C533.049 475.697 533.769 471.379 535.193 467.818C536.633 464.242 538.686 461.515 541.352 459.636C544.034 457.758 547.239 456.818 550.966 456.818C554.693 456.818 557.898 457.758 560.58 459.636C563.261 461.515 565.314 464.242 566.739 467.818C568.178 471.394 568.898 475.712 568.898 480.773C568.898 485.864 568.178 490.212 566.739 493.818C565.314 497.409 563.261 500.152 560.58 502.045C557.913 503.939 554.708 504.886 550.966 504.886ZM550.966 497.773C553.875 497.773 556.17 496.341 557.852 493.477C559.549 490.598 560.398 486.364 560.398 480.773C560.398 477.076 560.011 473.97 559.239 471.455C558.466 468.939 557.375 467.045 555.966 465.773C554.557 464.485 552.89 463.841 550.966 463.841C548.072 463.841 545.784 465.28 544.102 468.159C542.42 471.023 541.572 475.227 541.557 480.773C541.542 484.485 541.913 487.606 542.67 490.136C543.443 492.667 544.534 494.576 545.943 495.864C547.352 497.136 549.027 497.773 550.966 497.773ZM594.009 471.232L595.161 478.592L634.073 473.344L632.985 466.048L594.009 471.232ZM618.137 453.696C621.401 456.96 625.305 461.504 626.905 464.448L633.049 460.48C631.257 457.472 627.225 453.184 623.897 450.112L618.137 453.696ZM590.489 450.176C586.521 459.84 579.801 469.376 572.889 475.328C574.233 477.184 576.409 481.28 577.177 483.136C585.177 475.776 592.985 463.936 597.785 452.608L590.489 450.176ZM583.833 468.544V509.632H591.769V460.864L591.705 460.736L583.833 468.544ZM605.977 450.624C607.129 485.504 610.905 508.224 626.073 509.632C629.657 509.824 633.113 506.88 634.777 494.464C633.369 493.76 629.913 491.712 628.441 490.112C627.993 497.152 627.161 500.48 625.689 500.352C617.945 499.264 614.233 478.016 613.785 450.624H605.977Z" fill="black"/>
<path d="M185.784 554.72L181.016 554.24C181.048 556.256 180.792 558.592 180.344 561.024C178.712 561.152 177.208 561.248 176.216 561.28C175.032 561.312 173.944 561.376 172.792 561.28L173.176 565.632C174.136 565.472 175.832 565.248 176.728 565.088C177.336 565.024 178.328 564.896 179.48 564.768C178.328 569.152 176.12 575.616 173.016 579.808L177.176 581.472C180.12 576.768 182.488 569.184 183.704 564.32C184.6 564.256 185.4 564.192 185.912 564.192C187.928 564.192 189.016 564.544 189.016 567.104C189.016 570.272 188.6 574.144 187.736 575.968C187.224 577.024 186.392 577.344 185.336 577.344C184.472 577.344 182.648 577.024 181.4 576.672L182.104 580.896C183.192 581.12 184.696 581.344 185.944 581.344C188.344 581.344 190.136 580.64 191.192 578.4C192.568 575.616 193.016 570.432 193.016 566.656C193.016 562.048 190.616 560.544 187.224 560.544C186.552 560.544 185.592 560.608 184.536 560.672C184.76 559.52 184.984 558.336 185.208 557.376C185.368 556.576 185.592 555.552 185.784 554.72ZM196.792 557.728L192.984 559.36C195.256 562.176 197.528 567.968 198.36 571.52L202.424 569.632C201.464 566.592 198.776 560.48 196.792 557.728ZM213.688 554.24L212.664 558.08C215.16 558.72 222.296 560.224 225.528 560.64L226.488 556.736C223.704 556.416 216.728 555.2 213.688 554.24ZM213.88 560.672L209.592 560.064C209.368 564.032 208.632 570.304 207.992 573.44L211.672 574.368C211.96 573.728 212.28 573.216 212.856 572.512C214.872 570.08 218.136 568.736 221.752 568.736C224.536 568.736 226.52 570.272 226.52 572.352C226.52 576.416 221.432 578.752 211.832 577.44L213.048 581.632C226.36 582.752 230.968 578.272 230.968 572.448C230.968 568.576 227.704 565.12 222.104 565.12C218.744 565.12 215.576 566.048 212.664 568.16C212.888 566.336 213.464 562.432 213.88 560.672ZM253.72 577.6H248.184V575.52H253.72V577.6ZM263.96 568.384H238.296V582.784H242.008V571.552H260.12V578.688C260.12 579.072 259.992 579.168 259.512 579.2C259.16 579.232 258.168 579.232 257.08 579.2V572.992H244.856V581.6H248.184V580.16H256.44C256.792 580.992 257.08 581.984 257.176 582.72C259.48 582.72 261.176 582.688 262.36 582.112C263.608 581.536 263.96 580.512 263.96 578.752V568.384ZM255.864 564.48H245.88V562.528H255.864V564.48ZM242.264 560V567.04H259.736V560H242.264ZM252.728 555.552V552.864H248.856V555.552H237.016V558.784H264.984V555.552H252.728ZM275.32 557.12L270.392 557.056C270.584 558.048 270.648 559.424 270.648 560.32C270.648 562.272 270.68 566.016 271 568.96C271.896 577.536 274.936 580.704 278.456 580.704C281.016 580.704 283.032 578.752 285.144 573.184L281.944 569.28C281.336 571.84 280.056 575.584 278.552 575.584C276.536 575.584 275.576 572.416 275.128 567.808C274.936 565.504 274.904 563.104 274.936 561.024C274.936 560.128 275.096 558.272 275.32 557.12ZM291.32 557.856L287.256 559.168C290.744 563.136 292.44 570.912 292.952 576.064L297.144 574.432C296.792 569.536 294.36 561.536 291.32 557.856ZM311.352 553.888H301.688V556.768H311.352V553.888ZM312.568 558.176H300.056V561.184H312.568V558.176ZM308.088 574.432V578.112H304.696V574.432H308.088ZM311.384 571.424H301.464V582.336H304.696V581.088H311.384V571.424ZM301.56 569.856H311.416V567.008H301.56V569.856ZM301.56 565.536H311.416V562.624H301.56V565.536ZM329.944 568.288H322.872V558.016H329.368V554.464H313.176V558.016H319.128V568.288H312.056V571.904H319.128V582.752H322.872V571.904H329.944V568.288ZM313.432 559.968C314.104 562.368 314.648 565.44 314.744 567.456L317.944 566.688C317.816 564.704 317.208 561.696 316.504 559.328L313.432 559.968ZM326.744 567.392C327.544 565.472 328.408 562.464 329.208 559.776L325.592 559.072C325.272 561.376 324.536 564.608 323.832 566.656L326.744 567.392ZM338.424 552.96C336.856 557.376 334.232 561.792 331.48 564.576C332.088 565.504 333.08 567.52 333.432 568.416C334.104 567.712 334.744 566.912 335.384 566.048V582.752H338.968V560.352C340.056 558.304 341.048 556.16 341.848 554.048L338.424 552.96ZM352.312 563.424H350.2V559.424H352.312V563.424ZM357.656 576.992H355.512V566.72H357.656V576.992ZM344.984 566.72H346.968V576.992H344.984V566.72ZM352.312 566.72V576.992H350.168V566.72H352.312ZM361.464 559.424V556.032H341.144V559.424H346.616V563.424H341.464V582.08H344.984V580.256H357.656V581.888H361.304V563.424H355.896V559.424H361.464ZM378.552 554.336L374.328 553.984C374.264 555.136 374.04 556.384 373.688 557.664C373.176 557.664 372.632 557.664 372.152 557.664C370.52 557.664 368.152 557.536 366.52 557.28V561.024C368.28 561.152 370.616 561.216 371.928 561.216C372.056 561.216 372.184 561.216 372.344 561.216C370.904 564.096 368.632 566.944 365.272 570.048L368.696 572.608C369.784 571.2 370.712 570.048 371.672 569.088C372.888 567.904 374.872 566.88 376.664 566.88C377.56 566.88 378.424 567.168 378.904 567.968C375.256 569.856 371.416 572.416 371.416 576.512C371.416 580.64 375.128 581.856 380.152 581.856C383.16 581.856 387.096 581.6 389.208 581.312L389.336 577.184C386.52 577.728 382.968 578.08 380.248 578.08C377.112 578.08 375.608 577.6 375.608 575.84C375.608 574.24 376.888 572.992 379.288 571.616C379.256 573.024 379.224 574.56 379.128 575.52H382.968C382.936 574.048 382.872 571.68 382.84 569.888C384.792 568.992 386.616 568.288 388.056 567.712C389.144 567.296 390.84 566.656 391.864 566.368L390.264 562.656C389.08 563.264 387.96 563.776 386.712 564.32C385.4 564.896 384.056 565.44 382.392 566.208C381.688 564.576 380.088 563.744 378.136 563.744C377.08 563.744 375.352 564 374.52 564.384C375.16 563.456 375.8 562.304 376.344 561.12C379.8 561.024 383.736 560.768 386.776 560.32L386.808 556.608C383.992 557.088 380.792 557.376 377.752 557.536C378.168 556.192 378.392 555.136 378.552 554.336ZM407.64 558.24V554.688H396.056V558.24H400.472V577.568C400.472 578.016 400.312 578.176 399.832 578.208C399.352 578.208 397.72 578.208 396.216 578.144C396.728 579.168 397.208 580.832 397.336 581.824C399.8 581.856 401.496 581.76 402.68 581.152C403.832 580.544 404.184 579.52 404.184 577.6V558.24H407.64ZM412.696 571.648H421.08V573.696H412.696V571.648ZM412.696 566.976H421.08V568.992H412.696V566.976ZM412.696 562.368H421.08V564.384H412.696V562.368ZM424.792 576.448V559.584H418.072C418.328 558.88 418.616 558.112 418.904 557.344H425.784V554.144H408.152V557.344H414.616C414.488 558.08 414.328 558.848 414.168 559.584H409.176V576.448H412.44C410.84 577.76 407.736 579.264 405.176 580.064C405.944 580.8 406.968 581.92 407.512 582.688C410.264 581.76 413.592 580.128 415.704 578.464L412.792 576.448H424.792ZM417.336 578.528C419.416 579.776 422.168 581.568 423.48 582.784L426.488 580.544C425.016 579.328 422.168 577.6 420.152 576.512L417.336 578.528ZM435.32 557.12L430.392 557.056C430.584 558.048 430.648 559.424 430.648 560.32C430.648 562.272 430.68 566.016 431 568.96C431.896 577.536 434.936 580.704 438.456 580.704C441.016 580.704 443.032 578.752 445.144 573.184L441.944 569.28C441.336 571.84 440.056 575.584 438.552 575.584C436.536 575.584 435.576 572.416 435.128 567.808C434.936 565.504 434.904 563.104 434.936 561.024C434.936 560.128 435.096 558.272 435.32 557.12ZM451.32 557.856L447.256 559.168C450.744 563.136 452.44 570.912 452.952 576.064L457.144 574.432C456.792 569.536 454.36 561.536 451.32 557.856ZM460.303 557.984L460.719 562.368C464.431 561.568 470.959 560.864 473.967 560.544C471.823 562.176 469.231 565.824 469.231 570.432C469.231 577.344 475.567 580.96 482.255 581.408L483.759 577.024C478.351 576.736 473.423 574.816 473.423 569.568C473.423 565.76 476.303 561.6 480.175 560.576C481.871 560.192 484.623 560.192 486.351 560.16L486.319 556.064C484.079 556.128 480.559 556.352 477.263 556.608C471.407 557.12 466.127 557.6 463.471 557.824C462.831 557.888 461.583 557.952 460.303 557.984ZM498.351 557.12L493.423 557.056C493.615 558.048 493.679 559.424 493.679 560.32C493.679 562.272 493.711 566.016 494.031 568.96C494.927 577.536 497.967 580.704 501.487 580.704C504.047 580.704 506.063 578.752 508.175 573.184L504.975 569.28C504.367 571.84 503.087 575.584 501.583 575.584C499.567 575.584 498.607 572.416 498.159 567.808C497.967 565.504 497.935 563.104 497.967 561.024C497.967 560.128 498.127 558.272 498.351 557.12ZM514.351 557.856L510.287 559.168C513.775 563.136 515.471 570.912 515.983 576.064L520.175 574.432C519.823 569.536 517.391 561.536 514.351 557.856ZM531.119 576.384C531.119 575.296 532.367 574.4 534.639 574.4C535.535 574.4 536.399 574.496 537.263 574.624C537.295 575.2 537.295 575.648 537.295 576C537.295 577.856 536.175 578.336 534.479 578.336C532.271 578.336 531.119 577.6 531.119 576.384ZM541.135 554.112H536.815C536.943 554.72 537.007 555.712 537.007 556.32C537.007 556.704 537.007 557.216 537.007 557.824C536.591 557.824 536.175 557.824 535.759 557.824C533.807 557.824 530.159 557.504 527.855 557.12L527.951 560.768C530.063 561.056 533.775 561.344 535.791 561.344C536.175 561.344 536.559 561.344 536.975 561.344C536.943 562.432 536.943 563.584 536.943 564.64C536.431 564.64 535.919 564.64 535.407 564.64C533.711 564.64 529.775 564.416 527.695 564.032L527.727 567.808C529.839 568.064 533.487 568.224 535.343 568.224C535.919 568.224 536.463 568.224 537.007 568.224C537.039 569.184 537.071 570.208 537.135 571.2C536.495 571.136 535.823 571.104 535.151 571.104C530.223 571.104 527.247 573.376 527.247 576.608C527.247 580 529.935 581.952 535.055 581.952C539.279 581.952 541.359 579.84 541.359 577.12C541.359 576.768 541.359 576.384 541.327 575.936C543.887 577.088 546.063 578.784 547.791 580.384L550.095 576.8C548.239 575.264 545.167 573.12 541.135 571.968C541.039 570.688 540.975 569.376 540.911 568.16C543.983 568.064 546.479 567.84 549.359 567.52L549.391 563.744C546.799 564.096 544.079 564.352 540.847 564.512C540.847 563.52 540.847 562.336 540.847 561.216C543.951 561.056 546.863 560.768 548.975 560.512L549.007 556.832C546.191 557.312 543.535 557.568 540.911 557.696C540.911 557.184 540.911 556.704 540.943 556.384C540.975 555.552 541.039 554.752 541.135 554.112ZM574.927 554.208H570.287C570.383 554.592 570.511 555.68 570.607 556.992C570.639 557.248 570.639 557.568 570.671 557.984C566.319 558.048 560.495 558.176 556.847 558.176L556.943 562.048C560.879 561.824 565.871 561.632 570.703 561.568C570.735 562.272 570.735 563.008 570.735 563.712C570.319 563.648 569.903 563.616 569.455 563.616C565.967 563.616 563.055 565.984 563.055 569.6C563.055 573.504 566.095 575.488 568.559 575.488C569.071 575.488 569.551 575.424 569.999 575.328C568.239 577.248 565.423 578.304 562.191 578.976L565.615 582.368C573.423 580.192 575.855 574.88 575.855 570.72C575.855 569.056 575.471 567.552 574.703 566.336C574.703 564.928 574.671 563.168 574.671 561.536C579.023 561.536 581.999 561.6 583.919 561.696L583.951 557.92C582.287 557.888 577.903 557.952 574.671 557.952C574.703 557.568 574.703 557.216 574.703 556.96C574.735 556.448 574.863 554.72 574.927 554.208ZM566.895 569.536C566.895 567.84 568.111 566.976 569.359 566.976C570.223 566.976 570.991 567.36 571.439 568.096C571.887 570.912 570.703 571.936 569.359 571.936C568.079 571.936 566.895 571.008 566.895 569.536ZM589.02 572.064C586.204 572.064 583.868 574.4 583.868 577.248C583.868 580.096 586.204 582.432 589.02 582.432C591.9 582.432 594.204 580.096 594.204 577.248C594.204 574.4 591.9 572.064 589.02 572.064ZM589.02 580.128C587.484 580.128 586.172 578.848 586.172 577.248C586.172 575.648 587.484 574.368 589.02 574.368C590.62 574.368 591.9 575.648 591.9 577.248C591.9 578.848 590.62 580.128 589.02 580.128Z" fill="black"/>
<rect x="175" width="672" height="246" fill="white"/>
<path d="M206.328 73H199.736L205.624 25H205.688L226.104 60.008L223.224 59.368L252.088 25H252.152L246.264 73H239.48L243.448 40.424V43.944L223.352 68.2H223.224L208.76 43.944L210.296 40.744L206.328 73ZM272.033 73.512C270.113 73.5547 268.257 73.064 266.465 72.04C264.716 70.9733 263.286 69.4587 262.177 67.496C261.11 65.5333 260.577 63.208 260.577 60.52C260.577 58.6853 260.897 56.872 261.537 55.08C262.22 53.2453 263.201 51.5813 264.481 50.088C265.804 48.552 267.382 47.336 269.217 46.44C271.094 45.5013 273.206 45.032 275.553 45.032C277.473 45.032 279.073 45.3093 280.353 45.864C281.676 46.376 282.764 47.0587 283.617 47.912C284.47 48.7227 285.132 49.6613 285.601 50.728L285.025 51.88L286.433 46.184H292.449L289.249 73H282.657L283.425 66.408L283.937 68.072C283.681 68.3707 283.233 68.8187 282.593 69.416C281.996 70.0133 281.206 70.632 280.225 71.272C279.244 71.912 278.07 72.4667 276.705 72.936C275.34 73.3627 273.782 73.5547 272.033 73.512ZM275.681 68.264C276.876 68.264 278.006 68.0293 279.073 67.56C280.14 67.048 281.1 66.344 281.953 65.448C282.806 64.552 283.468 63.4853 283.937 62.248L284.577 56.68C284.406 55.4427 283.958 54.3547 283.233 53.416C282.55 52.4773 281.633 51.752 280.481 51.24C279.372 50.728 278.113 50.472 276.705 50.472C274.998 50.472 273.548 50.792 272.353 51.432C271.201 52.0293 270.241 52.7973 269.473 53.736C268.748 54.6747 268.214 55.6773 267.873 56.744C267.532 57.8107 267.361 58.8133 267.361 59.752C267.361 61.416 267.702 62.888 268.385 64.168C269.11 65.448 270.092 66.4507 271.329 67.176C272.609 67.9013 274.06 68.264 275.681 68.264ZM311.696 46.184V52.136L311.248 51.24C312.442 49.4053 314.021 47.9333 315.984 46.824C317.989 45.672 320.293 45.096 322.896 45.096C325.456 45.096 327.461 45.8427 328.912 47.336C330.405 48.8293 331.024 50.7707 330.768 53.16L328.336 73H321.744L323.92 55.464C324.048 54.056 323.749 52.9253 323.024 52.072C322.341 51.2187 321.189 50.792 319.568 50.792C318.074 50.792 316.666 51.2187 315.344 52.072C314.064 52.9253 313.018 54.12 312.208 55.656C311.397 57.1493 310.864 58.8773 310.608 60.84L309.072 73H302.544L305.808 46.184H311.696ZM355.953 68.072C356.934 68.072 357.894 67.9013 358.833 67.56C359.814 67.176 360.732 66.7067 361.585 66.152L363.953 71.272C362.63 71.9973 361.201 72.5733 359.665 73C358.172 73.384 356.7 73.576 355.249 73.576C352.433 73.576 349.937 73.064 347.761 72.04C345.628 70.9733 343.964 69.4373 342.769 67.432C341.574 65.384 340.977 62.9093 340.977 60.008C340.977 58.2587 341.297 56.5307 341.937 54.824C342.62 53.0747 343.58 51.4747 344.817 50.024C346.097 48.5733 347.718 47.4 349.681 46.504C351.644 45.608 353.926 45.16 356.529 45.16C358.108 45.16 359.622 45.3733 361.073 45.8C362.566 46.184 363.91 46.8667 365.105 47.848C366.342 48.7867 367.388 50.088 368.241 51.752C369.094 53.3733 369.713 55.4213 370.097 57.896L347.441 64.04L346.417 60.136L365.361 54.824L363.057 55.72C362.63 54.0987 361.82 52.7973 360.625 51.816C359.43 50.8347 358.001 50.344 356.337 50.344C354.46 50.344 352.86 50.7707 351.537 51.624C350.257 52.4347 349.276 53.5227 348.593 54.888C347.91 56.2533 347.569 57.704 347.569 59.24C347.569 61.288 347.974 62.9733 348.785 64.296C349.596 65.576 350.641 66.536 351.921 67.176C353.201 67.7733 354.545 68.072 355.953 68.072ZM445.305 26.536L439.609 73H432.569L435.065 52.968H411.897L409.465 73H402.425L408.057 26.536H415.097L412.665 46.312H435.833L438.265 26.536H445.305ZM465.408 73.512C463.488 73.5547 461.632 73.064 459.84 72.04C458.091 70.9733 456.661 69.4587 455.552 67.496C454.485 65.5333 453.952 63.208 453.952 60.52C453.952 58.6853 454.272 56.872 454.912 55.08C455.595 53.2453 456.576 51.5813 457.856 50.088C459.179 48.552 460.757 47.336 462.592 46.44C464.469 45.5013 466.581 45.032 468.928 45.032C470.848 45.032 472.448 45.3093 473.728 45.864C475.051 46.376 476.139 47.0587 476.992 47.912C477.845 48.7227 478.507 49.6613 478.976 50.728L478.4 51.88L479.808 46.184H485.824L482.624 73H476.032L476.8 66.408L477.312 68.072C477.056 68.3707 476.608 68.8187 475.968 69.416C475.371 70.0133 474.581 70.632 473.6 71.272C472.619 71.912 471.445 72.4667 470.08 72.936C468.715 73.3627 467.157 73.5547 465.408 73.512ZM469.056 68.264C470.251 68.264 471.381 68.0293 472.448 67.56C473.515 67.048 474.475 66.344 475.328 65.448C476.181 64.552 476.843 63.4853 477.312 62.248L477.952 56.68C477.781 55.4427 477.333 54.3547 476.608 53.416C475.925 52.4773 475.008 51.752 473.856 51.24C472.747 50.728 471.488 50.472 470.08 50.472C468.373 50.472 466.923 50.792 465.728 51.432C464.576 52.0293 463.616 52.7973 462.848 53.736C462.123 54.6747 461.589 55.6773 461.248 56.744C460.907 57.8107 460.736 58.8133 460.736 59.752C460.736 61.416 461.077 62.888 461.76 64.168C462.485 65.448 463.467 66.4507 464.704 67.176C465.984 67.9013 467.435 68.264 469.056 68.264ZM511.086 73.64C509.124 73.64 507.204 73.1707 505.326 72.232C503.449 71.2933 502.126 70.0773 501.358 68.584L502.894 66.92L500.782 85.864H494.254L499.246 45.736H504.942L504.814 52.264L503.342 50.408C505.134 48.8293 507.076 47.5493 509.166 46.568C511.257 45.544 513.305 45.032 515.31 45.032C517.572 45.032 519.641 45.544 521.518 46.568C523.396 47.592 524.889 49.0213 525.998 50.856C527.108 52.648 527.662 54.76 527.662 57.192C527.662 60.136 526.958 62.8667 525.55 65.384C524.185 67.8587 522.265 69.864 519.79 71.4C517.316 72.8933 514.414 73.64 511.086 73.64ZM510.958 68.136C512.964 68.136 514.713 67.688 516.206 66.792C517.7 65.8533 518.852 64.616 519.662 63.08C520.516 61.544 520.942 59.9227 520.942 58.216C520.942 56.68 520.58 55.3147 519.854 54.12C519.129 52.9253 518.169 52.008 516.974 51.368C515.78 50.6853 514.457 50.344 513.006 50.344C511.684 50.344 510.446 50.6 509.294 51.112C508.185 51.624 507.182 52.3493 506.286 53.288C505.39 54.184 504.665 55.2933 504.11 56.616L503.47 61.8C503.598 62.5253 503.833 63.272 504.174 64.04C504.558 64.7653 505.049 65.448 505.646 66.088C506.244 66.6853 506.969 67.176 507.822 67.56C508.718 67.944 509.764 68.136 510.958 68.136ZM540.133 46.184H546.661L543.397 73H536.805L540.133 46.184ZM540.581 37.16C540.623 36.0933 541.029 35.1973 541.797 34.472C542.565 33.7467 543.525 33.384 544.677 33.384C545.573 33.384 546.405 33.6613 547.173 34.216C547.983 34.728 548.367 35.56 548.325 36.712C548.325 37.7787 547.941 38.6747 547.173 39.4C546.405 40.1253 545.445 40.488 544.293 40.488C543.439 40.488 542.607 40.232 541.797 39.72C540.986 39.1653 540.581 38.312 540.581 37.16ZM222.136 177.448C219.363 177.448 216.632 177 213.944 176.104C211.299 175.165 208.909 173.779 206.776 171.944C204.685 170.109 203 167.827 201.72 165.096C200.483 162.323 199.864 159.101 199.864 155.432C199.864 152.616 200.376 149.736 201.4 146.792C202.467 143.805 204.045 141.053 206.136 138.536C208.269 136.019 210.915 133.992 214.072 132.456C217.229 130.877 220.899 130.088 225.08 130.088C227.896 130.088 230.627 130.557 233.272 131.496C235.917 132.392 238.307 133.757 240.44 135.592C242.573 137.427 244.259 139.731 245.496 142.504C246.776 145.277 247.416 148.499 247.416 152.168C247.416 154.984 246.883 157.885 245.816 160.872C244.749 163.816 243.171 166.547 241.08 169.064C238.989 171.539 236.365 173.565 233.208 175.144C230.051 176.68 226.36 177.448 222.136 177.448ZM222.264 170.856C225.379 170.856 228.067 170.301 230.328 169.192C232.632 168.04 234.509 166.568 235.96 164.776C237.453 162.941 238.563 160.957 239.288 158.824C240.013 156.648 240.376 154.536 240.376 152.488C240.376 150.355 239.971 148.349 239.16 146.472C238.392 144.595 237.304 142.931 235.896 141.48C234.531 139.987 232.909 138.813 231.032 137.96C229.155 137.107 227.085 136.68 224.824 136.68C221.667 136.68 218.957 137.256 216.696 138.408C214.435 139.517 212.579 140.989 211.128 142.824C209.677 144.659 208.611 146.664 207.928 148.84C207.245 150.973 206.904 153.043 206.904 155.048C206.904 157.181 207.267 159.208 207.992 161.128C208.76 163.005 209.827 164.691 211.192 166.184C212.557 167.635 214.179 168.787 216.056 169.64C217.933 170.451 220.003 170.856 222.264 170.856ZM265.683 150.184V156.136L265.235 155.24C266.43 153.405 268.008 151.933 269.971 150.824C271.976 149.672 274.28 149.096 276.883 149.096C279.443 149.096 281.448 149.843 282.899 151.336C284.392 152.829 285.011 154.771 284.755 157.16L282.323 177H275.731L277.907 159.464C278.035 158.056 277.736 156.925 277.011 156.072C276.328 155.219 275.176 154.792 273.555 154.792C272.062 154.792 270.654 155.219 269.331 156.072C268.051 156.925 267.006 158.12 266.195 159.656C265.384 161.149 264.851 162.877 264.595 164.84L263.059 177H256.531L259.795 150.184H265.683ZM301.685 127.272H308.341L302.197 177H295.669L301.685 127.272ZM318.82 150.184H325.348L322.084 177H315.492L318.82 150.184ZM319.268 141.16C319.311 140.093 319.716 139.197 320.484 138.472C321.252 137.747 322.212 137.384 323.364 137.384C324.26 137.384 325.092 137.661 325.86 138.216C326.671 138.728 327.055 139.56 327.012 140.712C327.012 141.779 326.628 142.675 325.86 143.4C325.092 144.125 324.132 144.488 322.98 144.488C322.127 144.488 321.295 144.232 320.484 143.72C319.673 143.165 319.268 142.312 319.268 141.16ZM344.533 150.184V156.136L344.085 155.24C345.28 153.405 346.858 151.933 348.821 150.824C350.826 149.672 353.13 149.096 355.733 149.096C358.293 149.096 360.298 149.843 361.749 151.336C363.242 152.829 363.861 154.771 363.605 157.16L361.173 177H354.581L356.757 159.464C356.885 158.056 356.586 156.925 355.861 156.072C355.178 155.219 354.026 154.792 352.405 154.792C350.912 154.792 349.504 155.219 348.181 156.072C346.901 156.925 345.856 158.12 345.045 159.656C344.234 161.149 343.701 162.877 343.445 164.84L341.909 177H335.381L338.645 150.184H344.533ZM388.791 172.072C389.772 172.072 390.732 171.901 391.671 171.56C392.652 171.176 393.569 170.707 394.423 170.152L396.791 175.272C395.468 175.997 394.039 176.573 392.503 177C391.009 177.384 389.537 177.576 388.087 177.576C385.271 177.576 382.775 177.064 380.599 176.04C378.465 174.973 376.801 173.437 375.607 171.432C374.412 169.384 373.815 166.909 373.815 164.008C373.815 162.259 374.135 160.531 374.775 158.824C375.457 157.075 376.417 155.475 377.655 154.024C378.935 152.573 380.556 151.4 382.519 150.504C384.481 149.608 386.764 149.16 389.367 149.16C390.945 149.16 392.46 149.373 393.911 149.8C395.404 150.184 396.748 150.867 397.943 151.848C399.18 152.787 400.225 154.088 401.079 155.752C401.932 157.373 402.551 159.421 402.935 161.896L380.279 168.04L379.255 164.136L398.199 158.824L395.895 159.72C395.468 158.099 394.657 156.797 393.463 155.816C392.268 154.835 390.839 154.344 389.175 154.344C387.297 154.344 385.697 154.771 384.375 155.624C383.095 156.435 382.113 157.523 381.431 158.888C380.748 160.253 380.407 161.704 380.407 163.24C380.407 165.288 380.812 166.973 381.623 168.296C382.433 169.576 383.479 170.536 384.759 171.176C386.039 171.773 387.383 172.072 388.791 172.072ZM444.286 160.424C444.073 162.387 444.329 164.157 445.054 165.736C445.78 167.315 446.889 168.573 448.382 169.512C449.876 170.451 451.625 170.92 453.63 170.92C455.721 170.92 457.62 170.451 459.326 169.512C461.033 168.573 462.441 167.315 463.55 165.736C464.702 164.157 465.385 162.387 465.598 160.424L469.246 130.536H476.286L472.638 160.616C472.212 163.987 471.081 166.952 469.246 169.512C467.412 172.029 465.065 173.992 462.206 175.4C459.39 176.808 456.254 177.512 452.798 177.512C449.556 177.512 446.676 176.808 444.158 175.4C441.641 173.992 439.742 172.029 438.462 169.512C437.225 166.952 436.82 163.987 437.246 160.616L440.894 130.536H447.934L444.286 160.424ZM494.833 150.184V156.136L494.385 155.24C495.58 153.405 497.158 151.933 499.121 150.824C501.126 149.672 503.43 149.096 506.033 149.096C508.593 149.096 510.598 149.843 512.049 151.336C513.542 152.829 514.161 154.771 513.905 157.16L511.473 177H504.881L507.057 159.464C507.185 158.056 506.886 156.925 506.161 156.072C505.478 155.219 504.326 154.792 502.705 154.792C501.212 154.792 499.804 155.219 498.481 156.072C497.201 156.925 496.156 158.12 495.345 159.656C494.534 161.149 494.001 162.877 493.745 164.84L492.209 177H485.681L488.945 150.184H494.833ZM528.082 150.184H534.61L531.346 177H524.754L528.082 150.184ZM528.53 141.16C528.573 140.093 528.978 139.197 529.746 138.472C530.514 137.747 531.474 137.384 532.626 137.384C533.522 137.384 534.354 137.661 535.122 138.216C535.933 138.728 536.317 139.56 536.274 140.712C536.274 141.779 535.89 142.675 535.122 143.4C534.354 144.125 533.394 144.488 532.242 144.488C531.389 144.488 530.557 144.232 529.746 143.72C528.936 143.165 528.53 142.312 528.53 141.16ZM555.588 177.704L543.748 150.184H551.556L558.852 170.728L554.884 170.6L566.34 150.184H573.7L555.844 177.704H555.588ZM593.553 172.072C594.534 172.072 595.494 171.901 596.433 171.56C597.414 171.176 598.332 170.707 599.185 170.152L601.553 175.272C600.23 175.997 598.801 176.573 597.265 177C595.772 177.384 594.3 177.576 592.849 177.576C590.033 177.576 587.537 177.064 585.361 176.04C583.228 174.973 581.564 173.437 580.369 171.432C579.174 169.384 578.577 166.909 578.577 164.008C578.577 162.259 578.897 160.531 579.537 158.824C580.22 157.075 581.18 155.475 582.417 154.024C583.697 152.573 585.318 151.4 587.281 150.504C589.244 149.608 591.526 149.16 594.129 149.16C595.708 149.16 597.222 149.373 598.673 149.8C600.166 150.184 601.51 150.867 602.705 151.848C603.942 152.787 604.988 154.088 605.841 155.752C606.694 157.373 607.313 159.421 607.697 161.896L585.041 168.04L584.017 164.136L602.961 158.824L600.657 159.72C600.23 158.099 599.42 156.797 598.225 155.816C597.03 154.835 595.601 154.344 593.937 154.344C592.06 154.344 590.46 154.771 589.137 155.624C587.857 156.435 586.876 157.523 586.193 158.888C585.51 160.253 585.169 161.704 585.169 163.24C585.169 165.288 585.574 166.973 586.385 168.296C587.196 169.576 588.241 170.536 589.521 171.176C590.801 171.773 592.145 172.072 593.553 172.072ZM625.445 150.184L624.997 156.584C625.893 154.963 627.024 153.597 628.389 152.488C629.755 151.379 631.184 150.547 632.677 149.992C634.171 149.395 635.515 149.096 636.709 149.096L635.557 155.624C633.595 155.496 631.781 155.88 630.117 156.776C628.496 157.672 627.173 158.867 626.149 160.36C625.125 161.853 624.507 163.453 624.293 165.16L622.821 177H616.293L619.557 150.184H625.445ZM652.693 177.576C651.882 177.576 650.816 177.448 649.493 177.192C648.213 176.979 646.912 176.531 645.589 175.848C644.266 175.123 643.093 174.077 642.069 172.712L645.269 169.192C646.208 170.301 647.104 171.112 647.957 171.624C648.853 172.136 649.706 172.477 650.517 172.648C651.328 172.776 652.053 172.84 652.693 172.84C654.186 172.84 655.232 172.477 655.829 171.752C656.469 170.984 656.789 170.259 656.789 169.576C656.789 168.765 656.512 168.125 655.957 167.656C655.402 167.144 654.677 166.717 653.781 166.376C652.928 165.992 652.032 165.629 651.093 165.288C649.13 164.52 647.658 163.517 646.677 162.28C645.696 161.043 645.205 159.592 645.205 157.928C645.205 157.075 645.354 156.157 645.653 155.176C645.994 154.195 646.528 153.256 647.253 152.36C648.021 151.464 649.024 150.739 650.261 150.184C651.541 149.587 653.12 149.288 654.997 149.288C655.893 149.288 656.896 149.373 658.005 149.544C659.157 149.715 660.33 150.056 661.525 150.568C662.72 151.037 663.829 151.763 664.853 152.744L661.781 156.648C660.97 155.624 660.032 154.899 658.965 154.472C657.941 154.045 656.896 153.832 655.829 153.832C654.933 153.832 654.186 154.003 653.589 154.344C653.034 154.643 652.608 155.048 652.309 155.56C652.053 156.029 651.925 156.499 651.925 156.968C651.968 157.736 652.266 158.376 652.821 158.888C653.376 159.357 654.08 159.763 654.933 160.104C655.829 160.445 656.704 160.808 657.557 161.192C658.794 161.704 659.861 162.301 660.757 162.984C661.696 163.667 662.4 164.499 662.869 165.48C663.381 166.419 663.573 167.613 663.445 169.064C663.402 170.045 663.146 171.048 662.677 172.072C662.208 173.053 661.546 173.971 660.693 174.824C659.84 175.635 658.752 176.296 657.429 176.808C656.106 177.32 654.528 177.576 652.693 177.576ZM677.27 150.184H683.798L680.534 177H673.942L677.27 150.184ZM677.718 141.16C677.761 140.093 678.166 139.197 678.934 138.472C679.702 137.747 680.662 137.384 681.814 137.384C682.71 137.384 683.542 137.661 684.31 138.216C685.121 138.728 685.505 139.56 685.462 140.712C685.462 141.779 685.078 142.675 684.31 143.4C683.542 144.125 682.582 144.488 681.43 144.488C680.577 144.488 679.745 144.232 678.934 143.72C678.123 143.165 677.718 142.312 677.718 141.16ZM700.871 138.408H707.463L706.055 150.248H713.223L712.583 155.432H705.415L702.791 177H696.199L698.823 155.432H694.087L694.727 150.248H699.463L700.871 138.408ZM721.813 189.864L744.405 150.184H750.485L728.341 189.864H721.813ZM730.197 177.192L720.597 150.184H727.957L735.701 173.864L730.197 177.192Z" fill="#489398"/>
</svg>
