<svg width="333" height="181" viewBox="0 0 333 181" fill="none" xmlns="http://www.w3.org/2000/svg">
<path d="M283.97 111.597L333 96.0499C333 96.0499 287.256 83.3056 285.241 83.2682C283.269 83.1935 314.685 60.3956 314.685 60.3956L271.22 56.434L289.184 21.0039L236.123 40.8119L223.942 3.25148L187.269 36.626L158 -1.90735e-05L133.551 36.4018L107.305 10.9504L104.325 37.4856L45.9628 12.9312L69.2728 50.2674L20.1553 36.4018L45.5684 70.3743L0 81.4743L47.3649 94.8914L5.34553 126.472L54.7259 122.51L43.2024 156.707L81.7603 139.926L78.2112 175.618L127.329 150.69L131.228 175.394L157.518 152.671L181.134 181L191.475 153.194L219.561 177.375L228.762 150.316L270.782 167.396L265.086 132.115L309.208 138.245L283.97 111.597Z" fill="#FF7D05"/>
<path d="M117.86 56.58L118.028 60.164C118.924 60.052 119.848 59.968 120.548 59.912C121.696 59.8 125.14 59.632 126.288 59.548C124.552 61.088 120.912 64.28 118.42 65.904C116.936 66.072 114.976 66.324 113.492 66.464L113.828 69.852C116.628 69.376 119.764 68.956 122.34 68.732C121.276 69.712 120.296 71.448 120.296 73.156C120.296 77.832 124.468 79.988 131.636 79.68L132.392 76.012C131.328 76.096 129.676 76.096 128.108 75.928C125.616 75.648 123.88 74.78 123.88 72.568C123.88 70.272 126.008 68.452 128.584 68.116C130.292 67.864 133.092 67.892 135.78 68.032V64.728C132.364 64.728 127.716 65.036 123.964 65.4C125.896 63.916 128.64 61.592 130.628 59.996C131.216 59.52 132.252 58.848 132.84 58.456L130.628 55.88C130.236 56.02 129.592 56.132 128.696 56.244C126.988 56.412 121.724 56.664 120.52 56.664C119.568 56.664 118.756 56.636 117.86 56.58ZM164.956 68.144C164.956 62.04 160.588 57.224 153.644 57.224C146.392 57.224 140.792 62.74 140.792 69.208C140.792 73.94 143.368 77.356 146.476 77.356C149.528 77.356 151.936 73.884 153.616 68.228C154.428 65.596 154.904 63.02 155.296 60.64C159.076 61.284 161.176 64.168 161.176 68.032C161.176 72.12 158.376 74.696 154.792 75.536C154.036 75.704 153.252 75.872 152.188 75.984L154.288 79.316C161.344 78.224 164.956 74.052 164.956 68.144ZM144.376 68.844C144.376 65.764 146.868 61.676 151.488 60.724C151.18 63.048 150.648 65.428 150.004 67.5C148.856 71.28 147.764 73.044 146.588 73.044C145.496 73.044 144.376 71.672 144.376 68.844ZM185.144 73.436H191.08V70.58H176.828V73.436H181.728V76.936H174.14V79.82H193.012V76.936H185.144V73.436ZM182.652 66.156V64.672H190.94V61.928H182.652V60.444H192.424V57.56H187.384C187.916 56.86 188.504 56.02 189.092 55.124L185.452 54.256C185.116 55.208 184.444 56.608 183.856 57.56H177.92L178.116 57.476C177.78 56.58 176.996 55.264 176.212 54.34L173.328 55.46C173.804 56.076 174.252 56.86 174.616 57.56H169.744V60.444H179.236V61.928H171.2V64.672H179.236V66.156H168.54V69.068H173.608C172.6 72.96 170.64 76.18 167.7 78.112C168.512 78.616 169.94 79.792 170.528 80.408C173.72 77.944 175.988 74.024 177.22 69.068H193.432V66.156H182.652ZM208.272 74.36C208.272 73.296 209.336 72.624 210.932 72.624C211.688 72.624 212.444 72.736 213.172 72.932C213.172 73.128 213.172 73.296 213.172 73.436C213.172 75.088 212.584 75.984 210.876 75.984C209.392 75.984 208.272 75.508 208.272 74.36ZM216.588 56.076H212.584C212.696 56.636 212.78 57.504 212.78 57.924C212.78 58.512 212.808 59.66 212.808 61.032C212.164 61.06 211.492 61.06 210.848 61.06C209.168 61.06 207.544 60.976 205.948 60.808V64.14C207.6 64.252 209.196 64.308 210.848 64.308C211.492 64.308 212.164 64.308 212.836 64.28C212.864 66.268 212.976 68.312 213.032 70.048C212.472 69.964 211.856 69.936 211.212 69.936C207.404 69.936 204.996 71.896 204.996 74.724C204.996 77.664 207.404 79.288 211.268 79.288C215.048 79.288 216.56 77.384 216.728 74.696C217.848 75.452 218.968 76.432 220.144 77.524L222.076 74.584C220.732 73.352 218.968 71.924 216.644 70.972C216.532 69.068 216.392 66.828 216.336 64.112C217.876 64 219.332 63.832 220.676 63.636V60.136C219.332 60.416 217.876 60.64 216.336 60.78C216.364 59.548 216.392 58.512 216.42 57.896C216.448 57.28 216.504 56.608 216.588 56.076ZM202.924 56.384L199.06 56.048C199.032 56.944 198.892 58.008 198.78 58.792C198.472 60.948 197.632 66.24 197.632 70.468C197.632 74.276 198.164 77.468 198.752 79.428L201.916 79.176C201.888 78.784 201.86 78.308 201.86 78.028C201.86 77.72 201.916 77.104 202 76.712C202.336 75.2 203.232 72.344 204.016 70.048L202.308 68.648C201.888 69.6 201.412 70.552 201.048 71.532C200.964 70.972 200.936 70.272 200.936 69.712C200.936 66.912 201.86 60.752 202.28 58.876C202.364 58.372 202.7 56.944 202.924 56.384Z" fill="white"/>
<path d="M73.1745 118H93.2625V113.572H85.6665C84.3705 113.572 83.1465 113.716 81.7065 113.824C87.4305 109 92.1105 104.392 92.1105 99.208C92.1105 93.808 88.1145 90.82 82.6065 90.82C78.9705 90.82 75.5505 92.476 72.8145 95.572L75.9105 98.596C78.0705 96.292 79.8705 95.032 82.3545 95.032C85.0185 95.032 86.9625 96.724 86.9625 99.388C86.9625 103.636 80.8065 109 73.1745 114.976V118ZM104.17 125.668C108.526 124.228 110.974 121.024 110.974 116.812C110.974 113.536 109.606 111.592 107.158 111.592C105.286 111.592 103.738 112.816 103.738 114.724C103.738 116.74 105.322 117.856 107.05 117.856C107.158 117.856 107.266 117.856 107.374 117.856C107.41 119.872 105.862 121.744 103.054 122.788L104.17 125.668ZM130.854 118.468C137.082 118.468 141.222 113.644 141.222 104.5C141.222 95.428 137.082 90.856 130.854 90.856C124.626 90.856 120.486 95.428 120.486 104.5C120.486 113.644 124.626 118.468 130.854 118.468ZM130.854 114.328C127.938 114.328 125.526 111.952 125.526 104.5C125.526 97.048 127.938 94.996 130.854 94.996C133.77 94.996 136.182 97.048 136.182 104.5C136.182 111.952 133.77 114.328 130.854 114.328ZM166.854 118.468C173.082 118.468 177.222 113.644 177.222 104.5C177.222 95.428 173.082 90.856 166.854 90.856C160.626 90.856 156.486 95.428 156.486 104.5C156.486 113.644 160.626 118.468 166.854 118.468ZM166.854 114.328C163.938 114.328 161.526 111.952 161.526 104.5C161.526 97.048 163.938 94.996 166.854 94.996C169.77 94.996 172.182 97.048 172.182 104.5C172.182 111.952 169.77 114.328 166.854 114.328ZM202.854 118.468C209.082 118.468 213.222 113.644 213.222 104.5C213.222 95.428 209.082 90.856 202.854 90.856C196.626 90.856 192.486 95.428 192.486 104.5C192.486 113.644 196.626 118.468 202.854 118.468ZM202.854 114.328C199.938 114.328 197.526 111.952 197.526 104.5C197.526 97.048 199.938 94.996 202.854 94.996C205.77 94.996 208.182 97.048 208.182 104.5C208.182 111.952 205.77 114.328 202.854 114.328ZM243.414 102.112V99.304H222.318V102.112H227.91C227.742 107.896 227.55 114.28 221.382 117.736C222.126 118.288 223.014 119.272 223.446 120.04C227.91 117.352 229.638 113.2 230.382 108.76H238.374C238.11 113.896 237.726 116.248 237.102 116.848C236.79 117.112 236.478 117.16 235.974 117.16C235.254 117.16 233.622 117.16 231.966 117.016C232.494 117.808 232.902 119.008 232.974 119.824C234.558 119.896 236.214 119.92 237.15 119.8C238.23 119.68 238.998 119.44 239.718 118.6C240.654 117.544 241.062 114.64 241.422 107.272C241.47 106.912 241.494 106 241.494 106H230.718C230.838 104.704 230.886 103.384 230.934 102.112H243.414ZM258.198 108.064V102.016H264.198V108.064H258.198ZM249.702 102.016H255.366V108.064H249.702V102.016ZM267.078 99.184H246.822V120.064H249.702V110.896H264.198V116.704C264.198 117.112 264.03 117.256 263.574 117.28C263.094 117.28 261.534 117.304 260.166 117.208C260.574 117.952 261.054 119.272 261.198 120.064C263.334 120.064 264.774 120.016 265.734 119.536C266.742 119.08 267.078 118.288 267.078 116.728V99.184Z" fill="white"/>
</svg>
