<svg width="400" height="80" viewBox="0 0 400 80" fill="none" xmlns="http://www.w3.org/2000/svg">
<rect x="0.5" y="0.5" width="399" height="79" rx="9.5" fill="#CCB57A" stroke="black"/>
<path d="M62.24 30.84L58.544 30.792C58.688 31.536 58.736 32.568 58.736 33.24C58.736 34.704 58.76 37.512 59 39.72C59.672 46.152 61.952 48.528 64.592 48.528C66.512 48.528 68.024 47.064 69.608 42.888L67.208 39.96C66.752 41.88 65.792 44.688 64.664 44.688C63.152 44.688 62.432 42.312 62.096 38.856C61.952 37.128 61.928 35.328 61.952 33.768C61.952 33.096 62.072 31.704 62.24 30.84ZM74.24 31.392L71.192 32.376C73.808 35.352 75.08 41.184 75.464 45.048L78.608 43.824C78.344 40.152 76.52 34.152 74.24 31.392ZM86.816 45.288C86.816 44.472 87.752 43.8 89.456 43.8C90.128 43.8 90.776 43.872 91.424 43.968C91.448 44.4 91.448 44.736 91.448 45C91.448 46.392 90.608 46.752 89.336 46.752C87.68 46.752 86.816 46.2 86.816 45.288ZM94.328 28.584H91.088C91.184 29.04 91.232 29.784 91.232 30.24C91.232 30.528 91.232 30.912 91.232 31.368C90.92 31.368 90.608 31.368 90.296 31.368C88.832 31.368 86.096 31.128 84.368 30.84L84.44 33.576C86.024 33.792 88.808 34.008 90.32 34.008C90.608 34.008 90.896 34.008 91.208 34.008C91.184 34.824 91.184 35.688 91.184 36.48C90.8 36.48 90.416 36.48 90.032 36.48C88.76 36.48 85.808 36.312 84.248 36.024L84.272 38.856C85.856 39.048 88.592 39.168 89.984 39.168C90.416 39.168 90.824 39.168 91.232 39.168C91.256 39.888 91.28 40.656 91.328 41.4C90.848 41.352 90.344 41.328 89.84 41.328C86.144 41.328 83.912 43.032 83.912 45.456C83.912 48 85.928 49.464 89.768 49.464C92.936 49.464 94.496 47.88 94.496 45.84C94.496 45.576 94.496 45.288 94.472 44.952C96.392 45.816 98.024 47.088 99.32 48.288L101.048 45.6C99.656 44.448 97.352 42.84 94.328 41.976C94.256 41.016 94.208 40.032 94.16 39.12C96.464 39.048 98.336 38.88 100.496 38.64L100.52 35.808C98.576 36.072 96.536 36.264 94.112 36.384C94.112 35.64 94.112 34.752 94.112 33.912C96.44 33.792 98.624 33.576 100.208 33.384L100.232 30.624C98.12 30.984 96.128 31.176 94.16 31.272C94.16 30.888 94.16 30.528 94.184 30.288C94.208 29.664 94.256 29.064 94.328 28.584ZM126.248 39.552C126.248 34.32 122.504 30.192 116.552 30.192C110.336 30.192 105.536 34.92 105.536 40.464C105.536 44.52 107.744 47.448 110.408 47.448C113.024 47.448 115.088 44.472 116.528 39.624C117.224 37.368 117.632 35.16 117.968 33.12C121.208 33.672 123.008 36.144 123.008 39.456C123.008 42.96 120.608 45.168 117.536 45.888C116.888 46.032 116.216 46.176 115.304 46.272L117.104 49.128C123.152 48.192 126.248 44.616 126.248 39.552ZM108.608 40.152C108.608 37.512 110.744 34.008 114.704 33.192C114.44 35.184 113.984 37.224 113.432 39C112.448 42.24 111.512 43.752 110.504 43.752C109.568 43.752 108.608 42.576 108.608 40.152ZM134.816 45.288C134.816 44.472 135.752 43.8 137.456 43.8C138.128 43.8 138.776 43.872 139.424 43.968C139.448 44.4 139.448 44.736 139.448 45C139.448 46.392 138.608 46.752 137.336 46.752C135.68 46.752 134.816 46.2 134.816 45.288ZM142.328 28.584H139.088C139.184 29.04 139.232 29.784 139.232 30.24C139.232 30.528 139.232 30.912 139.232 31.368C138.92 31.368 138.608 31.368 138.296 31.368C136.832 31.368 134.096 31.128 132.368 30.84L132.44 33.576C134.024 33.792 136.808 34.008 138.32 34.008C138.608 34.008 138.896 34.008 139.208 34.008C139.184 34.824 139.184 35.688 139.184 36.48C138.8 36.48 138.416 36.48 138.032 36.48C136.76 36.48 133.808 36.312 132.248 36.024L132.272 38.856C133.856 39.048 136.592 39.168 137.984 39.168C138.416 39.168 138.824 39.168 139.232 39.168C139.256 39.888 139.28 40.656 139.328 41.4C138.848 41.352 138.344 41.328 137.84 41.328C134.144 41.328 131.912 43.032 131.912 45.456C131.912 48 133.928 49.464 137.768 49.464C140.936 49.464 142.496 47.88 142.496 45.84C142.496 45.576 142.496 45.288 142.472 44.952C144.392 45.816 146.024 47.088 147.32 48.288L149.048 45.6C147.656 44.448 145.352 42.84 142.328 41.976C142.256 41.016 142.208 40.032 142.16 39.12C144.464 39.048 146.336 38.88 148.496 38.64L148.52 35.808C146.576 36.072 144.536 36.264 142.112 36.384C142.112 35.64 142.112 34.752 142.112 33.912C144.44 33.792 146.624 33.576 148.208 33.384L148.232 30.624C146.12 30.984 144.128 31.176 142.16 31.272C142.16 30.888 142.16 30.528 142.184 30.288C142.208 29.664 142.256 29.064 142.328 28.584ZM158.816 45.288C158.816 44.472 159.752 43.8 161.456 43.8C162.128 43.8 162.776 43.872 163.424 43.968C163.448 44.4 163.448 44.736 163.448 45C163.448 46.392 162.608 46.752 161.336 46.752C159.68 46.752 158.816 46.2 158.816 45.288ZM166.328 28.584H163.088C163.184 29.04 163.232 29.784 163.232 30.24C163.232 30.528 163.232 30.912 163.232 31.368C162.92 31.368 162.608 31.368 162.296 31.368C160.832 31.368 158.096 31.128 156.368 30.84L156.44 33.576C158.024 33.792 160.808 34.008 162.32 34.008C162.608 34.008 162.896 34.008 163.208 34.008C163.184 34.824 163.184 35.688 163.184 36.48C162.8 36.48 162.416 36.48 162.032 36.48C160.76 36.48 157.808 36.312 156.248 36.024L156.272 38.856C157.856 39.048 160.592 39.168 161.984 39.168C162.416 39.168 162.824 39.168 163.232 39.168C163.256 39.888 163.28 40.656 163.328 41.4C162.848 41.352 162.344 41.328 161.84 41.328C158.144 41.328 155.912 43.032 155.912 45.456C155.912 48 157.928 49.464 161.768 49.464C164.936 49.464 166.496 47.88 166.496 45.84C166.496 45.576 166.496 45.288 166.472 44.952C168.392 45.816 170.024 47.088 171.32 48.288L173.048 45.6C171.656 44.448 169.352 42.84 166.328 41.976C166.256 41.016 166.208 40.032 166.16 39.12C168.464 39.048 170.336 38.88 172.496 38.64L172.52 35.808C170.576 36.072 168.536 36.264 166.112 36.384C166.112 35.64 166.112 34.752 166.112 33.912C168.44 33.792 170.624 33.576 172.208 33.384L172.232 30.624C170.12 30.984 168.128 31.176 166.16 31.272C166.16 30.888 166.16 30.528 166.184 30.288C166.208 29.664 166.256 29.064 166.328 28.584ZM189.368 42.408L186.488 42.144C186.296 43.08 186.08 44.232 186.08 45.36C186.08 47.784 188.264 49.176 192.296 49.176C194.216 49.176 195.824 49.008 197.192 48.816L197.312 45.768C195.584 46.08 193.928 46.248 192.32 46.248C189.752 46.248 189.032 45.456 189.032 44.4C189.032 43.872 189.176 43.104 189.368 42.408ZM186.656 29.112L182.984 28.824C183.056 29.4 183.008 30.384 182.912 31.272C182.864 31.656 182.792 32.112 182.696 32.64C181.952 32.688 181.232 32.712 180.536 32.712C179.528 32.712 178.736 32.664 177.512 32.52L177.584 35.52C178.424 35.568 179.312 35.616 180.488 35.616C180.992 35.616 181.52 35.592 182.072 35.568C181.904 36.24 181.736 36.936 181.568 37.584C180.68 40.944 178.856 45.96 177.416 48.384L180.752 49.512C182.096 46.656 183.68 41.76 184.568 38.4C184.832 37.416 185.072 36.336 185.288 35.304C186.896 35.112 188.528 34.848 189.968 34.512V31.512C188.648 31.824 187.28 32.088 185.936 32.28C186.008 31.968 186.08 31.656 186.128 31.392C186.224 30.864 186.464 29.784 186.656 29.112ZM188.072 36.384V39.192C189.584 39 191.048 38.928 192.704 38.928C194.168 38.928 195.632 39.096 196.832 39.24L196.904 36.36C195.488 36.216 194.048 36.144 192.68 36.144C191.12 36.144 189.416 36.24 188.072 36.384ZM194.336 29.808L192.44 30.6C193.088 31.512 193.832 32.952 194.312 33.936L196.232 33.096C195.8 32.208 194.936 30.696 194.336 29.808ZM197.168 28.728L195.272 29.496C195.944 30.408 196.712 31.8 197.216 32.808L199.112 31.992C198.704 31.152 197.816 29.616 197.168 28.728ZM207.92 28.872L204.92 30.096C206 32.64 207.152 35.208 208.256 37.248C205.952 38.952 204.272 40.944 204.272 43.584C204.272 47.712 207.896 49.032 212.672 49.032C215.792 49.032 218.336 48.792 220.376 48.432L220.424 44.976C218.288 45.504 215.048 45.864 212.576 45.864C209.24 45.864 207.584 44.952 207.584 43.224C207.584 41.544 208.928 40.176 210.92 38.856C213.104 37.44 216.128 36.048 217.616 35.304C218.504 34.848 219.272 34.44 219.992 34.008L218.336 31.224C217.712 31.752 217.016 32.16 216.104 32.688C214.976 33.336 212.888 34.368 210.92 35.52C209.96 33.672 208.832 31.368 207.92 28.872ZM235.688 33.168H239.696C238.904 33.984 238.064 34.776 237.152 35.52H235.688V33.168ZM246.872 38.184V35.52H241.328C243.08 33.792 244.664 31.896 246.056 29.88L243.392 28.608C242.624 29.76 241.76 30.888 240.824 31.944V30.552H235.688V27.648H232.712V30.552H227.288V33.168H232.712V35.52H225.128V38.184H233.6C230.792 40.032 227.72 41.568 224.48 42.696C225.08 43.296 226.064 44.472 226.472 45.144C228.08 44.472 229.688 43.728 231.248 42.888V46.104C231.248 48.912 232.28 49.728 236.024 49.728H241.664C244.784 49.728 245.648 48.792 246.056 45.24C245.264 45.096 244.04 44.64 243.368 44.208C243.2 46.728 242.936 47.16 241.448 47.16H236.24C234.488 47.16 234.2 47.016 234.2 46.08V44.76C237.632 43.992 241.376 42.984 244.304 41.832L241.928 39.744C240.032 40.656 237.104 41.616 234.2 42.36V41.16C235.616 40.224 237.008 39.264 238.328 38.184H246.872ZM253.376 27.696C252.368 29.256 250.376 31.248 248.672 32.448C249.104 32.952 249.8 33.96 250.16 34.536C252.152 33.072 254.384 30.744 255.896 28.68L253.376 27.696ZM253.808 32.808C252.56 35.136 250.448 37.464 248.456 38.976C248.912 39.576 249.68 41.016 249.944 41.64C250.568 41.112 251.192 40.536 251.816 39.864V50.136H254.48V36.648C255.152 35.688 255.776 34.704 256.304 33.744L253.808 32.808ZM260.816 42.216H265.472C264.848 43.104 264.08 43.872 263.168 44.568C262.232 43.872 261.416 43.104 260.792 42.24L260.816 42.216ZM267.416 39.984L266.96 40.08H262.616C262.952 39.624 263.264 39.144 263.552 38.664C265.112 38.616 266.744 38.568 268.328 38.496C268.664 39.072 268.928 39.624 269.12 40.08L271.52 38.736C270.848 37.2 269.264 35.04 267.872 33.48L265.664 34.704C266.072 35.184 266.48 35.688 266.864 36.24L262.568 36.312C264.584 34.608 266.72 32.568 268.448 30.744L265.928 29.352C264.896 30.672 263.528 32.184 262.064 33.6C261.68 33.216 261.2 32.808 260.696 32.4C261.704 31.392 262.88 30.096 263.912 28.872L261.44 27.6C260.816 28.656 259.808 29.976 258.872 31.056C258.416 30.744 257.96 30.456 257.552 30.192L255.848 32.04C257.288 32.976 258.968 34.32 260.072 35.448C259.736 35.76 259.376 36.072 259.04 36.36C257.672 36.384 256.424 36.384 255.344 36.384L255.584 38.904L260.384 38.76C259.04 40.584 257.072 42.168 255.032 43.2C255.584 43.704 256.496 44.76 256.88 45.312C257.6 44.88 258.32 44.376 259.04 43.824C259.592 44.592 260.24 45.288 260.936 45.912C259.184 46.8 257.168 47.424 255.032 47.784C255.536 48.36 256.136 49.488 256.4 50.208C258.872 49.656 261.2 48.816 263.192 47.64C265.064 48.816 267.272 49.656 269.816 50.16C270.176 49.416 270.92 48.312 271.52 47.712C269.288 47.376 267.272 46.776 265.544 45.96C267.104 44.592 268.376 42.888 269.192 40.776L267.416 39.984ZM282.92 29.208L279.344 28.848C279.392 30.36 279.176 32.112 278.84 33.912C277.616 34.032 276.488 34.104 275.744 34.128C274.856 34.152 274.064 34.2 273.176 34.128L273.464 37.392C274.208 37.272 275.456 37.104 276.152 36.984C276.584 36.936 277.352 36.84 278.216 36.744C277.328 40.032 275.672 44.88 273.344 48.024L276.464 49.272C278.672 45.744 280.448 40.056 281.36 36.408C282.056 36.36 282.656 36.312 283.04 36.312C284.528 36.312 285.368 36.576 285.368 38.496C285.368 40.872 285.032 43.776 284.384 45.144C284 45.936 283.4 46.176 282.584 46.176C281.96 46.176 280.568 45.936 279.656 45.672L280.16 48.84C280.976 49.008 282.128 49.176 283.04 49.176C284.864 49.176 286.184 48.648 286.976 46.968C288.008 44.88 288.344 40.992 288.344 38.16C288.344 34.704 286.544 33.576 284 33.576C283.496 33.576 282.8 33.624 281.984 33.672C282.152 32.808 282.344 31.92 282.488 31.2C282.608 30.6 282.776 29.832 282.92 29.208ZM293.6 27.216L291.68 27.984C292.352 28.896 293.12 30.312 293.624 31.296L295.52 30.48C295.112 29.64 294.224 28.128 293.6 27.216ZM290.744 28.296L288.848 29.088C289.4 29.856 290 31.008 290.48 31.92L288.32 32.856C290.024 34.968 291.728 39.192 292.352 41.856L295.4 40.464C294.728 38.328 292.928 34.32 291.488 32.088L292.664 31.584C292.208 30.696 291.344 29.184 290.744 28.296ZM309.56 36.912V34.416C310.064 33.696 310.544 32.952 310.952 32.208H318.416V29.28H297.608V32.208H307.184C304.952 35.88 301.208 39.6 296.84 41.64C297.464 42.288 298.352 43.464 298.808 44.232C301.688 42.744 304.256 40.656 306.44 38.328V50.04H309.56V37.608C312.152 39.6 315.416 42.336 316.904 44.112L319.328 41.928C317.6 40.032 313.904 37.272 311.336 35.424L309.56 36.912ZM324.752 32.448H339.2V35.448H342.248V29.808H333.44V27.672H330.416V29.808H321.848V35.448H324.752V32.448ZM335.384 39.264C334.88 41.112 334.04 42.552 332.864 43.704C331.28 43.128 329.72 42.6 328.256 42.192C328.76 41.256 329.288 40.272 329.792 39.264H335.384ZM342.68 39.264V36.576H331.136C331.64 35.568 332.12 34.584 332.552 33.648L329.552 33.024C329.072 34.128 328.496 35.352 327.872 36.576H321.344V39.264H326.504C325.472 41.208 324.464 43.032 323.6 44.424L326.576 45.24L327.032 44.448C328.04 44.784 329.072 45.168 330.128 45.552C327.968 46.584 325.232 47.16 321.872 47.496C322.424 48.12 323.24 49.416 323.504 50.088C327.536 49.512 330.8 48.576 333.344 46.872C335.768 47.928 337.976 49.056 339.44 50.04L341.72 47.712C340.208 46.776 338.048 45.768 335.72 44.808C337.016 43.344 338 41.544 338.696 39.264H342.68Z" fill="black"/>
</svg>
