<svg width="400" height="80" viewBox="0 0 400 80" fill="none" xmlns="http://www.w3.org/2000/svg">
<rect x="0.5" y="0.5" width="399" height="79" rx="9.5" fill="#CCB57A" stroke="black"/>
<path d="M42.464 28.512H39.152C39.224 28.944 39.32 30.12 39.32 30.624C39.32 31.032 39.32 31.728 39.296 32.568C38.816 32.592 38.336 32.616 37.904 32.616C37.04 32.616 36.008 32.592 34.592 32.424L34.64 35.328C35.456 35.424 36.392 35.448 38 35.448C38.384 35.448 38.816 35.424 39.272 35.4C39.272 36.072 39.272 36.744 39.272 37.416C39.272 37.968 39.272 38.544 39.296 39.12C36.344 40.392 33.944 42.576 33.944 44.664C33.944 47.208 37.232 49.224 39.56 49.224C41.144 49.224 42.2 48.432 42.2 45.456C42.2 44.64 42.152 42.768 42.104 40.872C43.568 40.44 45.128 40.2 46.616 40.2C48.704 40.2 50.144 41.16 50.144 42.792C50.144 44.544 48.608 45.504 46.664 45.864C45.824 46.008 44.792 46.032 43.712 46.032L44.816 49.128C45.8 49.056 46.856 48.984 47.96 48.744C51.776 47.784 53.264 45.648 53.264 42.816C53.264 39.504 50.36 37.584 46.664 37.584C45.344 37.584 43.688 37.8 42.056 38.208C42.056 37.896 42.056 37.608 42.056 37.32C42.056 36.624 42.056 35.88 42.08 35.16C43.64 34.968 45.296 34.728 46.664 34.416L46.592 31.44C45.344 31.8 43.76 32.112 42.176 32.304C42.2 31.704 42.224 31.128 42.248 30.6C42.296 29.976 42.392 28.944 42.464 28.512ZM49.304 31.104L47.984 33.432C49.472 34.152 52.616 35.952 53.768 36.936L55.208 34.488C53.936 33.576 51.152 31.992 49.304 31.104ZM36.896 44.544C36.896 43.704 37.88 42.72 39.344 41.928C39.392 43.224 39.416 44.328 39.416 44.928C39.416 45.744 39.08 45.936 38.648 45.936C38.024 45.936 36.896 45.288 36.896 44.544ZM66.368 42.144V46.944H63.128L65.096 46.104C64.736 45 63.8 43.368 62.888 42.144H66.368ZM63.656 34.824C65.384 33.384 66.872 31.824 67.904 30.384C68.96 31.824 70.544 33.384 72.32 34.824H63.656ZM72.704 42.144C72.176 43.416 71.216 45.168 70.424 46.296L71.984 46.944H69.368V42.144H76.76V39.696H69.368V37.32H73.952V36.072C75.152 36.936 76.4 37.728 77.6 38.352C78.128 37.464 78.776 36.504 79.496 35.784C75.704 34.248 71.84 31.224 69.248 27.6H66.296C64.52 30.48 60.68 34.08 56.6 36.072C57.224 36.672 58.016 37.704 58.376 38.376C59.6 37.728 60.824 36.96 61.952 36.144V37.32H66.368V39.696H59.072V42.144H62.744L60.56 43.08C61.4 44.256 62.192 45.864 62.552 46.944H57.872V49.392H78.176V46.944H72.752C73.592 45.936 74.528 44.472 75.44 43.152L72.704 42.144ZM102.248 39.552C102.248 34.32 98.504 30.192 92.552 30.192C86.336 30.192 81.536 34.92 81.536 40.464C81.536 44.52 83.744 47.448 86.408 47.448C89.024 47.448 91.088 44.472 92.528 39.624C93.224 37.368 93.632 35.16 93.968 33.12C97.208 33.672 99.008 36.144 99.008 39.456C99.008 42.96 96.608 45.168 93.536 45.888C92.888 46.032 92.216 46.176 91.304 46.272L93.104 49.128C99.152 48.192 102.248 44.616 102.248 39.552ZM84.608 40.152C84.608 37.512 86.744 34.008 90.704 33.192C90.44 35.184 89.984 37.224 89.432 39C88.448 42.24 87.512 43.752 86.504 43.752C85.568 43.752 84.608 42.576 84.608 40.152ZM111.32 35.28H114.32V32.592H111.32V27.672H108.584V32.592H105.152V35.28H108.248C107.48 38.136 106.088 41.4 104.528 43.296C104.984 44.016 105.608 45.168 105.872 45.984C106.904 44.664 107.816 42.696 108.584 40.584V50.064H111.32V40.08C111.992 41.16 112.688 42.288 113.048 43.056L114.68 40.728C114.2 40.128 112.16 37.656 111.32 36.744V35.28ZM117.896 45.912V42.84H123.536V45.912H117.896ZM123.536 37.2V40.248H117.896V37.2H123.536ZM123.536 31.656V34.632H117.896V31.656H123.536ZM115.16 28.968V49.872H117.896V48.504H123.536V49.728H126.416V28.968H115.16ZM148.208 28.944C147.848 30.12 147.104 31.8 146.48 32.856L148.592 33.672C149.264 32.664 150.128 31.2 150.92 29.808L148.208 28.944ZM151.136 36.648C149.84 35.568 147.416 34.08 145.448 32.928C145.832 31.416 145.976 29.688 146.048 27.696H143.288C143.096 32.448 142.712 35.184 137.72 36.744C138.32 37.248 139.016 38.304 139.304 39C141.896 38.112 143.456 36.912 144.44 35.328C146.264 36.48 148.232 37.848 149.24 38.808L151.136 36.648ZM139.736 44.856C140.912 43.704 141.656 41.808 141.968 39.96L139.472 39.456C139.16 41.088 138.44 42.768 137.384 43.68L139.736 44.856ZM139.76 29.088C139.496 30.576 138.848 32.184 137.96 33.048L140.192 34.008C141.224 32.928 141.848 31.152 142.088 29.568L139.76 29.088ZM137.048 28.416H129.992V30.576H137.048V28.416ZM137.912 31.632H128.792V33.888H137.912V31.632ZM137.12 34.968H129.92V37.152H137.12V34.968ZM129.92 40.392H137.12V38.256H129.92V40.392ZM134.72 43.824V46.584H132.248V43.824H134.72ZM137.144 41.568H129.848V49.752H132.248V48.816H137.144V41.568ZM148.616 44.28C149.36 43.248 150.296 41.664 151.136 40.152L148.328 39.288C147.896 40.56 147.104 42.288 146.432 43.44C146.096 42.672 145.976 41.952 145.976 41.424V37.8H143.072V41.424C143.072 43.032 141.848 46.176 137.264 47.784C137.768 48.36 138.536 49.464 138.824 50.112C142.136 48.912 144.056 46.32 144.536 44.832C144.968 46.32 146.696 48.984 149.72 50.112C150.104 49.416 150.848 48.336 151.352 47.688C148.52 46.632 147.08 44.952 146.432 43.488L148.616 44.28ZM163.664 28.752L160.496 28.488C160.448 29.352 160.28 30.288 160.016 31.248C159.632 31.248 159.224 31.248 158.864 31.248C157.64 31.248 155.864 31.152 154.64 30.96V33.768C155.96 33.864 157.712 33.912 158.696 33.912C158.792 33.912 158.888 33.912 159.008 33.912C157.928 36.072 156.224 38.208 153.704 40.536L156.272 42.456C157.088 41.4 157.784 40.536 158.504 39.816C159.416 38.928 160.904 38.16 162.248 38.16C162.92 38.16 163.568 38.376 163.928 38.976C161.192 40.392 158.312 42.312 158.312 45.384C158.312 48.48 161.096 49.392 164.864 49.392C167.12 49.392 170.072 49.2 171.656 48.984L171.752 45.888C169.64 46.296 166.976 46.56 164.936 46.56C162.584 46.56 161.456 46.2 161.456 44.88C161.456 43.68 162.416 42.744 164.216 41.712C164.192 42.768 164.168 43.92 164.096 44.64H166.976C166.952 43.536 166.904 41.76 166.88 40.416C168.344 39.744 169.712 39.216 170.792 38.784C171.608 38.472 172.88 37.992 173.648 37.776L172.448 34.992C171.56 35.448 170.72 35.832 169.784 36.24C168.8 36.672 167.792 37.08 166.544 37.656C166.016 36.432 164.816 35.808 163.352 35.808C162.56 35.808 161.264 36 160.64 36.288C161.12 35.592 161.6 34.728 162.008 33.84C164.6 33.768 167.552 33.576 169.832 33.24L169.856 30.456C167.744 30.816 165.344 31.032 163.064 31.152C163.376 30.144 163.544 29.352 163.664 28.752ZM177.656 31.536L177.968 34.824C180.752 34.224 185.648 33.696 187.904 33.456C186.272 34.68 184.328 37.416 184.328 40.872C184.328 46.08 189.08 48.768 194.12 49.104L195.248 45.816C191.168 45.6 187.472 44.184 187.472 40.224C187.472 37.368 189.656 34.272 192.56 33.504C193.832 33.192 195.896 33.192 197.192 33.168L197.168 30.096C195.464 30.168 192.848 30.312 190.376 30.528C185.984 30.888 182.024 31.248 180.008 31.416C179.552 31.464 178.616 31.512 177.656 31.536ZM193.76 35.52L191.984 36.264C192.752 37.344 193.256 38.28 193.856 39.6L195.68 38.784C195.224 37.848 194.36 36.384 193.76 35.52ZM196.448 34.416L194.696 35.232C195.464 36.288 196.016 37.176 196.664 38.472L198.464 37.608C197.96 36.672 197.048 35.256 196.448 34.416ZM203.504 35.808L203.672 38.64C207.296 38.856 211.16 38.856 214.112 38.664C214.496 39.48 214.952 40.32 215.456 41.16C214.736 41.088 213.44 40.968 212.432 40.872L212.192 43.152C213.944 43.344 216.536 43.656 217.88 43.92L219.344 41.712C218.912 41.304 218.576 40.944 218.264 40.488C217.832 39.864 217.424 39.12 217.016 38.352C218.456 38.16 219.752 37.896 220.856 37.608L220.376 34.776C219.2 35.088 217.76 35.496 215.792 35.736C215.648 35.352 215.504 34.992 215.384 34.656C215.264 34.296 215.144 33.912 215.024 33.528C216.608 33.312 218.12 33 219.44 32.64L219.056 29.88C217.52 30.36 215.984 30.696 214.328 30.912C214.16 30.096 214.016 29.256 213.896 28.392L210.68 28.752C210.968 29.592 211.208 30.36 211.448 31.128C209.24 31.2 206.792 31.104 203.936 30.768L204.104 33.528C207.128 33.816 209.936 33.864 212.192 33.744C212.336 34.152 212.48 34.608 212.672 35.16C212.768 35.424 212.864 35.712 212.984 36C210.32 36.168 207.08 36.144 203.504 35.808ZM208.112 41.376L205.136 40.8C204.584 41.952 204.056 43.128 204.104 44.664C204.152 48.096 207.128 49.512 211.928 49.512C213.896 49.512 216.08 49.344 217.76 49.056L217.928 46.008C216.224 46.344 214.184 46.536 211.904 46.536C208.736 46.536 207.056 45.816 207.056 44.04C207.056 43.008 207.536 42.168 208.112 41.376ZM232.891 45.168C232.891 44.568 233.467 44.016 234.379 44.016C235.675 44.016 236.563 45.024 236.707 46.584C236.275 46.632 235.819 46.656 235.315 46.656C233.875 46.656 232.891 46.056 232.891 45.168ZM228.811 29.712L228.907 32.832C229.459 32.76 230.227 32.688 230.875 32.64C232.147 32.568 235.459 32.424 236.683 32.4C235.507 33.432 233.011 35.448 231.667 36.552C230.251 37.728 227.347 40.176 225.643 41.544L227.827 43.8C230.395 40.872 232.795 38.928 236.467 38.928C239.299 38.928 241.459 40.392 241.459 42.552C241.459 44.016 240.787 45.12 239.467 45.816C239.131 43.536 237.331 41.712 234.355 41.712C231.811 41.712 230.059 43.512 230.059 45.456C230.059 47.856 232.579 49.392 235.915 49.392C241.723 49.392 244.603 46.392 244.603 42.6C244.603 39.096 241.507 36.552 237.427 36.552C236.659 36.552 235.939 36.624 235.147 36.816C236.659 35.616 239.179 33.504 240.475 32.592C241.027 32.184 241.603 31.848 242.155 31.488L240.595 29.352C240.307 29.448 239.755 29.52 238.771 29.616C237.403 29.736 232.267 29.832 230.995 29.832C230.323 29.832 229.483 29.808 228.811 29.712ZM257.539 28.224C257.371 31.392 257.707 42.288 248.131 47.592C249.091 48.264 250.027 49.128 250.531 49.872C255.595 46.776 258.115 42.144 259.411 37.824C260.755 42.24 263.443 47.184 268.867 49.872C269.323 49.104 270.187 48.12 271.075 47.448C262.123 43.248 260.923 32.904 260.731 29.592C260.755 29.088 260.779 28.608 260.803 28.224H257.539ZM282.451 29.208L278.875 28.848C278.923 30.36 278.707 32.112 278.371 33.912C277.147 34.032 276.019 34.104 275.275 34.128C274.387 34.152 273.595 34.2 272.707 34.128L272.995 37.392C273.739 37.272 274.987 37.104 275.683 36.984C276.115 36.936 276.883 36.84 277.747 36.744C276.859 40.032 275.203 44.88 272.875 48.024L275.995 49.272C278.203 45.744 279.979 40.056 280.891 36.408C281.587 36.36 282.187 36.312 282.571 36.312C284.059 36.312 284.899 36.576 284.899 38.496C284.899 40.872 284.563 43.776 283.915 45.144C283.531 45.936 282.931 46.176 282.115 46.176C281.491 46.176 280.099 45.936 279.187 45.672L279.691 48.84C280.507 49.008 281.659 49.176 282.571 49.176C284.395 49.176 285.715 48.648 286.507 46.968C287.539 44.88 287.875 40.992 287.875 38.16C287.875 34.704 286.075 33.576 283.531 33.576C283.027 33.576 282.331 33.624 281.515 33.672C281.683 32.808 281.875 31.92 282.019 31.2C282.139 30.6 282.307 29.832 282.451 29.208ZM293.131 27.216L291.211 27.984C291.883 28.896 292.651 30.312 293.155 31.296L295.051 30.48C294.643 29.64 293.755 28.128 293.131 27.216ZM290.275 28.296L288.379 29.088C288.931 29.856 289.531 31.008 290.011 31.92L287.851 32.856C289.555 34.968 291.259 39.192 291.883 41.856L294.931 40.464C294.259 38.328 292.459 34.32 291.019 32.088L292.195 31.584C291.739 30.696 290.875 29.184 290.275 28.296ZM301.771 30.84L298.075 30.792C298.219 31.536 298.267 32.568 298.267 33.24C298.267 34.704 298.291 37.512 298.531 39.72C299.203 46.152 301.483 48.528 304.123 48.528C306.043 48.528 307.555 47.064 309.139 42.888L306.739 39.96C306.283 41.88 305.323 44.688 304.195 44.688C302.683 44.688 301.963 42.312 301.627 38.856C301.483 37.128 301.459 35.328 301.483 33.768C301.483 33.096 301.603 31.704 301.771 30.84ZM313.771 31.392L310.723 32.376C313.339 35.352 314.611 41.184 314.995 45.048L318.139 43.824C317.875 40.152 316.051 34.152 313.771 31.392ZM330.859 28.68L327.547 28.344C327.499 29.592 327.235 31.032 326.899 32.352C326.155 32.424 325.435 32.448 324.715 32.448C323.827 32.448 322.555 32.4 321.523 32.28L321.739 35.064C322.771 35.136 323.755 35.16 324.739 35.16C325.147 35.16 325.555 35.16 325.987 35.136C324.931 37.728 322.987 41.256 321.091 43.608L323.995 45.096C325.939 42.384 327.979 38.184 329.131 34.824C330.739 34.584 332.227 34.272 333.331 33.984L333.235 31.2C332.299 31.488 331.171 31.752 329.995 31.968C330.355 30.672 330.667 29.448 330.859 28.68ZM329.611 45.288C329.611 44.448 330.499 43.824 331.891 43.824C332.563 43.824 333.211 43.92 333.835 44.064C333.835 44.256 333.835 44.4 333.835 44.544C333.835 45.864 333.331 46.776 331.675 46.776C330.355 46.776 329.611 46.176 329.611 45.288ZM336.475 36.144H333.475C333.523 37.608 333.643 39.744 333.739 41.52C333.187 41.472 332.659 41.424 332.083 41.424C328.747 41.424 326.779 43.224 326.779 45.576C326.779 48.216 329.131 49.536 332.107 49.536C335.515 49.536 336.739 47.808 336.739 45.576C336.739 45.504 336.739 45.408 336.739 45.336C338.059 46.128 339.139 47.136 339.979 47.904L341.587 45.336C340.363 44.232 338.683 43.032 336.619 42.264C336.571 41.064 336.499 39.912 336.475 39.216C336.451 38.16 336.403 37.152 336.475 36.144ZM340.603 37.416L342.307 34.896C341.083 34.008 338.107 32.376 336.379 31.632L334.843 34.008C336.475 34.752 339.211 36.312 340.603 37.416ZM349.771 30.84L346.075 30.792C346.219 31.536 346.267 32.568 346.267 33.24C346.267 34.704 346.291 37.512 346.531 39.72C347.203 46.152 349.483 48.528 352.123 48.528C354.043 48.528 355.555 47.064 357.139 42.888L354.739 39.96C354.283 41.88 353.323 44.688 352.195 44.688C350.683 44.688 349.963 42.312 349.627 38.856C349.483 37.128 349.459 35.328 349.483 33.768C349.483 33.096 349.603 31.704 349.771 30.84ZM361.771 31.392L358.723 32.376C361.339 35.352 362.611 41.184 362.995 45.048L366.139 43.824C365.875 40.152 364.051 34.152 361.771 31.392Z" fill="black"/>
</svg>
