<svg width="400" height="80" viewBox="0 0 400 80" fill="none" xmlns="http://www.w3.org/2000/svg">
<rect x="0.5" y="0.5" width="399" height="79" rx="9.5" fill="#CCB57A" stroke="black"/>
<path d="M67.328 28.68L64.016 28.344C63.968 29.592 63.704 31.032 63.368 32.352C62.624 32.424 61.904 32.448 61.184 32.448C60.296 32.448 59.024 32.4 57.992 32.28L58.208 35.064C59.24 35.136 60.224 35.16 61.208 35.16C61.616 35.16 62.024 35.16 62.456 35.136C61.4 37.728 59.456 41.256 57.56 43.608L60.464 45.096C62.408 42.384 64.448 38.184 65.6 34.824C67.208 34.584 68.696 34.272 69.8 33.984L69.704 31.2C68.768 31.488 67.64 31.752 66.464 31.968C66.824 30.672 67.136 29.448 67.328 28.68ZM66.08 45.288C66.08 44.448 66.968 43.824 68.36 43.824C69.032 43.824 69.68 43.92 70.304 44.064C70.304 44.256 70.304 44.4 70.304 44.544C70.304 45.864 69.8 46.776 68.144 46.776C66.824 46.776 66.08 46.176 66.08 45.288ZM72.944 36.144H69.944C69.992 37.608 70.112 39.744 70.208 41.52C69.656 41.472 69.128 41.424 68.552 41.424C65.216 41.424 63.248 43.224 63.248 45.576C63.248 48.216 65.6 49.536 68.576 49.536C71.984 49.536 73.208 47.808 73.208 45.576C73.208 45.504 73.208 45.408 73.208 45.336C74.528 46.128 75.608 47.136 76.448 47.904L78.056 45.336C76.832 44.232 75.152 43.032 73.088 42.264C73.04 41.064 72.968 39.912 72.944 39.216C72.92 38.16 72.872 37.152 72.944 36.144ZM77.072 37.416L78.776 34.896C77.552 34.008 74.576 32.376 72.848 31.632L71.312 34.008C72.944 34.752 75.68 36.312 77.072 37.416ZM91.088 29.04L87.512 28.68C87.536 30.192 87.344 31.944 87.008 33.768C85.784 33.864 84.656 33.936 83.912 33.96C83.024 33.984 82.208 34.032 81.344 33.96L81.632 37.224C82.352 37.104 83.624 36.936 84.296 36.816C84.752 36.768 85.496 36.672 86.36 36.576C85.496 39.864 83.84 44.712 81.512 47.856L84.632 49.104C86.84 45.576 88.616 39.888 89.528 36.24C90.2 36.192 90.8 36.144 91.184 36.144C92.696 36.144 93.512 36.408 93.512 38.328C93.512 40.704 93.2 43.608 92.552 44.976C92.168 45.768 91.544 46.008 90.752 46.008C90.104 46.008 88.736 45.768 87.8 45.504L88.328 48.672C89.144 48.84 90.272 49.008 91.208 49.008C93.008 49.008 94.352 48.48 95.144 46.8C96.176 44.712 96.512 40.824 96.512 37.992C96.512 34.536 94.712 33.408 92.168 33.408C91.664 33.408 90.944 33.456 90.152 33.504C90.32 32.64 90.488 31.752 90.656 31.032C90.776 30.432 90.944 29.664 91.088 29.04ZM99.344 31.296L96.488 32.52C98.192 34.632 99.896 38.976 100.52 41.64L103.568 40.224C102.848 37.944 100.832 33.36 99.344 31.296ZM115.328 28.68L112.016 28.344C111.968 29.592 111.704 31.032 111.368 32.352C110.624 32.424 109.904 32.448 109.184 32.448C108.296 32.448 107.024 32.4 105.992 32.28L106.208 35.064C107.24 35.136 108.224 35.16 109.208 35.16C109.616 35.16 110.024 35.16 110.456 35.136C109.4 37.728 107.456 41.256 105.56 43.608L108.464 45.096C110.408 42.384 112.448 38.184 113.6 34.824C115.208 34.584 116.696 34.272 117.8 33.984L117.704 31.2C116.768 31.488 115.64 31.752 114.464 31.968C114.824 30.672 115.136 29.448 115.328 28.68ZM114.08 45.288C114.08 44.448 114.968 43.824 116.36 43.824C117.032 43.824 117.68 43.92 118.304 44.064C118.304 44.256 118.304 44.4 118.304 44.544C118.304 45.864 117.8 46.776 116.144 46.776C114.824 46.776 114.08 46.176 114.08 45.288ZM120.944 36.144H117.944C117.992 37.608 118.112 39.744 118.208 41.52C117.656 41.472 117.128 41.424 116.552 41.424C113.216 41.424 111.248 43.224 111.248 45.576C111.248 48.216 113.6 49.536 116.576 49.536C119.984 49.536 121.208 47.808 121.208 45.576C121.208 45.504 121.208 45.408 121.208 45.336C122.528 46.128 123.608 47.136 124.448 47.904L126.056 45.336C124.832 44.232 123.152 43.032 121.088 42.264C121.04 41.064 120.968 39.912 120.944 39.216C120.92 38.16 120.872 37.152 120.944 36.144ZM125.072 37.416L126.776 34.896C125.552 34.008 122.576 32.376 120.848 31.632L119.312 34.008C120.944 34.752 123.68 36.312 125.072 37.416ZM139.088 29.04L135.512 28.68C135.536 30.192 135.344 31.944 135.008 33.768C133.784 33.864 132.656 33.936 131.912 33.96C131.024 33.984 130.208 34.032 129.344 33.96L129.632 37.224C130.352 37.104 131.624 36.936 132.296 36.816C132.752 36.768 133.496 36.672 134.36 36.576C133.496 39.864 131.84 44.712 129.512 47.856L132.632 49.104C134.84 45.576 136.616 39.888 137.528 36.24C138.2 36.192 138.8 36.144 139.184 36.144C140.696 36.144 141.512 36.408 141.512 38.328C141.512 40.704 141.2 43.608 140.552 44.976C140.168 45.768 139.544 46.008 138.752 46.008C138.104 46.008 136.736 45.768 135.8 45.504L136.328 48.672C137.144 48.84 138.272 49.008 139.208 49.008C141.008 49.008 142.352 48.48 143.144 46.8C144.176 44.712 144.512 40.824 144.512 37.992C144.512 34.536 142.712 33.408 140.168 33.408C139.664 33.408 138.944 33.456 138.152 33.504C138.32 32.64 138.488 31.752 138.656 31.032C138.776 30.432 138.944 29.664 139.088 29.04ZM147.344 31.296L144.488 32.52C146.192 34.632 147.896 38.976 148.52 41.64L151.568 40.224C150.848 37.944 148.832 33.36 147.344 31.296ZM153.704 41.712C153.512 43.728 153.128 45.864 152.432 47.28C153.056 47.496 154.112 48 154.616 48.312C155.312 46.776 155.816 44.376 156.056 42.12L153.704 41.712ZM158.912 42.144C159.464 43.56 160.088 45.408 160.304 46.608L162.416 45.84C162.152 44.64 161.528 42.888 160.928 41.52L158.912 42.144ZM158.408 36.216C158.696 36.744 158.984 37.344 159.248 37.944L156.944 38.04C158.456 36.096 160.112 33.672 161.432 31.584L159.104 30.504C158.552 31.68 157.784 33.048 156.968 34.392C156.728 34.104 156.464 33.768 156.152 33.432C157.016 32.088 157.976 30.24 158.84 28.608L156.368 27.696C155.96 28.968 155.288 30.552 154.616 31.872C154.424 31.704 154.232 31.536 154.064 31.392L152.696 33.336C153.68 34.296 154.832 35.568 155.528 36.6C155.144 37.152 154.76 37.68 154.4 38.136L152.672 38.208L152.912 40.68L156.392 40.464V50.112H158.864V40.296L160.088 40.2C160.232 40.656 160.328 41.064 160.4 41.424L162.416 40.512C162.152 39.144 161.216 37.056 160.304 35.424L158.408 36.216ZM170.912 42.552V46.296H165.632V42.552H170.912ZM162.992 50.064H165.632V48.792H170.912V49.968H173.648V40.032H162.992V50.064ZM164.696 35.328C166.064 33.864 167.216 32.232 168.032 30.888C168.896 32.232 170.192 33.864 171.56 35.328H164.696ZM166.592 28.008C165.416 30.264 162.968 33.408 160.544 35.16C161.096 35.784 161.816 36.912 162.176 37.656C162.896 37.104 163.592 36.48 164.264 35.784V37.92H172.16V35.952C172.736 36.528 173.336 37.056 173.912 37.512C174.392 36.624 175.064 35.568 175.664 34.848C173.336 33.384 170.912 30.528 169.304 28.008H166.592ZM193.256 31.872C192.488 30.984 190.784 29.76 189.44 28.968L188.072 30.888C189.392 31.776 191.048 33.072 191.792 34.008L193.256 31.872ZM186.968 36.912C188.36 37.752 190.112 39.024 190.904 39.912L192.344 37.632C191.48 36.768 189.704 35.616 188.312 34.872L186.968 36.912ZM184.808 28.992C184.544 30.672 183.968 33.096 183.488 34.608L185.288 35.112C185.888 33.72 186.584 31.44 187.208 29.52L184.808 28.992ZM180.152 34.608C180.032 33.12 179.552 30.84 178.928 29.112L176.936 29.64C177.488 31.368 177.968 33.696 178.016 35.184L180.152 34.608ZM186.704 42.504C186.2 41.832 183.92 39.144 183.224 38.448V38.28H186.776V35.616H183.224V27.768H180.584V35.616H176.96V38.28H179.696C178.952 40.464 177.728 43.032 176.528 44.496C176.96 45.288 177.584 46.584 177.824 47.448C178.856 46.008 179.816 43.776 180.584 41.544V50.016H183.224V41.592C183.92 42.696 184.592 43.944 184.952 44.712L186.704 42.504ZM199.4 43.056L198.968 40.392L196.52 40.848V27.648H193.832V41.328L186.704 42.6L187.136 45.264L193.832 44.064V50.064H196.52V43.584L199.4 43.056ZM210.92 29.208L207.344 28.848C207.392 30.36 207.176 32.112 206.84 33.912C205.616 34.032 204.488 34.104 203.744 34.128C202.856 34.152 202.064 34.2 201.176 34.128L201.464 37.392C202.208 37.272 203.456 37.104 204.152 36.984C204.584 36.936 205.352 36.84 206.216 36.744C205.328 40.032 203.672 44.88 201.344 48.024L204.464 49.272C206.672 45.744 208.448 40.056 209.36 36.408C210.056 36.36 210.656 36.312 211.04 36.312C212.528 36.312 213.368 36.576 213.368 38.496C213.368 40.872 213.032 43.776 212.384 45.144C212 45.936 211.4 46.176 210.584 46.176C209.96 46.176 208.568 45.936 207.656 45.672L208.16 48.84C208.976 49.008 210.128 49.176 211.04 49.176C212.864 49.176 214.184 48.648 214.976 46.968C216.008 44.88 216.344 40.992 216.344 38.16C216.344 34.704 214.544 33.576 212 33.576C211.496 33.576 210.8 33.624 209.984 33.672C210.152 32.808 210.344 31.92 210.488 31.2C210.608 30.6 210.776 29.832 210.92 29.208ZM221.6 27.216L219.68 27.984C220.352 28.896 221.12 30.312 221.624 31.296L223.52 30.48C223.112 29.64 222.224 28.128 221.6 27.216ZM218.744 28.296L216.848 29.088C217.4 29.856 218 31.008 218.48 31.92L216.32 32.856C218.024 34.968 219.728 39.192 220.352 41.856L223.4 40.464C222.728 38.328 220.928 34.32 219.488 32.088L220.664 31.584C220.208 30.696 219.344 29.184 218.744 28.296ZM236.768 46.032V37.728H245.24V34.824H236.768V27.96H233.696V46.032H225.104V48.912H246.92V46.032H236.768ZM258.92 29.208L255.344 28.848C255.392 30.36 255.176 32.112 254.84 33.912C253.616 34.032 252.488 34.104 251.744 34.128C250.856 34.152 250.064 34.2 249.176 34.128L249.464 37.392C250.208 37.272 251.456 37.104 252.152 36.984C252.584 36.936 253.352 36.84 254.216 36.744C253.328 40.032 251.672 44.88 249.344 48.024L252.464 49.272C254.672 45.744 256.448 40.056 257.36 36.408C258.056 36.36 258.656 36.312 259.04 36.312C260.528 36.312 261.368 36.576 261.368 38.496C261.368 40.872 261.032 43.776 260.384 45.144C260 45.936 259.4 46.176 258.584 46.176C257.96 46.176 256.568 45.936 255.656 45.672L256.16 48.84C256.976 49.008 258.128 49.176 259.04 49.176C260.864 49.176 262.184 48.648 262.976 46.968C264.008 44.88 264.344 40.992 264.344 38.16C264.344 34.704 262.544 33.576 260 33.576C259.496 33.576 258.8 33.624 257.984 33.672C258.152 32.808 258.344 31.92 258.488 31.2C258.608 30.6 258.776 29.832 258.92 29.208ZM269.6 27.216L267.68 27.984C268.352 28.896 269.12 30.312 269.624 31.296L271.52 30.48C271.112 29.64 270.224 28.128 269.6 27.216ZM266.744 28.296L264.848 29.088C265.4 29.856 266 31.008 266.48 31.92L264.32 32.856C266.024 34.968 267.728 39.192 268.352 41.856L271.4 40.464C270.728 38.328 268.928 34.32 267.488 32.088L268.664 31.584C268.208 30.696 267.344 29.184 266.744 28.296ZM280.016 28.68L279.248 31.56C281.12 32.04 286.472 33.168 288.896 33.48L289.616 30.552C287.528 30.312 282.296 29.4 280.016 28.68ZM280.16 33.504L276.944 33.048C276.776 36.024 276.224 40.728 275.744 43.08L278.504 43.776C278.72 43.296 278.96 42.912 279.392 42.384C280.904 40.56 283.352 39.552 286.064 39.552C288.152 39.552 289.64 40.704 289.64 42.264C289.64 45.312 285.824 47.064 278.624 46.08L279.536 49.224C289.52 50.064 292.976 46.704 292.976 42.336C292.976 39.432 290.528 36.84 286.328 36.84C283.808 36.84 281.432 37.536 279.248 39.12C279.416 37.752 279.848 34.824 280.16 33.504ZM307.328 28.68L304.016 28.344C303.968 29.592 303.704 31.032 303.368 32.352C302.624 32.424 301.904 32.448 301.184 32.448C300.296 32.448 299.024 32.4 297.992 32.28L298.208 35.064C299.24 35.136 300.224 35.16 301.208 35.16C301.616 35.16 302.024 35.16 302.456 35.136C301.4 37.728 299.456 41.256 297.56 43.608L300.464 45.096C302.408 42.384 304.448 38.184 305.6 34.824C307.208 34.584 308.696 34.272 309.8 33.984L309.704 31.2C308.768 31.488 307.64 31.752 306.464 31.968C306.824 30.672 307.136 29.448 307.328 28.68ZM306.08 45.288C306.08 44.448 306.968 43.824 308.36 43.824C309.032 43.824 309.68 43.92 310.304 44.064C310.304 44.256 310.304 44.4 310.304 44.544C310.304 45.864 309.8 46.776 308.144 46.776C306.824 46.776 306.08 46.176 306.08 45.288ZM312.944 36.144H309.944C309.992 37.608 310.112 39.744 310.208 41.52C309.656 41.472 309.128 41.424 308.552 41.424C305.216 41.424 303.248 43.224 303.248 45.576C303.248 48.216 305.6 49.536 308.576 49.536C311.984 49.536 313.208 47.808 313.208 45.576C313.208 45.504 313.208 45.408 313.208 45.336C314.528 46.128 315.608 47.136 316.448 47.904L318.056 45.336C316.832 44.232 315.152 43.032 313.088 42.264C313.04 41.064 312.968 39.912 312.944 39.216C312.92 38.16 312.872 37.152 312.944 36.144ZM317.072 37.416L318.776 34.896C317.552 34.008 314.576 32.376 312.848 31.632L311.312 34.008C312.944 34.752 315.68 36.312 317.072 37.416ZM326.24 30.84L322.544 30.792C322.688 31.536 322.736 32.568 322.736 33.24C322.736 34.704 322.76 37.512 323 39.72C323.672 46.152 325.952 48.528 328.592 48.528C330.512 48.528 332.024 47.064 333.608 42.888L331.208 39.96C330.752 41.88 329.792 44.688 328.664 44.688C327.152 44.688 326.432 42.312 326.096 38.856C325.952 37.128 325.928 35.328 325.952 33.768C325.952 33.096 326.072 31.704 326.24 30.84ZM338.24 31.392L335.192 32.376C337.808 35.352 339.08 41.184 339.464 45.048L342.608 43.824C342.344 40.152 340.52 34.152 338.24 31.392Z" fill="black"/>
</svg>
