<svg width="400" height="80" viewBox="0 0 400 80" fill="none" xmlns="http://www.w3.org/2000/svg">
<rect x="0.5" y="0.5" width="399" height="79" rx="9.5" fill="#CCB57A" stroke="black"/>
<path d="M86.672 39.912V45.888H81.32V38.64H88.688V29.928H85.688V35.856H81.32V27.912H78.392V35.856H74.264V29.928H71.432V38.64H78.392V45.888H73.376V39.912H70.472V50.088H73.376V48.696H86.672V50.064H89.648V39.912H86.672ZM98.96 43.824H109.28V44.808H98.96V43.824ZM105.296 35.64V37.224H100.928C101.456 36.744 101.84 36.216 102.104 35.64H105.296ZM97.568 33.024H100.016C100.016 33.36 99.968 33.672 99.872 33.96H97.256L97.568 33.024ZM102.632 30.408H105.296V31.368H102.632V30.408ZM110.504 30.408V31.368H108.008V30.408H110.504ZM105.296 33.96H102.56C102.584 33.648 102.608 33.336 102.632 33.024H105.296V33.96ZM111.848 35.64C111.8 36 111.728 36.216 111.632 36.336C111.488 36.504 111.344 36.504 111.128 36.504C110.864 36.528 110.36 36.504 109.808 36.432C109.904 36.648 110.024 36.936 110.096 37.224H108.008V35.64H111.848ZM109.28 39.792H98.96V38.856H109.28V39.792ZM109.28 42.288H98.96V41.328H109.28V42.288ZM112.184 46.44V38.16C112.328 38.16 112.448 38.136 112.544 38.136C113.048 38.112 113.576 37.92 113.936 37.56C114.344 37.128 114.488 36.264 114.608 34.704C114.632 34.44 114.656 33.96 114.656 33.96H108.008V33.024H113.096V28.728H108.008V27.696H105.296V28.728H102.632V27.696H100.04V28.728H94.592V30.408H100.04V31.368H95.48C95.072 32.784 94.496 34.512 93.968 35.688L96.56 35.856L96.632 35.64H98.744C97.76 36.432 96.032 37.032 93.056 37.416C93.488 37.944 94.16 39.024 94.4 39.624C95.048 39.528 95.624 39.432 96.176 39.312V46.44H99.44C97.76 47.136 95.312 47.736 93.08 48.12C93.68 48.6 94.688 49.608 95.144 50.16C97.592 49.56 100.64 48.48 102.632 47.304L100.736 46.44H107.144L105.32 47.568C107.816 48.384 110.312 49.392 111.728 50.112L114.896 48.744C113.384 48.096 110.864 47.184 108.56 46.44H112.184ZM126.92 29.208L123.344 28.848C123.392 30.36 123.176 32.112 122.84 33.912C121.616 34.032 120.488 34.104 119.744 34.128C118.856 34.152 118.064 34.2 117.176 34.128L117.464 37.392C118.208 37.272 119.456 37.104 120.152 36.984C120.584 36.936 121.352 36.84 122.216 36.744C121.328 40.032 119.672 44.88 117.344 48.024L120.464 49.272C122.672 45.744 124.448 40.056 125.36 36.408C126.056 36.36 126.656 36.312 127.04 36.312C128.528 36.312 129.368 36.576 129.368 38.496C129.368 40.872 129.032 43.776 128.384 45.144C128 45.936 127.4 46.176 126.584 46.176C125.96 46.176 124.568 45.936 123.656 45.672L124.16 48.84C124.976 49.008 126.128 49.176 127.04 49.176C128.864 49.176 130.184 48.648 130.976 46.968C132.008 44.88 132.344 40.992 132.344 38.16C132.344 34.704 130.544 33.576 128 33.576C127.496 33.576 126.8 33.624 125.984 33.672C126.152 32.808 126.344 31.92 126.488 31.2C126.608 30.6 126.776 29.832 126.92 29.208ZM137.6 27.216L135.68 27.984C136.352 28.896 137.12 30.312 137.624 31.296L139.52 30.48C139.112 29.64 138.224 28.128 137.6 27.216ZM134.744 28.296L132.848 29.088C133.4 29.856 134 31.008 134.48 31.92L132.32 32.856C134.024 34.968 135.728 39.192 136.352 41.856L139.4 40.464C138.728 38.328 136.928 34.32 135.488 32.088L136.664 31.584C136.208 30.696 135.344 29.184 134.744 28.296ZM147.92 28.872L144.92 30.096C146 32.64 147.152 35.208 148.256 37.248C145.952 38.952 144.272 40.944 144.272 43.584C144.272 47.712 147.896 49.032 152.672 49.032C155.792 49.032 158.336 48.792 160.376 48.432L160.424 44.976C158.288 45.504 155.048 45.864 152.576 45.864C149.24 45.864 147.584 44.952 147.584 43.224C147.584 41.544 148.928 40.176 150.92 38.856C153.104 37.44 156.128 36.048 157.616 35.304C158.504 34.848 159.272 34.44 159.992 34.008L158.336 31.224C157.712 31.752 157.016 32.16 156.104 32.688C154.976 33.336 152.888 34.368 150.92 35.52C149.96 33.672 148.832 31.368 147.92 28.872ZM174.752 31.224V34.296C177.776 34.584 182.12 34.56 185.072 34.296V31.2C182.48 31.512 177.704 31.632 174.752 31.224ZM176.672 41.472L173.912 41.208C173.648 42.432 173.504 43.392 173.504 44.328C173.504 46.8 175.496 48.264 179.624 48.264C182.336 48.264 184.256 48.096 185.816 47.808L185.768 44.568C183.656 45 181.88 45.192 179.744 45.192C177.296 45.192 176.384 44.544 176.384 43.488C176.384 42.84 176.48 42.264 176.672 41.472ZM171.056 29.616L167.696 29.328C167.672 30.096 167.528 31.008 167.456 31.68C167.192 33.528 166.448 37.584 166.448 41.184C166.448 44.448 166.904 47.376 167.384 49.032L170.168 48.84C170.144 48.504 170.12 48.12 170.12 47.856C170.12 47.616 170.168 47.088 170.24 46.728C170.504 45.456 171.296 42.84 171.968 40.848L170.48 39.672C170.144 40.464 169.76 41.304 169.4 42.12C169.328 41.64 169.304 41.016 169.304 40.56C169.304 38.16 170.144 33.36 170.456 31.752C170.552 31.32 170.864 30.12 171.056 29.616ZM199.088 29.04L195.512 28.68C195.536 30.192 195.344 31.944 195.008 33.768C193.784 33.864 192.656 33.936 191.912 33.96C191.024 33.984 190.208 34.032 189.344 33.96L189.632 37.224C190.352 37.104 191.624 36.936 192.296 36.816C192.752 36.768 193.496 36.672 194.36 36.576C193.496 39.864 191.84 44.712 189.512 47.856L192.632 49.104C194.84 45.576 196.616 39.888 197.528 36.24C198.2 36.192 198.8 36.144 199.184 36.144C200.696 36.144 201.512 36.408 201.512 38.328C201.512 40.704 201.2 43.608 200.552 44.976C200.168 45.768 199.544 46.008 198.752 46.008C198.104 46.008 196.736 45.768 195.8 45.504L196.328 48.672C197.144 48.84 198.272 49.008 199.208 49.008C201.008 49.008 202.352 48.48 203.144 46.8C204.176 44.712 204.512 40.824 204.512 37.992C204.512 34.536 202.712 33.408 200.168 33.408C199.664 33.408 198.944 33.456 198.152 33.504C198.32 32.64 198.488 31.752 198.656 31.032C198.776 30.432 198.944 29.664 199.088 29.04ZM207.344 31.296L204.488 32.52C206.192 34.632 207.896 38.976 208.52 41.64L211.568 40.224C210.848 37.944 208.832 33.36 207.344 31.296ZM229.616 30.696L226.808 28.224C226.424 28.8 225.656 29.568 224.96 30.264C223.352 31.824 220.064 34.488 218.168 36.024C215.768 38.04 215.576 39.312 217.976 41.352C220.16 43.224 223.688 46.224 225.152 47.736C225.872 48.456 226.568 49.224 227.24 49.968L230.048 47.4C227.6 45.024 223.04 41.424 221.24 39.912C219.944 38.784 219.92 38.52 221.192 37.416C222.8 36.048 225.968 33.6 227.528 32.352C228.08 31.896 228.872 31.272 229.616 30.696ZM254.576 40.536C253.712 41.832 252.608 42.912 251.264 43.8C250.4 43.008 248.96 42.072 247.664 41.352C248.12 41.088 248.528 40.824 248.936 40.536H254.576ZM251.216 31.824C250.304 32.832 249.2 33.744 247.904 34.536C247.112 33.864 245.792 33.072 244.592 32.448C244.904 32.232 245.192 32.04 245.48 31.824H251.216ZM256.64 38.04L256.16 38.16H251.864C252.392 37.656 252.896 37.128 253.352 36.576L250.472 35.904C252.512 34.416 254.24 32.616 255.416 30.408L253.592 29.352L253.112 29.472H248.312C248.72 29.064 249.104 28.656 249.464 28.248L246.368 27.6C244.712 29.568 241.76 31.584 237.512 32.928C238.136 33.408 239.024 34.392 239.432 35.04C240.416 34.656 241.328 34.248 242.192 33.792C243.296 34.392 244.52 35.184 245.408 35.856C242.936 36.984 240.128 37.776 237.32 38.232C237.824 38.856 238.376 39.96 238.64 40.68C242.624 39.888 246.56 38.496 249.776 36.384C247.856 38.472 244.592 40.536 239.984 41.928C240.584 42.408 241.4 43.464 241.736 44.136C242.96 43.704 244.112 43.224 245.168 42.696C246.368 43.416 247.784 44.4 248.696 45.216C246.008 46.416 242.792 47.136 239.336 47.496C239.768 48.168 240.32 49.32 240.536 50.112C248.768 48.984 255.656 46.152 258.56 39.024L256.64 38.04ZM275.672 28.656H272.192C272.264 28.944 272.36 29.76 272.432 30.744C272.456 30.936 272.456 31.176 272.48 31.488C269.216 31.536 264.848 31.632 262.112 31.632L262.184 34.536C265.136 34.368 268.88 34.224 272.504 34.176C272.528 34.704 272.528 35.256 272.528 35.784C272.216 35.736 271.904 35.712 271.568 35.712C268.952 35.712 266.768 37.488 266.768 40.2C266.768 43.128 269.048 44.616 270.896 44.616C271.28 44.616 271.64 44.568 271.976 44.496C270.656 45.936 268.544 46.728 266.12 47.232L268.688 49.776C274.544 48.144 276.368 44.16 276.368 41.04C276.368 39.792 276.08 38.664 275.504 37.752C275.504 36.696 275.48 35.376 275.48 34.152C278.744 34.152 280.976 34.2 282.416 34.272L282.44 31.44C281.192 31.416 277.904 31.464 275.48 31.464C275.504 31.176 275.504 30.912 275.504 30.72C275.528 30.336 275.624 29.04 275.672 28.656ZM269.648 40.152C269.648 38.88 270.56 38.232 271.496 38.232C272.144 38.232 272.72 38.52 273.056 39.072C273.392 41.184 272.504 41.952 271.496 41.952C270.536 41.952 269.648 41.256 269.648 40.152ZM302.552 28.392L300.776 29.136C301.52 30.192 302.024 31.152 302.648 32.448L304.448 31.656C303.992 30.696 303.128 29.256 302.552 28.392ZM305.192 27.312L303.44 28.104C304.232 29.16 304.76 30.048 305.408 31.344L307.208 30.48C306.704 29.568 305.816 28.152 305.192 27.312ZM286.616 35.904L286.784 38.736C290.408 38.952 294.272 38.952 297.2 38.76C297.608 39.576 298.04 40.416 298.544 41.256C297.848 41.184 296.528 41.064 295.544 40.968L295.304 43.272C297.032 43.44 299.648 43.752 300.992 44.016L302.432 41.832C302 41.424 301.688 41.064 301.352 40.584C300.944 39.96 300.512 39.216 300.128 38.448C301.568 38.256 302.864 37.992 303.968 37.704L303.488 34.872C302.312 35.208 300.872 35.616 298.904 35.856C298.76 35.472 298.616 35.088 298.496 34.752C298.376 34.392 298.256 34.008 298.136 33.624C299.504 33.456 300.608 33.216 301.52 33L301.136 30.24C300.2 30.528 298.952 30.84 297.44 31.032C297.248 30.216 297.104 29.352 296.984 28.488L293.768 28.848C294.056 29.664 294.32 30.456 294.536 31.224C292.352 31.296 289.904 31.2 287.048 30.888L287.216 33.624C290.24 33.912 293.024 33.96 295.304 33.84C295.448 34.272 295.592 34.728 295.784 35.28C295.88 35.544 295.976 35.832 296.072 36.096C293.432 36.264 290.192 36.24 286.616 35.904ZM291.224 41.472L288.248 40.92C287.696 42.048 287.168 43.224 287.192 44.784C287.264 48.192 290.24 49.608 295.04 49.608C297.008 49.608 299.192 49.44 300.872 49.176L301.04 46.104C299.336 46.464 297.272 46.632 295.016 46.632C291.848 46.632 290.168 45.912 290.168 44.136C290.168 43.104 290.648 42.264 291.224 41.472ZM317.36 45.168C317.36 44.568 317.936 44.016 318.848 44.016C320.144 44.016 321.032 45.024 321.176 46.584C320.744 46.632 320.288 46.656 319.784 46.656C318.344 46.656 317.36 46.056 317.36 45.168ZM313.28 29.712L313.376 32.832C313.928 32.76 314.696 32.688 315.344 32.64C316.616 32.568 319.928 32.424 321.152 32.4C319.976 33.432 317.48 35.448 316.136 36.552C314.72 37.728 311.816 40.176 310.112 41.544L312.296 43.8C314.864 40.872 317.264 38.928 320.936 38.928C323.768 38.928 325.928 40.392 325.928 42.552C325.928 44.016 325.256 45.12 323.936 45.816C323.6 43.536 321.8 41.712 318.824 41.712C316.28 41.712 314.528 43.512 314.528 45.456C314.528 47.856 317.048 49.392 320.384 49.392C326.192 49.392 329.072 46.392 329.072 42.6C329.072 39.096 325.976 36.552 321.896 36.552C321.128 36.552 320.408 36.624 319.616 36.816C321.128 35.616 323.648 33.504 324.944 32.592C325.496 32.184 326.072 31.848 326.624 31.488L325.064 29.352C324.776 29.448 324.224 29.52 323.24 29.616C321.872 29.736 316.736 29.832 315.464 29.832C314.792 29.832 313.952 29.808 313.28 29.712Z" fill="black"/>
</svg>
