<svg width="400" height="80" viewBox="0 0 400 80" fill="none" xmlns="http://www.w3.org/2000/svg">
<rect x="0.5" y="0.5" width="399" height="79" rx="9.5" fill="#CCB57A" stroke="black"/>
<path d="M129.464 33.808H136.304V36.064H138.92V31.408H134.288V28.672H131.504V31.408H126.968V36.064H129.464V33.808ZM123.56 34.048H120.584V31.864H123.56V34.048ZM123.56 38.392H120.584V36.16H123.56V38.392ZM123.56 42.736H120.584V40.504H123.56V42.736ZM126.272 29.608H118.016V45.016H126.272V29.608ZM119.336 45.208C118.784 46.84 117.752 48.496 116.552 49.576C117.176 49.936 118.304 50.68 118.808 51.136C120.056 49.888 121.28 47.848 122.024 45.832L119.336 45.208ZM122.48 46.12C123.44 47.368 124.424 49.096 124.784 50.2L127.184 49.048C126.752 47.92 125.744 46.336 124.736 45.136L122.48 46.12ZM139.16 37.432H126.8V40.048H131.552V48.064C131.552 48.376 131.432 48.472 131.096 48.472C130.76 48.472 129.584 48.472 128.504 48.424C128.912 49.168 129.272 50.296 129.392 51.064C131.072 51.064 132.32 51.016 133.208 50.608C134.12 50.176 134.36 49.48 134.36 48.136V40.048H139.16V37.432ZM150.368 43.144V47.944H147.128L149.096 47.104C148.736 46 147.8 44.368 146.888 43.144H150.368ZM147.656 35.824C149.384 34.384 150.872 32.824 151.904 31.384C152.96 32.824 154.544 34.384 156.32 35.824H147.656ZM156.704 43.144C156.176 44.416 155.216 46.168 154.424 47.296L155.984 47.944H153.368V43.144H160.76V40.696H153.368V38.32H157.952V37.072C159.152 37.936 160.4 38.728 161.6 39.352C162.128 38.464 162.776 37.504 163.496 36.784C159.704 35.248 155.84 32.224 153.248 28.6H150.296C148.52 31.48 144.68 35.08 140.6 37.072C141.224 37.672 142.016 38.704 142.376 39.376C143.6 38.728 144.824 37.96 145.952 37.144V38.32H150.368V40.696H143.072V43.144H146.744L144.56 44.08C145.4 45.256 146.192 46.864 146.552 47.944H141.872V50.392H162.176V47.944H156.752C157.592 46.936 158.528 45.472 159.44 44.152L156.704 43.144ZM174.92 30.208L171.344 29.848C171.392 31.36 171.176 33.112 170.84 34.912C169.616 35.032 168.488 35.104 167.744 35.128C166.856 35.152 166.064 35.2 165.176 35.128L165.464 38.392C166.208 38.272 167.456 38.104 168.152 37.984C168.584 37.936 169.352 37.84 170.216 37.744C169.328 41.032 167.672 45.88 165.344 49.024L168.464 50.272C170.672 46.744 172.448 41.056 173.36 37.408C174.056 37.36 174.656 37.312 175.04 37.312C176.528 37.312 177.368 37.576 177.368 39.496C177.368 41.872 177.032 44.776 176.384 46.144C176 46.936 175.4 47.176 174.584 47.176C173.96 47.176 172.568 46.936 171.656 46.672L172.16 49.84C172.976 50.008 174.128 50.176 175.04 50.176C176.864 50.176 178.184 49.648 178.976 47.968C180.008 45.88 180.344 41.992 180.344 39.16C180.344 35.704 178.544 34.576 176 34.576C175.496 34.576 174.8 34.624 173.984 34.672C174.152 33.808 174.344 32.92 174.488 32.2C174.608 31.6 174.776 30.832 174.92 30.208ZM185.6 28.216L183.68 28.984C184.352 29.896 185.12 31.312 185.624 32.296L187.52 31.48C187.112 30.64 186.224 29.128 185.6 28.216ZM182.744 29.296L180.848 30.088C181.4 30.856 182 32.008 182.48 32.92L180.32 33.856C182.024 35.968 183.728 40.192 184.352 42.856L187.4 41.464C186.728 39.328 184.928 35.32 183.488 33.088L184.664 32.584C184.208 31.696 183.344 30.184 182.744 29.296ZM189.656 32.536L189.968 35.824C192.752 35.224 197.648 34.696 199.904 34.456C198.272 35.68 196.328 38.416 196.328 41.872C196.328 47.08 201.08 49.768 206.12 50.104L207.248 46.816C203.168 46.6 199.472 45.184 199.472 41.224C199.472 38.368 201.656 35.272 204.56 34.504C205.832 34.192 207.896 34.192 209.192 34.168L209.168 31.096C207.464 31.168 204.848 31.312 202.376 31.528C197.984 31.888 194.024 32.248 192.008 32.416C191.552 32.464 190.616 32.512 189.656 32.536ZM205.76 36.52L203.984 37.264C204.752 38.344 205.256 39.28 205.856 40.6L207.68 39.784C207.224 38.848 206.36 37.384 205.76 36.52ZM208.448 35.416L206.696 36.232C207.464 37.288 208.016 38.176 208.664 39.472L210.464 38.608C209.96 37.672 209.048 36.256 208.448 35.416ZM215.504 36.808L215.672 39.64C219.296 39.856 223.16 39.856 226.112 39.664C226.496 40.48 226.952 41.32 227.456 42.16C226.736 42.088 225.44 41.968 224.432 41.872L224.192 44.152C225.944 44.344 228.536 44.656 229.88 44.92L231.344 42.712C230.912 42.304 230.576 41.944 230.264 41.488C229.832 40.864 229.424 40.12 229.016 39.352C230.456 39.16 231.752 38.896 232.856 38.608L232.376 35.776C231.2 36.088 229.76 36.496 227.792 36.736C227.648 36.352 227.504 35.992 227.384 35.656C227.264 35.296 227.144 34.912 227.024 34.528C228.608 34.312 230.12 34 231.44 33.64L231.056 30.88C229.52 31.36 227.984 31.696 226.328 31.912C226.16 31.096 226.016 30.256 225.896 29.392L222.68 29.752C222.968 30.592 223.208 31.36 223.448 32.128C221.24 32.2 218.792 32.104 215.936 31.768L216.104 34.528C219.128 34.816 221.936 34.864 224.192 34.744C224.336 35.152 224.48 35.608 224.672 36.16C224.768 36.424 224.864 36.712 224.984 37C222.32 37.168 219.08 37.144 215.504 36.808ZM220.112 42.376L217.136 41.8C216.584 42.952 216.056 44.128 216.104 45.664C216.152 49.096 219.128 50.512 223.928 50.512C225.896 50.512 228.08 50.344 229.76 50.056L229.928 47.008C228.224 47.344 226.184 47.536 223.904 47.536C220.736 47.536 219.056 46.816 219.056 45.04C219.056 44.008 219.536 43.168 220.112 42.376ZM247.328 29.68L244.016 29.344C243.968 30.592 243.704 32.032 243.368 33.352C242.624 33.424 241.904 33.448 241.184 33.448C240.296 33.448 239.024 33.4 237.992 33.28L238.208 36.064C239.24 36.136 240.224 36.16 241.208 36.16C241.616 36.16 242.024 36.16 242.456 36.136C241.4 38.728 239.456 42.256 237.56 44.608L240.464 46.096C242.408 43.384 244.448 39.184 245.6 35.824C247.208 35.584 248.696 35.272 249.8 34.984L249.704 32.2C248.768 32.488 247.64 32.752 246.464 32.968C246.824 31.672 247.136 30.448 247.328 29.68ZM246.08 46.288C246.08 45.448 246.968 44.824 248.36 44.824C249.032 44.824 249.68 44.92 250.304 45.064C250.304 45.256 250.304 45.4 250.304 45.544C250.304 46.864 249.8 47.776 248.144 47.776C246.824 47.776 246.08 47.176 246.08 46.288ZM252.944 37.144H249.944C249.992 38.608 250.112 40.744 250.208 42.52C249.656 42.472 249.128 42.424 248.552 42.424C245.216 42.424 243.248 44.224 243.248 46.576C243.248 49.216 245.6 50.536 248.576 50.536C251.984 50.536 253.208 48.808 253.208 46.576C253.208 46.504 253.208 46.408 253.208 46.336C254.528 47.128 255.608 48.136 256.448 48.904L258.056 46.336C256.832 45.232 255.152 44.032 253.088 43.264C253.04 42.064 252.968 40.912 252.944 40.216C252.92 39.16 252.872 38.152 252.944 37.144ZM257.072 38.416L258.776 35.896C257.552 35.008 254.576 33.376 252.848 32.632L251.312 35.008C252.944 35.752 255.68 37.312 257.072 38.416ZM266.24 31.84L262.544 31.792C262.688 32.536 262.736 33.568 262.736 34.24C262.736 35.704 262.76 38.512 263 40.72C263.672 47.152 265.952 49.528 268.592 49.528C270.512 49.528 272.024 48.064 273.608 43.888L271.208 40.96C270.752 42.88 269.792 45.688 268.664 45.688C267.152 45.688 266.432 43.312 266.096 39.856C265.952 38.128 265.928 36.328 265.952 34.768C265.952 34.096 266.072 32.704 266.24 31.84ZM278.24 32.392L275.192 33.376C277.808 36.352 279.08 42.184 279.464 46.048L282.608 44.824C282.344 41.152 280.52 35.152 278.24 32.392Z" fill="black"/>
</svg>
