<svg width="400" height="80" viewBox="0 0 400 80" fill="none" xmlns="http://www.w3.org/2000/svg">
<rect x="0.5" y="0.5" width="399" height="79" rx="9.5" fill="#CCB57A" stroke="black"/>
<path d="M42.8347 30.76C41.6347 30.184 39.3547 29.416 37.7707 29.032L36.5227 30.976C38.1787 31.456 40.4347 32.32 41.5387 32.92L42.8347 30.76ZM41.4667 44.296H51.8587V45.352H41.4667V44.296ZM41.4667 41.656H51.8587V42.688H41.4667V41.656ZM41.4667 39.016H51.8587V40.048H41.4667V39.016ZM45.3547 37.312C47.5627 36.688 48.9067 35.848 49.7467 34.72C50.4667 35.752 51.5707 36.64 53.4187 37.312H45.3547ZM54.7627 47.056V37.72C55.2427 37.84 55.7707 37.936 56.3467 38.032C56.6107 37.336 57.2347 36.232 57.7627 35.704C52.9147 35.128 51.5467 33.808 51.0427 32.272H53.7067C53.3947 32.776 53.0587 33.232 52.7707 33.592L54.9787 34.288C55.7707 33.4 56.6347 31.96 57.2587 30.664L55.3627 30.184L54.9307 30.256H47.8507C48.0907 29.872 48.2827 29.488 48.4747 29.08L45.9547 28.672C45.3307 30.064 44.1547 31.648 42.4267 32.848C43.0747 33.112 44.0587 33.688 44.5627 34.192C45.3067 33.592 45.9307 32.944 46.4827 32.272H48.2107C47.6827 33.976 46.4107 35.008 42.5947 35.632L42.3547 33.472C39.8107 34.072 37.2427 34.672 35.4667 35.008L36.5227 37.504C38.3227 37 40.5547 36.352 42.6187 35.752L42.5947 35.656C42.9787 36.04 43.4347 36.736 43.7227 37.312H38.7067V47.056H42.2347C40.5787 47.872 37.9627 48.64 35.6347 49.072C36.2347 49.576 37.2427 50.608 37.7467 51.16C40.1707 50.488 43.2427 49.312 45.2347 48.016L43.0507 47.056H50.0587L47.8987 48.304C50.3227 49.216 52.7707 50.344 54.1387 51.136L57.4507 49.864C55.8187 49.072 53.0587 47.92 50.6107 47.056H54.7627ZM66.3307 43.96C66.7867 43.456 67.2667 42.832 67.6987 42.16H71.3227V43.96H66.3307ZM74.1307 46.144H79.2667V43.96H74.1307V42.16H79.9627V39.976H74.1307V38.2H71.3227V39.976H68.8987C69.0907 39.544 69.2827 39.112 69.4267 38.68L66.9067 38.104C66.3067 39.856 65.2027 41.632 63.8827 42.784C64.5307 43.072 65.6107 43.72 66.1387 44.152L66.2827 44.008V46.144H71.3227V48.256H64.4347V50.608H81.2587V48.256H74.1307V46.144ZM73.8427 32.848C73.6027 33.664 73.2907 34.576 72.9787 35.272L73.4107 35.392H67.7707L68.4907 35.2C68.3467 34.552 68.0107 33.64 67.6027 32.848H73.8427ZM75.7147 35.392C76.1707 34.672 76.6987 33.76 77.2507 32.848H80.2267V30.424H72.0427V28.672H69.1867V30.424H61.0747V32.848H65.2267L64.6987 32.992C65.0827 33.736 65.4187 34.648 65.6107 35.392H61.2667V39.256C61.2667 42.112 61.0747 46.288 59.1067 49.216C59.6827 49.528 60.8827 50.512 61.3147 51.016C63.5707 47.728 64.0027 42.64 64.0027 39.28V37.84H81.4027V35.392H75.7147ZM92.5867 31.432H102.523V32.704H105.163V29.416H90.0907V32.704H92.5867V31.432ZM93.6427 41.224V40.288H96.0907V41.224H93.6427ZM93.6427 37.696H96.0907V38.632H93.6427V37.696ZM101.419 37.696V38.632H98.8747V37.696H101.419ZM101.419 41.224H98.8747V40.288H101.419V41.224ZM96.0907 47.488H98.8747V45.904H105.403V43.84H98.8747V42.952H103.963V35.92H98.8747V35.08H104.371V33.112H98.8747V31.864H96.0907V33.112H90.7627V35.08H96.0907V35.92H91.2187V42.952H96.0907V43.84H89.8747V45.904H96.0907V47.488ZM89.5867 33.088C88.8187 31.936 87.1627 30.352 85.8187 29.272L83.6347 30.904C84.9787 32.056 86.5627 33.712 87.2347 34.888L89.5867 33.088ZM88.9387 37.984H83.5387V40.6H86.2267V45.832C85.2667 46.648 84.1867 47.44 83.2507 48.04L84.5947 50.872C85.8187 49.84 86.8027 48.928 87.7627 47.992C89.2027 49.84 91.1227 50.536 93.9787 50.656C96.9067 50.776 101.995 50.728 104.971 50.584C105.115 49.792 105.523 48.472 105.859 47.8C102.547 48.064 96.8827 48.136 94.0027 48.016C91.5547 47.92 89.8747 47.248 88.9387 45.64V37.984ZM120.235 41.392V38.44H125.299V41.392H120.235ZM112.771 41.392C112.819 40.504 112.843 39.64 112.843 38.872V38.44H117.355V41.392H112.771ZM117.355 32.992V35.776H112.843V32.992H117.355ZM125.299 35.776H120.235V32.992H125.299V35.776ZM128.131 30.28H110.011V38.848C110.011 42.208 109.795 46.48 107.179 49.36C107.827 49.696 108.979 50.68 109.435 51.208C111.163 49.336 112.027 46.696 112.459 44.08H117.355V50.776H120.235V44.08H125.299V47.68C125.299 48.112 125.131 48.256 124.675 48.256C124.243 48.256 122.659 48.28 121.315 48.208C121.675 48.952 122.131 50.176 122.227 50.944C124.387 50.968 125.851 50.92 126.835 50.44C127.795 50.008 128.131 49.24 128.131 47.704V30.28ZM141.475 30.208L137.899 29.848C137.947 31.36 137.731 33.112 137.395 34.912C136.171 35.032 135.043 35.104 134.299 35.128C133.411 35.152 132.619 35.2 131.731 35.128L132.019 38.392C132.763 38.272 134.011 38.104 134.707 37.984C135.139 37.936 135.907 37.84 136.771 37.744C135.883 41.032 134.227 45.88 131.899 49.024L135.019 50.272C137.227 46.744 139.003 41.056 139.915 37.408C140.611 37.36 141.211 37.312 141.595 37.312C143.083 37.312 143.923 37.576 143.923 39.496C143.923 41.872 143.587 44.776 142.939 46.144C142.555 46.936 141.955 47.176 141.139 47.176C140.515 47.176 139.123 46.936 138.211 46.672L138.715 49.84C139.531 50.008 140.683 50.176 141.595 50.176C143.419 50.176 144.739 49.648 145.531 47.968C146.563 45.88 146.899 41.992 146.899 39.16C146.899 35.704 145.099 34.576 142.555 34.576C142.051 34.576 141.355 34.624 140.539 34.672C140.707 33.808 140.899 32.92 141.043 32.2C141.163 31.6 141.331 30.832 141.475 30.208ZM152.155 28.216L150.235 28.984C150.907 29.896 151.675 31.312 152.179 32.296L154.075 31.48C153.667 30.64 152.779 29.128 152.155 28.216ZM149.299 29.296L147.403 30.088C147.955 30.856 148.555 32.008 149.035 32.92L146.875 33.856C148.579 35.968 150.283 40.192 150.907 42.856L153.955 41.464C153.283 39.328 151.483 35.32 150.043 33.088L151.219 32.584C150.763 31.696 149.899 30.184 149.299 29.296ZM163.459 29.968L159.595 29.92C159.811 30.88 159.907 32.032 159.907 33.16C159.907 35.224 159.667 41.536 159.667 44.752C159.667 48.856 162.211 50.584 166.147 50.584C171.619 50.584 175.027 47.368 176.563 45.064L174.379 42.424C172.651 45.04 170.131 47.32 166.171 47.32C164.299 47.32 162.859 46.528 162.859 44.104C162.859 41.128 163.051 35.752 163.147 33.16C163.195 32.2 163.315 30.976 163.459 29.968ZM192.643 43.144L189.787 42.856C189.595 43.816 189.355 44.968 189.355 46.072C189.355 48.496 191.539 49.888 195.571 49.888C197.491 49.888 199.123 49.72 200.467 49.552L200.587 46.48C198.859 46.792 197.203 46.984 195.595 46.984C193.027 46.984 192.307 46.192 192.307 45.136C192.307 44.608 192.451 43.816 192.643 43.144ZM189.931 29.848L186.259 29.56C186.331 30.112 186.283 31.096 186.187 31.984C186.139 32.368 186.067 32.824 185.971 33.352C185.227 33.4 184.507 33.424 183.811 33.424C182.827 33.424 182.011 33.376 180.787 33.232L180.859 36.232C181.699 36.28 182.611 36.328 183.763 36.328C184.267 36.328 184.795 36.304 185.347 36.28C185.203 36.976 185.011 37.648 184.843 38.296C183.955 41.656 182.131 46.696 180.691 49.096L184.027 50.224C185.371 47.368 186.979 42.472 187.843 39.112C188.107 38.128 188.347 37.072 188.563 36.04C190.171 35.848 191.803 35.584 193.243 35.248V32.248C191.923 32.56 190.579 32.824 189.235 33.016C189.307 32.68 189.379 32.368 189.427 32.104C189.523 31.576 189.739 30.496 189.931 29.848ZM191.347 37.096V39.904C192.859 39.736 194.347 39.664 195.979 39.664C197.443 39.664 198.907 39.808 200.107 39.952L200.179 37.072C198.763 36.928 197.323 36.856 195.955 36.856C194.419 36.856 192.691 36.976 191.347 37.096ZM208.795 31.84L205.099 31.792C205.243 32.536 205.291 33.568 205.291 34.24C205.291 35.704 205.315 38.512 205.555 40.72C206.227 47.152 208.507 49.528 211.147 49.528C213.067 49.528 214.579 48.064 216.163 43.888L213.763 40.96C213.307 42.88 212.347 45.688 211.219 45.688C209.707 45.688 208.987 43.312 208.651 39.856C208.507 38.128 208.483 36.328 208.507 34.768C208.507 34.096 208.627 32.704 208.795 31.84ZM220.795 32.392L217.747 33.376C220.363 36.352 221.635 42.184 222.019 46.048L225.163 44.824C224.899 41.152 223.075 35.152 220.795 32.392ZM237.475 30.208L233.899 29.848C233.947 31.36 233.731 33.112 233.395 34.912C232.171 35.032 231.043 35.104 230.299 35.128C229.411 35.152 228.619 35.2 227.731 35.128L228.019 38.392C228.763 38.272 230.011 38.104 230.707 37.984C231.139 37.936 231.907 37.84 232.771 37.744C231.883 41.032 230.227 45.88 227.899 49.024L231.019 50.272C233.227 46.744 235.003 41.056 235.915 37.408C236.611 37.36 237.211 37.312 237.595 37.312C239.083 37.312 239.923 37.576 239.923 39.496C239.923 41.872 239.587 44.776 238.939 46.144C238.555 46.936 237.955 47.176 237.139 47.176C236.515 47.176 235.123 46.936 234.211 46.672L234.715 49.84C235.531 50.008 236.683 50.176 237.595 50.176C239.419 50.176 240.739 49.648 241.531 47.968C242.563 45.88 242.899 41.992 242.899 39.16C242.899 35.704 241.099 34.576 238.555 34.576C238.051 34.576 237.355 34.624 236.539 34.672C236.707 33.808 236.899 32.92 237.043 32.2C237.163 31.6 237.331 30.832 237.475 30.208ZM248.155 28.216L246.235 28.984C246.907 29.896 247.675 31.312 248.179 32.296L250.075 31.48C249.667 30.64 248.779 29.128 248.155 28.216ZM245.299 29.296L243.403 30.088C243.955 30.856 244.555 32.008 245.035 32.92L242.875 33.856C244.579 35.968 246.283 40.192 246.907 42.856L249.955 41.464C249.283 39.328 247.483 35.32 246.043 33.088L247.219 32.584C246.763 31.696 245.899 30.184 245.299 29.296ZM262.771 40.84V38.152H258.835V37.576V34.336H262.219V31.696H255.883C256.123 30.88 256.315 30.064 256.483 29.224L253.747 28.672C253.267 31.408 252.355 34.168 251.059 35.896C251.707 36.256 252.835 37.072 253.363 37.552C253.963 36.664 254.515 35.56 254.995 34.336H255.955V37.552V38.152H251.515V40.84H255.763C255.379 43.624 254.275 46.624 251.155 48.856C251.755 49.288 252.811 50.416 253.195 51.016C255.499 49.336 256.915 47.08 257.731 44.728C258.907 46.192 260.275 47.992 261.067 49.24L262.987 46.84C262.315 46.048 259.723 43.048 258.475 41.824C258.547 41.512 258.595 41.176 258.643 40.84H262.771ZM266.179 45.976V33.424H269.659V45.976H266.179ZM263.419 30.736V50.392H266.179V48.664H269.659V50.032H272.563V30.736H263.419ZM282.283 29.416H276.403V31.576H282.283V29.416ZM282.883 32.632H275.347V34.888H282.883V32.632ZM282.307 35.968H276.283V38.152H282.307V35.968ZM276.283 41.392H282.307V39.256H276.283V41.392ZM280.147 44.8V47.56H278.371V44.8H280.147ZM282.379 42.568H276.211V50.752H278.371V49.792H282.379V42.568ZM285.763 46.456V45.184H288.115V46.456H285.763ZM288.115 42.064V43.264H285.763V42.064H288.115ZM295.195 40.024C294.859 41.056 294.451 42.016 293.995 42.928C293.899 41.776 293.803 40.48 293.755 39.016H297.619V36.736H293.707C293.659 35.008 293.659 33.136 293.683 31.12C294.547 32.44 295.291 34.168 295.555 35.368L297.835 34.432C297.499 33.232 296.659 31.432 295.699 30.136L293.683 30.904L293.707 28.696H291.283C291.283 31.648 291.307 34.336 291.355 36.736H289.507C289.747 35.872 290.035 34.672 290.347 33.52L288.187 33.184H290.851V31.048H288.355V28.696H285.739V31.048H283.195V33.184H288.043C287.947 34.144 287.731 35.536 287.539 36.472L288.787 36.736H284.899L286.507 36.352C286.483 35.512 286.195 34.216 285.811 33.256L283.915 33.664C284.227 34.624 284.443 35.872 284.491 36.736H282.691V39.016H291.427C291.547 41.752 291.739 44.056 292.075 45.904C291.547 46.552 290.995 47.128 290.419 47.68V40.096H283.627V49.336H285.763V48.424H289.555C289.051 48.832 288.523 49.192 287.995 49.504C288.523 49.912 289.267 50.608 289.603 51.088C290.683 50.392 291.763 49.528 292.747 48.52C293.371 50.152 294.283 51.04 295.555 51.136C296.467 51.184 297.499 50.344 298.099 46.936C297.691 46.672 296.755 45.904 296.347 45.328C296.251 47.032 296.011 48.088 295.699 48.064C295.219 48.016 294.835 47.416 294.547 46.384C295.651 44.848 296.611 43.12 297.307 41.2L295.195 40.024ZM309.475 30.208L305.899 29.848C305.947 31.36 305.731 33.112 305.395 34.912C304.171 35.032 303.043 35.104 302.299 35.128C301.411 35.152 300.619 35.2 299.731 35.128L300.019 38.392C300.763 38.272 302.011 38.104 302.707 37.984C303.139 37.936 303.907 37.84 304.771 37.744C303.883 41.032 302.227 45.88 299.899 49.024L303.019 50.272C305.227 46.744 307.003 41.056 307.915 37.408C308.611 37.36 309.211 37.312 309.595 37.312C311.083 37.312 311.923 37.576 311.923 39.496C311.923 41.872 311.587 44.776 310.939 46.144C310.555 46.936 309.955 47.176 309.139 47.176C308.515 47.176 307.123 46.936 306.211 46.672L306.715 49.84C307.531 50.008 308.683 50.176 309.595 50.176C311.419 50.176 312.739 49.648 313.531 47.968C314.563 45.88 314.899 41.992 314.899 39.16C314.899 35.704 313.099 34.576 310.555 34.576C310.051 34.576 309.355 34.624 308.539 34.672C308.707 33.808 308.899 32.92 309.043 32.2C309.163 31.6 309.331 30.832 309.475 30.208ZM320.155 28.216L318.235 28.984C318.907 29.896 319.675 31.312 320.179 32.296L322.075 31.48C321.667 30.64 320.779 29.128 320.155 28.216ZM317.299 29.296L315.403 30.088C315.955 30.856 316.555 32.008 317.035 32.92L314.875 33.856C316.579 35.968 318.283 40.192 318.907 42.856L321.955 41.464C321.283 39.328 319.483 35.32 318.043 33.088L319.219 32.584C318.763 31.696 317.899 30.184 317.299 29.296ZM333.883 29.68L330.571 29.344C330.523 30.592 330.259 32.032 329.923 33.352C329.179 33.424 328.459 33.448 327.739 33.448C326.851 33.448 325.579 33.4 324.547 33.28L324.763 36.064C325.795 36.136 326.779 36.16 327.763 36.16C328.171 36.16 328.579 36.16 329.011 36.136C327.955 38.728 326.011 42.256 324.115 44.608L327.019 46.096C328.963 43.384 331.003 39.184 332.155 35.824C333.763 35.584 335.251 35.272 336.355 34.984L336.259 32.2C335.323 32.488 334.195 32.752 333.019 32.968C333.379 31.672 333.691 30.448 333.883 29.68ZM332.635 46.288C332.635 45.448 333.523 44.824 334.915 44.824C335.587 44.824 336.235 44.92 336.859 45.064C336.859 45.256 336.859 45.4 336.859 45.544C336.859 46.864 336.355 47.776 334.699 47.776C333.379 47.776 332.635 47.176 332.635 46.288ZM339.499 37.144H336.499C336.547 38.608 336.667 40.744 336.763 42.52C336.211 42.472 335.683 42.424 335.107 42.424C331.771 42.424 329.803 44.224 329.803 46.576C329.803 49.216 332.155 50.536 335.131 50.536C338.539 50.536 339.763 48.808 339.763 46.576C339.763 46.504 339.763 46.408 339.763 46.336C341.083 47.128 342.163 48.136 343.003 48.904L344.611 46.336C343.387 45.232 341.707 44.032 339.643 43.264C339.595 42.064 339.523 40.912 339.499 40.216C339.475 39.16 339.427 38.152 339.499 37.144ZM343.627 38.416L345.331 35.896C344.107 35.008 341.131 33.376 339.403 32.632L337.867 35.008C339.499 35.752 342.235 37.312 343.627 38.416ZM352.795 31.84L349.099 31.792C349.243 32.536 349.291 33.568 349.291 34.24C349.291 35.704 349.315 38.512 349.555 40.72C350.227 47.152 352.507 49.528 355.147 49.528C357.067 49.528 358.579 48.064 360.163 43.888L357.763 40.96C357.307 42.88 356.347 45.688 355.219 45.688C353.707 45.688 352.987 43.312 352.651 39.856C352.507 38.128 352.483 36.328 352.507 34.768C352.507 34.096 352.627 32.704 352.795 31.84ZM364.795 32.392L361.747 33.376C364.363 36.352 365.635 42.184 366.019 46.048L369.163 44.824C368.899 41.152 367.075 35.152 364.795 32.392Z" fill="black"/>
</svg>
